<!-- Generator: Adobe Illustrator 18.0.0, SVG Export Plug-In  -->
<svg version="1.1"
	 xmlns="http://www.w3.org/2000/svg" xmlns:xlink="http://www.w3.org/1999/xlink" xmlns:a="http://ns.adobe.com/AdobeSVGViewerExtensions/3.0/"
	 x="0px" y="0px" width="28.5px" height="28.5px" viewBox="0 0 28.5 28.5" enable-background="new 0 0 28.5 28.5"
	 xml:space="preserve">
<defs>
</defs>
<path fill="#FFFFFF" d="M21,14.1h-1.9v-1.9c0-0.1-0.1-0.3-0.3-0.3h-0.5c-0.1,0-0.3,0.1-0.3,0.3v1.9h-1.9c-0.1,0-0.3,0.1-0.3,0.3v0.5
	c0,0.1,0.1,0.3,0.3,0.3H18V17c0,0.1,0.1,0.3,0.3,0.3h0.5c0.1,0,0.3-0.1,0.3-0.3v-1.9H21c0.1,0,0.3-0.1,0.3-0.3v-0.5
	C21.2,14.2,21.1,14.1,21,14.1"/>
<path fill="#FFFFFF" d="M15.7,14.8C15.3,14.6,15,14.2,15,14c0-0.2,0-0.3,0.5-0.7c0.7-0.5,1-1.2,1-1.9c0-0.7-0.2-1.2-0.5-1.6h0.3
	c0.1,0,0.1,0,0.2,0l0.7-0.5c0.1-0.1,0.1-0.2,0.1-0.3c0-0.1-0.1-0.2-0.2-0.2h-3.3c-0.4,0-0.7,0.1-1.1,0.2c-1.2,0.4-2,1.4-2,2.5
	c0,1.5,1.2,2.6,2.7,2.6c0,0.1,0,0.2,0,0.3c0,0.2,0.1,0.4,0.2,0.7h0c-1.5,0-2.8,0.7-3.3,1.8c-0.1,0.3-0.2,0.6-0.2,0.8
	c0,0.3,0.1,0.5,0.2,0.8c0.3,0.6,1,1,1.9,1.2c0.5,0.1,1,0.2,1.5,0.2c0.5,0,0.9-0.1,1.3-0.2c1.3-0.4,2.1-1.3,2.1-2.4
	C17,16.1,16.6,15.5,15.7,14.8 M11.6,17.3c0-0.8,1-1.5,2.1-1.5h0c0.2,0,0.5,0,0.7,0.1c0.1,0.1,0.2,0.1,0.2,0.2c0.5,0.4,0.9,0.6,1,1
	c0,0.1,0,0.2,0,0.3c0,1-0.7,1.5-2.1,1.5C12.4,18.8,11.6,18.1,11.6,17.3 M12.6,10c0.2-0.2,0.4-0.3,0.7-0.3l0,0c0.7,0,1.4,0.8,1.5,1.8
	c0.1,0.5,0,1.1-0.3,1.4c-0.2,0.2-0.4,0.3-0.7,0.3h0h0c-0.7,0-1.4-0.9-1.5-1.8C12.2,10.8,12.3,10.3,12.6,10"/>
<circle fill="none" stroke="#FFFFFF" stroke-width="0.75" stroke-miterlimit="10" cx="14.2" cy="14.2" r="13.9"/>
</svg>
