<!-- Generator: Adobe Illustrator 18.0.0, SVG Export Plug-In  -->
<svg version="1.1"
	 xmlns="http://www.w3.org/2000/svg" xmlns:xlink="http://www.w3.org/1999/xlink" xmlns:a="http://ns.adobe.com/AdobeSVGViewerExtensions/3.0/"
	 x="0px" y="0px" width="101.5px" height="132px" viewBox="0 0 101.5 132" enable-background="new 0 0 101.5 132"
	 xml:space="preserve">
<defs>
</defs>
<path fill-rule="evenodd" clip-rule="evenodd" fill="none" stroke="#FFFFFF" stroke-width="0.75" stroke-miterlimit="10" d="
	M48.6,61.2c-1.4,0.1-2.5,1.1-3.4,2.1c-1.4,1.3-2.4,0.3-2.3-0.9c0.3-1.9,3.1-3.3,5.3-3.6c4.5,0,7.5,1.3,9.4,3c1.2,0.9,2.5,2.7,1,2.4
	C53.8,62.1,51.8,61.2,48.6,61.2L48.6,61.2z"/>
<path fill="#FFFFFF" d="M94.1,60.9c0-0.1,0-0.2-0.1-0.4c-0.2,0-0.5,0.1-0.7,0.1c0,0.2,0.1,0.4,0.1,0.6l0,0.3l0.3,0.1
	c4.6,1,7,4.9,7,11.3c0,8.6-4.2,19-9.5,19c-0.3,0-0.7,0-1.1-0.1l-0.3-0.1l-0.1,0.3c-6.5,19.5-21,39.2-38.9,39.2
	c-17.9,0-32.5-19.7-38.9-39.2l-0.1-0.3l-0.3,0.1c-0.4,0.1-0.8,0.1-1.1,0.1c-5.3,0-9.5-10.4-9.5-19c0-6.3,2.3-10.1,6.7-11.2
	c-0.3-0.2-0.6-0.4-0.8-0.5C3.4,62.1,0,65.1,0,72.9C0,82,4.5,92.7,10.3,92.7c0.3,0,0.6,0,0.9-0.1c6.6,19.7,21.4,39.4,39.6,39.4
	c18.2,0,32.9-19.7,39.6-39.4c0.3,0,0.6,0.1,0.9,0.1c5.8,0,10.3-10.6,10.3-19.8C101.5,64.5,97.5,61.7,94.1,60.9z"/>
<path fill="none" stroke="#FFFFFF" stroke-width="0.75" stroke-miterlimit="10" d="M50.7,0.4C69,0.4,87.9,9,94.2,21.6
	c6.9,13.8,3.8,41.8,3.8,41.8s-2.1-1.9-4.2-2.2s-2.8,16.3-2.8,16.3h-2.4c0,0-1-8.3-3.2-14.1c0,0-3.8-5.4-1.4-9.4
	c7-11.6,3.8-26.6-33.3-26.6c-37,0-40.3,13-33.5,26.9c1.7,3.5-1.2,9-1.2,9c-2.2,5.8-3.2,14.1-3.2,14.1h-2.4c0,0-0.7-16.6-2.8-16.3
	s-4.2,2.2-4.2,2.2s-3.1-28,3.8-41.8C13.6,9,32.4,0.4,50.7,0.4z"/>
<path fill-rule="evenodd" clip-rule="evenodd" fill="none" stroke="#FFFFFF" stroke-width="0.75" stroke-miterlimit="10" d="
	M47.9,102.5c-1.4-0.6-2.6-0.3-3.6,0.7c-3.2,2.3-5.9,3.5-8.1,3.6c-1.3,0.1-1.3,0.4-0.1,0.8c3.7,0.4,6.7,0.3,9-0.5
	c1.1-0.3,2.1-0.4,2.9-0.1c0.7,0.5,1.6,0.8,2.7,0.9v-4.9C49.9,102.9,49,102.8,47.9,102.5L47.9,102.5z"/>
<path fill-rule="evenodd" clip-rule="evenodd" fill="none" stroke="#FFFFFF" stroke-width="0.75" stroke-miterlimit="10" d="
	M39.3,108.9c0.4,2.3,2.7,3.8,5.4,4.5c1.6,0.3,3.6,0.6,5.9,0.7V109c-1.1-0.1-2-0.4-2.7-0.9c-0.9-0.3-1.8-0.2-2.9,0.1
	C43.5,108.8,41.6,109,39.3,108.9L39.3,108.9z"/>
<path fill-rule="evenodd" clip-rule="evenodd" fill="none" stroke="#FFFFFF" stroke-width="0.75" stroke-miterlimit="10" d="
	M53.5,102.5c1.4-0.6,2.6-0.3,3.6,0.7c3.2,2.3,5.9,3.5,8.1,3.6c1.3,0.1,1.3,0.4,0.1,0.8c-3.7,0.4-6.7,0.3-9-0.5
	c-1.1-0.3-2.1-0.4-2.9-0.1c-0.7,0.5-1.6,0.8-2.7,0.9v-4.9C51.6,102.9,52.4,102.8,53.5,102.5L53.5,102.5z"/>
<path fill-rule="evenodd" clip-rule="evenodd" fill="none" stroke="#FFFFFF" stroke-width="0.75" stroke-miterlimit="10" d="
	M62.1,108.9c-0.4,2.3-2.7,3.8-5.4,4.5c-1.6,0.3-3.6,0.6-5.9,0.7V109c1.1-0.1,2-0.4,2.7-0.9c0.9-0.3,1.8-0.2,2.9,0.1
	C57.9,108.8,59.9,109,62.1,108.9L62.1,108.9z"/>
<rect x="50.6" y="27.1" fill="#FFFFFF" width="0.5" height="103.4"/>
<path fill="none" stroke="#FFFFFF" stroke-width="0.75" stroke-miterlimit="10" d="M42.4,71.5l-21.7,1.7c-1.6,0.1-3.1-1.1-3.2-2.8
	L16.8,62c-0.1-1.6,1.1-3.1,2.8-3.2l21.7-1.7c1.6-0.1,3.1,1.1,3.2,2.8l0.6,8.4C45.3,69.9,44,71.4,42.4,71.5z"/>
<path fill="none" stroke="#FFFFFF" stroke-width="0.75" stroke-miterlimit="10" d="M40.8,70.4l-18.6,1.4c-1.6,0.1-3.1-1.1-3.2-2.8
	l-0.4-5.8c-0.1-1.6,1.1-3.1,2.8-3.2l18.6-1.4c1.6-0.1,3.1,1.1,3.2,2.8l0.4,5.8C43.6,68.8,42.4,70.2,40.8,70.4z"/>
<path fill="none" stroke="#FFFFFF" stroke-width="0.75" stroke-miterlimit="10" d="M81.3,72.1l-21-0.5c-1.6,0-3-1.4-2.9-3.1l0.2-8
	c0-1.6,1.4-3,3.1-2.9l21,0.5c1.6,0,3,1.4,2.9,3.1l-0.2,8C84.3,70.8,82.9,72.1,81.3,72.1z"/>
<path fill="none" stroke="#FFFFFF" stroke-width="0.75" stroke-miterlimit="10" d="M79.8,70.8l-18-0.5c-1.6,0-3-1.4-2.9-3.1l0.1-5.5
	c0-1.6,1.4-3,3.1-2.9l18,0.5c1.6,0,3,1.4,2.9,3.1l-0.1,5.5C82.8,69.6,81.4,70.9,79.8,70.8z"/>
</svg>
