<!-- Generator: Adobe Illustrator 18.0.0, SVG Export Plug-In  -->
<svg version="1.1"
	 xmlns="http://www.w3.org/2000/svg" xmlns:xlink="http://www.w3.org/1999/xlink" xmlns:a="http://ns.adobe.com/AdobeSVGViewerExtensions/3.0/"
	 x="0px" y="0px" width="269.7px" height="77.6px" viewBox="0 0 269.7 77.6" enable-background="new 0 0 269.7 77.6"
	 xml:space="preserve">
<defs>
</defs>
<g>
	<polygon fill="#FFFFFF" points="5.8,3.7 0,3.7 0,59 31.5,59 31.5,53.8 5.8,53.8 	"/>
	<path fill="#FFFFFF" d="M68.3,54.7c-0.1-1.5-0.1-2.8-0.1-3.8V22.4h-5.5v18.8c0,2.4-0.3,4.5-0.9,6.3c-0.6,1.8-1.4,3.2-2.5,4.4
		c-1,1.1-2.2,2-3.5,2.6c-1.3,0.6-2.7,0.8-4,0.8c-1.9,0-3.5-0.3-4.7-0.9c-1.2-0.6-2.2-1.5-3-2.6c-0.7-1.1-1.3-2.4-1.6-4
		c-0.3-1.5-0.5-3.3-0.5-5.2V22.4h-5.5v22.4c0,4.5,1.2,8.2,3.5,11c2.3,2.8,5.8,4.2,10.5,4.2c2.6,0,5.1-0.7,7.4-2c2.3-1.3,4-3,5-5.1
		c0,0.7,0,1.7,0.1,2.7c0.1,1.2,0.1,2.3,0.2,3.3l0,0.1h5.3l0-0.1C68.4,57.6,68.4,56.2,68.3,54.7z"/>
	<path fill="#FFFFFF" d="M104,50.5c-1,1.4-2.3,2.5-3.9,3.4c-1.6,0.9-3.5,1.3-5.8,1.3c-2.1,0-4-0.4-5.7-1.1c-1.7-0.7-3.1-1.8-4.3-3.1
		c-1.2-1.3-2.1-2.8-2.7-4.6c-0.6-1.7-1-3.7-1-5.7c0-2,0.3-4,1-5.7c0.6-1.8,1.6-3.3,2.8-4.6c1.2-1.3,2.7-2.3,4.3-3.1
		c1.7-0.7,3.6-1.1,5.7-1.1c1.9,0,3.8,0.5,5.4,1.3c1.7,0.9,2.9,2,3.8,3.4l0.1,0.1l4.3-3.1l-0.1-0.1c-1.6-2.1-3.6-3.7-6.1-4.7
		c-2.5-1.1-5-1.6-7.5-1.6c-3,0-5.7,0.5-8,1.4c-2.4,1-4.5,2.3-6.1,4c-1.7,1.7-3,3.8-4,6.1c-0.9,2.3-1.4,4.9-1.4,7.7s0.5,5.3,1.4,7.7
		c0.9,2.3,2.3,4.4,4,6.1c1.7,1.7,3.8,3.1,6.1,4s5.1,1.4,8,1.4c3.2,0,5.9-0.6,8.2-1.7c2.3-1.1,4.2-2.7,5.7-4.6l0.1-0.1l-4.2-3.1
		L104,50.5z"/>
	<rect x="114.7" y="22.4" fill="#FFFFFF" width="5.5" height="36.6"/>
	<path fill="#FFFFFF" d="M117.4,4.7c-1,0-1.9,0.4-2.6,1.1c-0.8,0.7-1.2,1.7-1.2,2.8s0.4,2.1,1.2,2.8c0.8,0.7,1.7,1.1,2.6,1.1
		c1,0,1.8-0.4,2.6-1.1c0.8-0.7,1.2-1.7,1.2-2.8s-0.4-2.1-1.2-2.8C119.3,5,118.4,4.7,117.4,4.7z"/>
	<path fill="#FFFFFF" d="M159.4,28.6c-1.5-2.3-3.6-4.1-6-5.3c-2.5-1.2-5.1-1.8-7.7-1.8c-2.9,0-5.5,0.5-7.8,1.5
		c-2.3,1-4.3,2.4-5.9,4.1c-1.6,1.7-2.9,3.8-3.8,6.1c-0.9,2.3-1.4,4.9-1.4,7.6s0.5,5.2,1.4,7.6c0.9,2.3,2.2,4.4,3.8,6.1
		c1.6,1.7,3.6,3.1,5.9,4.1c2.3,1,4.9,1.5,7.8,1.5c2.6,0,5.3-0.6,7.7-1.8c2.5-1.2,4.5-2.9,6-5.2V59h5.5V0h-5.5V28.6z M146.2,55.2
		c-2.1,0-4.1-0.4-5.8-1.1c-1.7-0.7-3.1-1.8-4.3-3.1c-1.1-1.3-2-2.9-2.7-4.6c-0.6-1.8-0.9-3.7-0.9-5.7c0-2,0.3-3.9,0.9-5.7
		c0.6-1.8,1.5-3.3,2.7-4.6c1.1-1.3,2.6-2.3,4.3-3.1c1.7-0.8,3.6-1.2,5.8-1.2c2,0,3.9,0.4,5.5,1.1c1.7,0.7,3.2,1.8,4.4,3.1
		c1.2,1.3,2.2,2.9,2.9,4.6s1,3.7,1,5.7s-0.3,4-1,5.7c-0.7,1.8-1.7,3.3-2.9,4.6c-1.2,1.3-2.7,2.3-4.4,3
		C150,54.8,148.2,55.2,146.2,55.2z"/>
	<rect x="175.8" y="22.4" fill="#FFFFFF" width="5.5" height="36.6"/>
	<path fill="#FFFFFF" d="M178.6,4.7c-1,0-1.9,0.4-2.6,1.1c-0.8,0.7-1.2,1.7-1.2,2.8s0.4,2.1,1.2,2.8c0.8,0.7,1.7,1.1,2.6,1.1
		c1,0,1.8-0.4,2.6-1.1c0.8-0.7,1.2-1.7,1.2-2.8s-0.4-2.1-1.2-2.8C180.4,5,179.5,4.7,178.6,4.7z"/>
	<path fill="#FFFFFF" d="M209.8,21.4c-2.6,0-5.1,0.7-7.4,2c-2.3,1.3-4,3-5,5.1c0-0.7,0-1.7-0.1-2.7c-0.1-1.2-0.1-2.3-0.2-3.3l0-0.1
		h-5.3l0,0.1c0.1,1.2,0.2,2.6,0.2,4.2c0.1,1.6,0.1,2.8,0.1,3.8V59h5.5V40.2c0-2.4,0.3-4.5,0.9-6.3c0.6-1.8,1.4-3.2,2.5-4.4
		c1-1.1,2.2-2,3.5-2.6c1.3-0.6,2.7-0.8,4-0.8c1.9,0,3.5,0.3,4.7,0.9c1.2,0.6,2.2,1.5,3,2.6c0.7,1.1,1.3,2.4,1.6,4
		c0.3,1.5,0.5,3.3,0.5,5.2V59h5.5V36.6c0-4.5-1.2-8.2-3.5-11C217.9,22.8,214.4,21.4,209.8,21.4z"/>
	<path fill="#FFFFFF" d="M264.1,22.4v6.2c-1.5-2.3-3.5-4.1-6-5.3c-2.5-1.2-5.2-1.9-7.8-1.9c-2.9,0-5.5,0.5-7.8,1.5
		c-2.3,1-4.3,2.4-5.9,4.1c-1.6,1.7-2.9,3.7-3.8,6c-0.9,2.3-1.4,4.8-1.4,7.3c0,2.6,0.5,5.1,1.4,7.4c0.9,2.3,2.2,4.3,3.8,5.9
		c1.6,1.6,3.6,2.9,5.9,3.9c2.3,0.9,4.9,1.4,7.8,1.4c2.6,0,5.3-0.6,7.9-1.9c2.5-1.2,4.5-3,5.9-5.2v6.6c0,1.9-0.3,3.8-0.8,5.5
		c-0.5,1.7-1.3,3.2-2.4,4.5c-1.1,1.3-2.6,2.3-4.3,3c-1.8,0.7-4,1.1-6.6,1.1c-2.8,0-5.4-0.6-7.9-1.9c-2.5-1.3-4.5-2.9-5.9-4.7
		l-0.1-0.1l-3.9,4.1l-0.1,0.1l0.1,0.1c2.2,2.3,4.8,4.1,7.9,5.4c3.1,1.3,6.3,2,9.7,2c4,0,7.4-0.6,9.9-1.9c2.5-1.2,4.6-2.8,6.1-4.7
		c1.5-1.9,2.5-4,3.1-6.2c0.5-2.2,0.8-4.4,0.8-6.3V22.4H264.1z M250.9,54.2c-2.1,0-4.1-0.4-5.8-1.1c-1.7-0.7-3.1-1.8-4.3-3
		c-1.1-1.3-2-2.8-2.7-4.5c-0.6-1.7-0.9-3.5-0.9-5.4s0.3-3.7,0.9-5.4c0.6-1.7,1.5-3.2,2.7-4.5c1.1-1.3,2.6-2.3,4.3-3.1
		s3.6-1.2,5.8-1.2c2,0,3.9,0.4,5.5,1.2c1.7,0.8,3.2,1.8,4.4,3.1c1.2,1.3,2.2,2.8,2.9,4.5c0.7,1.7,1,3.5,1,5.4c0,2.1-0.3,4-1,5.7
		c-0.7,1.7-1.7,3.2-2.9,4.4c-1.2,1.2-2.7,2.2-4.4,2.8C254.8,53.9,252.9,54.2,250.9,54.2z"/>
</g>
</svg>
