<!-- Generator: Adobe Illustrator 18.0.0, SVG Export Plug-In  -->
<svg version="1.1"
	 xmlns="http://www.w3.org/2000/svg" xmlns:xlink="http://www.w3.org/1999/xlink" xmlns:a="http://ns.adobe.com/AdobeSVGViewerExtensions/3.0/"
	 x="0px" y="0px" width="35.8px" height="35.8px" viewBox="0 0 35.8 35.8" enable-background="new 0 0 35.8 35.8"
	 xml:space="preserve">
<defs>
</defs>
<path fill="#FFFFFF" stroke="#FFFFFF" stroke-width="2" stroke-miterlimit="10" d="M17.9,34.8c-2.6,0-5-0.6-7.4-1.7
	c-4.1-2-7.1-5.4-8.6-9.7c-1.5-4.3-1.2-8.9,0.8-12.9C5.5,4.7,11.5,1,17.9,1c2.6,0,5,0.6,7.4,1.7c4.1,2,7.1,5.4,8.6,9.7
	c1.5,4.3,1.2,8.9-0.8,12.9C30.3,31.1,24.4,34.8,17.9,34.8z M17.9,1.3C11.6,1.3,5.7,5,3,10.7c-1.9,4-2.2,8.5-0.7,12.7
	s4.5,7.6,8.5,9.5c2.3,1.1,4.7,1.7,7.2,1.7c6.3,0,12.2-3.7,15-9.4c1.9-4,2.2-8.5,0.7-12.7c-1.5-4.2-4.5-7.6-8.5-9.5
	C22.9,1.9,20.4,1.3,17.9,1.3z"/>
<g>
	<path fill="#FFFFFF" stroke="#FFFFFF" stroke-width="2" stroke-miterlimit="10" d="M10.2,17.5h7.4v-7.4h0.7v7.4h7.4v0.7h-7.4v7.4
		h-0.7v-7.4h-7.4V17.5z"/>
</g>
</svg>
