<!-- Generator: Adobe Illustrator 18.0.0, SVG Export Plug-In  -->
<svg version="1.1"
	 xmlns="http://www.w3.org/2000/svg" xmlns:xlink="http://www.w3.org/1999/xlink" xmlns:a="http://ns.adobe.com/AdobeSVGViewerExtensions/3.0/"
	 x="0px" y="0px" width="62.4px" height="77.8px" viewBox="0 0 62.4 77.8" enable-background="new 0 0 62.4 77.8"
	 xml:space="preserve">
<defs>
</defs>
<path fill-rule="evenodd" clip-rule="evenodd" fill="none" stroke="#FFFFFF" stroke-width="0.75" stroke-miterlimit="10" d="
	M6.8,51.3C5.6,42.1,5,37.6,5,37.6c-1.2-1.2-1.9-1.5-2.5-1c-1,0.9-0.6,3.8,0.8,8.1c0.8,2.3,1.6,4.3,2,6.1C5.5,51.8,6.2,51.8,6.8,51.3
	L6.8,51.3z"/>
<path fill-rule="evenodd" clip-rule="evenodd" fill="none" stroke="#FFFFFF" stroke-width="0.75" stroke-miterlimit="10" d="
	M55.3,51.3c1.2-9.2,1.9-13.8,1.9-13.8c1.2-1.2,1.9-1.5,2.5-1c1,0.9,0.6,3.8-0.8,8.1c-0.8,2.3-1.6,4.3-2,6.1
	C56.6,51.8,55.9,51.8,55.3,51.3L55.3,51.3z"/>
<path fill-rule="evenodd" clip-rule="evenodd" fill="none" stroke="#FFFFFF" stroke-width="0.75" stroke-miterlimit="10" d="
	M28,77.4c1,0,2,0,3.1,0v-2.3c-2.8,0-5.7-0.1-5.9-0.2c-4-2.5-12-10.2-13.8-14.3c-3-7.2-4.2-15.1-5.1-23.9c-1.1-3.2-1.6-2.9-1.3,0.8
	c1.4,10.5,2.3,17.6,3,21.7c0.5,2.2,2.1,4.5,4.4,6.9c7.1,6.2,10.6,9.3,10.6,9.3C24.2,76.8,25.5,77.4,28,77.4L28,77.4z"/>
<path fill-rule="evenodd" clip-rule="evenodd" fill="none" stroke="#FFFFFF" stroke-width="0.75" stroke-miterlimit="10" d="
	M34.1,77.4c-1,0-2,0-3.1,0v-2.3c2.8,0,5.7-0.1,5.9-0.2c4-2.5,12-10.2,13.8-14.3c3-7.2,4.2-15.1,5.1-23.9c1.1-3.2,1.6-2.9,1.3,0.8
	c-1.4,10.5-2.3,17.6-3,21.7c-0.5,2.2-2.1,4.5-4.4,6.9c-7.1,6.2-10.6,9.3-10.6,9.3C37.9,76.8,36.6,77.4,34.1,77.4L34.1,77.4z"/>
<path fill-rule="evenodd" clip-rule="evenodd" fill="none" stroke="#FFFFFF" stroke-width="0.5" stroke-miterlimit="10" d="
	M24.7,60.8c0.2,1.3,1.5,2.1,3,2.5c0.9,0.2,2,0.3,3.3,0.4v-2.9c-0.6,0-1.1-0.2-1.5-0.5c-0.5-0.1-1-0.1-1.6,0.1
	C27,60.7,26,60.9,24.7,60.8L24.7,60.8z"/>
<path fill-rule="evenodd" clip-rule="evenodd" fill="none" stroke="#FFFFFF" stroke-width="0.5" stroke-miterlimit="10" d="
	M25.8,60.2c1.5-1.1,2.9-1.7,5.3-1.1v-2.6c-1.4,0-2.4-0.6-3.3-0.5c-1.5,0.4-3.1,1.5-4.6,3c-1.1,1.1-2.8,2-3.9,2
	c-1.2-0.1-1,0.8,0.1,0.9C20.9,62,24.7,61,25.8,60.2L25.8,60.2z"/>
<path fill-rule="evenodd" clip-rule="evenodd" fill="none" stroke="#FFFFFF" stroke-width="0.5" stroke-miterlimit="10" d="
	M31.1,68.3c-0.8-0.1-1.5-0.2-2.3-0.5c-0.4-1.2-0.6-2.4-0.4-3.6c0,0,0.9,0.1,2.7,0.4V68.3L31.1,68.3z"/>
<path fill-rule="evenodd" clip-rule="evenodd" fill="none" stroke="#FFFFFF" stroke-width="0.5" stroke-miterlimit="10" d="
	M37.4,60.8c-0.2,1.3-1.5,2.1-3,2.5c-0.9,0.2-2,0.3-3.3,0.4v-2.9c0.6,0,1.1-0.2,1.5-0.5c0.5-0.1,1-0.1,1.6,0.1
	C35.1,60.7,36.2,60.9,37.4,60.8L37.4,60.8z"/>
<path fill-rule="evenodd" clip-rule="evenodd" fill="none" stroke="#FFFFFF" stroke-width="0.5" stroke-miterlimit="10" d="
	M36.3,60.2c-1.5-1.1-2.9-1.7-5.3-1.1v-2.6c1.4,0,2.4-0.6,3.3-0.5c1.5,0.4,3.1,1.5,4.6,3c1.1,1.1,2.8,2,3.9,2c1.2-0.1,1,0.8-0.1,0.9
	C41.2,62,37.4,61,36.3,60.2L36.3,60.2z"/>
<path fill-rule="evenodd" clip-rule="evenodd" fill="none" stroke="#FFFFFF" stroke-width="0.5" stroke-miterlimit="10" d="
	M31.1,68.3c0.8-0.1,1.5-0.2,2.3-0.5c0.4-1.2,0.6-2.4,0.4-3.6c0,0-0.9,0.1-2.7,0.4V68.3L31.1,68.3z"/>
<path fill-rule="evenodd" clip-rule="evenodd" fill="none" stroke="#FFFFFF" stroke-width="0.5" stroke-miterlimit="10" d="
	M41.9,30.7c-1.2,1-1.6,2.5-1.9,3.9c-0.5,2-2,1.8-2.6,0.8c-0.9-1.7,0.9-4.6,2.7-6.4c4.1-2.9,7.6-3.8,10.3-3.7
	c1.6-0.1,3.8,0.6,2.3,1.3C47.1,28.1,44.8,28.7,41.9,30.7L41.9,30.7z"/>
<path fill-rule="evenodd" clip-rule="evenodd" fill="none" stroke="#FFFFFF" stroke-width="0.5" stroke-miterlimit="10" d="
	M19.1,31.2c1.4,0.5,2.3,1.9,3,3.2c1.1,1.7,2.5,1,2.7-0.1c0.3-1.9-2.2-4.1-4.5-5.2c-4.8-1.5-8.4-1.3-11-0.3c-1.6,0.5-3.5,1.7-1.8,1.9
	C13.3,30.3,15.7,30.1,19.1,31.2L19.1,31.2z"/>
<path fill="none" stroke="#FFFFFF" stroke-width="0.75" stroke-miterlimit="10" d="M8.4,44C-1.5,39.7-8.6,0.4,27.3,0.4
	c9.8,0,13.8,4,13.8,4c7.6-6.1,34.2,8.4,12.4,37.1c0,0,2.2-13.4-6-19.1c-5.8-4-6.7-6.9-6.7-6.9s-3.9,6.1-15.3,8.7
	C14.2,26.8,11.2,33.3,8.4,44z"/>
<path fill-rule="evenodd" clip-rule="evenodd" fill="none" stroke="#FFFFFF" stroke-width="0.75" stroke-miterlimit="10" d="
	M40.6,32c-2,0.9-4.2,1.5-6.5,1.7c0,0-0.1,0-0.1,0c0,0,0,0-0.1,0c-0.5,0-1,0.1-1.6,0.1c-0.2,0-0.3,0-0.5,0l0,0l-3.1-0.2l0,0
	c-1-0.1-2-0.2-3-0.5c-1.8-0.3-3.3-0.7-4.4-1.1c-2.7-1-9.1,0.7-19.3,5.1c3.8,8.6,7.8,13.2,11.9,13.7c4.1-0.4,7.7-1.6,10.7-3.5
	c1.7-2.7,2.6-5.7,2.8-9.1c0.3-1.2,1.4-2.1,2.6-2.5l1.2,0c0.9,0.6,1.4,1.2,2,1.9c0.3,0.3,0.5,0.7,0.6,1.1c0.3,3.3,1.4,6.3,3.2,8.9
	c3.1,1.8,6.7,2.8,10.9,3c4.1-0.7,7.8-5.5,11.3-14.2C49.8,32.8,43.6,31.3,40.6,32z M23.5,46.5c-2.6,1.9-6,2.9-9.3,3.2
	c-3.1-0.3-6.2-4-9.4-11.1c6-2.2,19.4-8.8,20.8,1.1C25.1,42.4,24.7,44.7,23.5,46.5z M47.7,49.6c-3.4-0.1-6.7-1-9.4-2.8
	c-1.3-1.7-1.9-4-2.3-6.6c1-10,14.7-3.9,20.7-2C53.7,45.3,50.8,49.1,47.7,49.6z"/>
<rect x="30.8" y="33.6" fill-rule="evenodd" clip-rule="evenodd" fill="#FFFFFF" width="0.5" height="2.6"/>
<path fill-rule="evenodd" clip-rule="evenodd" fill="#FFFFFF" d="M41.1,7.9c0.1-0.3-0.2-0.3-1-0.2c-7.5,1.9-13.8,4.9-19.1,9
	c6.5-4.1,13-6.8,19.4-8.3C40.9,8.2,41.1,8,41.1,7.9L41.1,7.9z"/>
<rect x="30.9" y="22.4" fill="#FFFFFF" width="0.3" height="54.2"/>
</svg>
