<!-- Generator: Adobe Illustrator 18.0.0, SVG Export Plug-In  -->
<svg version="1.1"
	 xmlns="http://www.w3.org/2000/svg" xmlns:xlink="http://www.w3.org/1999/xlink" xmlns:a="http://ns.adobe.com/AdobeSVGViewerExtensions/3.0/"
	 x="0px" y="0px" width="516.3px" height="517.4px" viewBox="0 0 516.3 517.4" enable-background="new 0 0 516.3 517.4"
	 xml:space="preserve">
<defs>
</defs>
<path fill="#FFFFFF" d="M516.2,207.8c0,26.4,0,52.8,0,79.2c0,21.6-6.7,40.7-21.3,56.7c-30.4,33.3-57.8,69-86.3,103.8
	c-5.7,6.9-8.3,13.9-7.9,22.8c0.5,11.3,0.1,22.7,0.1,34c0,1.8,0,3.5-0.7,5.2c-1,2.7-3.3,4.3-5.6,4.2c-2.5-0.2-4.6-2.2-5.1-5.1
	c-0.7-4.6-0.4-9.2-0.3-13.7c0.3-7.8,0.3-15.5-0.1-23.2c-0.4-6.9-0.3-13.7,2.8-20.1c1.5-3.2,3.4-6.1,5.7-8.8
	c24.7-29.2,48.1-59.5,72.9-88.6c6.3-7.4,12.5-14.8,19.1-21.8c9.6-10.1,13.8-22.2,14.4-35.8c0.9-19.9,0.5-39.8,0.5-59.7
	c0-36.2,0-72.3,0-108.5c0-6.1-1.2-11.8-5.5-16.4c-6.1-6.6-13.6-8.2-21.9-5.4c-8.3,2.8-12.4,9.2-13.2,17.7c-0.4,4.1-0.5,8.1-0.5,12.2
	c0,29.8,0,59.7-0.1,89.5c0,7.3,2,13.6,6.6,19.4c11.2,14.2,10,32-2.6,44.9c-21.9,22.5-44.2,44.7-66.4,66.8
	c-5.1,5.1-10.2,10.1-15.3,15.1c-4,3.9-6.7,4.4-9.5,1.8c-2.6-2.5-2.1-6.3,1.5-9.9c25.9-26,51.9-52,77.9-78.1c1.3-1.3,2.6-2.6,3.8-4
	c8.6-10.1,8.4-23.6-0.5-32.3c-8.8-8.6-23.1-8.8-32.6,0c-7.2,6.7-14,13.8-20.9,20.8c-21.1,21.2-42.1,42.6-63.6,63.3
	c-19.8,19.1-31.5,42.1-34.4,69.5c-0.7,6.6-0.9,13.1-0.9,19.7c0,27.2,0,54.5,0,81.7c0,1.6,0,3.2-0.5,4.7c-0.9,2.7-2.9,4.2-5.5,4.2
	c-2.4,0-4.2-1.5-5-4.1c-0.5-1.8-0.7-3.6-0.7-5.4c0-28.7-0.3-57.5,0.1-86.2c0.5-37.2,13.7-68.9,41.2-94.6
	c24.1-22.6,47-46.3,70.1-69.9c4.4-4.4,8.6-9,13.4-13.1c6.7-5.6,14.3-8.7,23.1-8.8c6.6-0.1,9.6-3.1,9.6-9.8c0.1-15.6,0-31.2,0-46.7
	c0-16.2,0-32.5,0-48.7c0-14,8-25.7,20.5-30.6c19.6-7.6,41.7,6.3,43.2,27.3c0.6,8.6,0.3,17.2,0.3,25.7c0.1,19.7,0,39.5,0,59.2
	C516.3,207.8,516.2,207.8,516.2,207.8z"/>
<path fill="#FFFFFF" d="M216.4,517.4c0.1-2.7-1.2-3.8-2.9-5c-2.7-2-3.3-5.2-3.3-8.3c-0.1-16.2-0.5-32.5,0.1-48.7
	c0.4-12.4,0.6-24.8,0.2-37.2c-0.6-17.3-3.6-34.1-11.2-50c-5.5-11.6-12.4-22.1-21.1-31.5c-8.9-9.6-18.5-18.5-27.9-27.5
	c-6.1-5.9-12.6-11.4-18.3-17.6c-8.4-9.1-17.4-17.4-25.9-26.4c-5.6-5.9-10.9-11.9-17.4-16.8c-7.9-6-16.3-6-25-2.3
	c-3.3,1.4-5.5,4.4-7.6,7.3c-7.3,10.1-3.8,21.8,2.6,28.8c8,8.6,16.7,16.5,24.7,25.2c7.5,8.1,15.3,15.8,23.2,23.5
	c9.7,9.4,19.5,18.6,29,28.2c2.1,2.1,3.9,4.5,5.8,6.9c0.6,0.8,1.1,1.7,1.3,2.7c0.6,2.4-0.1,4.5-2.2,5.9c-2.2,1.6-4.1,1.6-6.4-0.3
	c-2.7-2.1-5.3-4.3-7.7-6.7c-24.8-24.8-49.6-49.6-74.5-74.4c-6.7-6.7-11-14.6-12.5-23.9c-0.8-4.9,0.6-9.7,2.6-14.3
	c2.5-5.8,6-10.9,9.2-16.3c1.5-2.5,2-5.3,2-8.1c0-33.9,0.1-67.8,0-101.7c0-6-1.1-11.8-5.1-16.6c-2.8-3.4-6.4-5.8-10.8-6.2
	c-8.5-0.9-15.8,1.2-20.8,8.9c-1.8,2.7-2.4,5.7-3,8.7c-0.5,2.3-0.6,4.8-0.6,7.2c0,50.7-0.1,101.5,0.1,152.2c0,7.5,0.8,15.1,1.7,22.6
	c1.1,9.4,5.6,17.4,11.4,24.6c6.8,8.4,14.1,16.5,21.1,24.7c11.2,13,22.1,26.2,32.8,39.6c11.8,14.6,23.6,29.1,35.3,43.6
	c3.5,4.3,6.9,8.6,10.3,12.8c1.8,2.2,2.7,4.7,2.7,7.6c0,15.4,0,30.8,0,46.2c0,2.1-0.3,4.2-1.3,6.1c-1.7,3.3-4.9,5-8.5,1.4
	c-2-2-3.1-4.3-3-7.3c0.2-12-0.2-24,0.1-36c0.2-8.1-2.4-14.9-7.7-20.9c-6.4-7.4-12.4-15-18.5-22.6c-8-9.8-16.1-19.7-24.2-29.5
	c-9.1-11-18.2-21.9-27.3-32.8c-7.4-8.8-14.8-17.5-22.2-26.3C5.7,324.3,1.8,310.2,1.5,294.6c-0.2-14.1-0.5-28.1-1-42.2
	c-0.5-13.1-0.6-26.2-0.3-39.2C1,184.5,0.4,155.8,0.6,127c0.1-15.8,8.7-27.7,23.1-32.7c10.4-3.6,20.7-1.7,29.3,5.6
	c8.3,7.1,12.3,16.3,12.3,27.2c0,30.4,0,60.8,0,91.2c0,9.9,2.8,12.3,12.6,12.6c8.2,0.2,15.1,3.7,21,9.6c8.4,8.5,16.6,17.3,25.6,25.3
	c0.3,0.3,0.6,0.6,0.9,0.9c11,10.8,22.3,21.3,32.8,32.5c12.9,13.7,26.3,26.9,38.7,41.1c11.9,13.6,19,29.6,22.4,47.3
	c1.4,7.6,2.2,15.3,2.6,23c1.7,31.3,0.6,62.6,0.9,93.9c0,3.6-0.2,7.3-4.4,9C216.9,514.2,217.7,515.9,216.4,517.4z"/>
<path fill="#FFFFFF" d="M127.1,136c0-19.6,0.1-39.2,0-58.7c0-5,1.9-8.3,6.3-10.7C172.8,45.1,212.2,23.6,251.6,2
	c4.9-2.7,9.3-2.7,14.1,0c23.8,13.1,47.6,26.1,71.5,39.2c14.7,8,29.4,16,44.1,24c1,0.5,1.9,1.1,2.9,1.6c4.3,2,6.1,5.5,6.1,10
	c0,3.1-0.1,6.2-0.1,9.2c0,33.1,0,66.2,0,99.2c0,3.4,0.1,6.8,0.1,10.2c0,4.4-1.7,8-5.2,10.8c-39.6,32.3-79.1,64.6-118.6,97
	c-7.3,5.9-8.3,5.9-15.6,0c-39.3-32.1-78.6-64.2-117.9-96.3c-4.2-3.4-6-7.4-5.9-12.8C127.2,174.8,127.1,155.4,127.1,136z M258.7,13.1
	c-2.5,0-4.7,0.8-6.9,2c-31.8,17.4-63.6,34.7-95.4,52.1c-1.4,0.8-2.8,1.6-3.9,2.7c-2.4,2.5-2.4,6-0.2,8.6c0.9,1.1,2.1,1.9,3.3,2.7
	c31.9,20.3,63.8,40.6,95.8,60.8c6.9,4.4,7.7,4.4,14.5,0c32.1-20.4,64.1-40.8,96.2-61.2c1.1-0.7,2.2-1.5,3.2-2.4
	c2.7-2.7,2.5-6.3-0.4-8.7c-0.9-0.7-1.9-1.4-2.9-1.9c-32.2-17.6-64.3-35.1-96.5-52.7C263.3,13.9,261.1,13.1,258.7,13.1z M253.1,219.9
	C253.1,219.9,253.1,219.9,253.1,219.9c0-17.7-0.1-35.3,0.1-53c0.1-7.1-2.7-11.9-8.6-15.7c-31.6-20-63.1-40.1-94.7-60.2
	c-2.5-1.6-5.1-2.1-7.8-0.6c-2.7,1.4-3.3,3.9-3.3,6.8c0,29.9,0.1,59.8,0,89.7c0,6.9,2.5,12.1,7.9,16.4c8.4,6.6,16.6,13.4,24.8,20.2
	c23.3,19.1,46.5,38.1,69.7,57.2c2.4,2,5.1,3,8.1,1.5c3.1-1.5,3.8-4.3,3.8-7.5C253.1,256.3,253.1,238.1,253.1,219.9z M264.2,219.7
	C264.2,219.7,264.3,219.7,264.2,219.7c0.1,11.8,0.1,23.7,0.1,35.5c0,6.9,0,13.8,0,20.7c0,2.9,1.4,5.1,4.1,6.3
	c2.6,1.1,5.1,0.5,7.2-1.3c1.1-0.9,2.1-1.9,3.2-2.8c30.8-25.2,61.7-50.4,92.5-75.5c4.9-4,7.3-8.8,7.2-15.2c-0.2-20,0.1-40-0.3-59.9
	c-0.2-10.2-0.3-20.3,0.3-30.5c0.2-2.9-0.7-5.3-3.4-6.7c-2.7-1.4-5.3-1-7.8,0.7c-1.6,1.1-3.2,2.2-4.8,3.2
	c-30.1,19.1-60.2,38.2-90.3,57.3c-5.6,3.5-8.2,8.4-8.1,15C264.3,184.3,264.2,202,264.2,219.7z"/>
</svg>
