<!-- Generator: Adobe Illustrator 18.0.0, SVG Export Plug-In  -->
<svg version="1.1"
	 xmlns="http://www.w3.org/2000/svg" xmlns:xlink="http://www.w3.org/1999/xlink" xmlns:a="http://ns.adobe.com/AdobeSVGViewerExtensions/3.0/"
	 x="0px" y="0px" width="215.3px" height="73.2px" viewBox="0 0 215.3 73.2" enable-background="new 0 0 215.3 73.2"
	 xml:space="preserve">
<defs>
</defs>
<path fill="#010202" stroke="#FFFFFF" stroke-width="1.5" stroke-miterlimit="10" d="M107.6,0.8c33,0,66.1,0,99.1,0
	c4.7,0,7.8,3,7.8,7.7c0,18.8,0,37.6,0,56.4c0,4.6-3.1,7.6-7.6,7.6c-66.1,0-132.3,0-198.4,0c-4.6,0-7.7-3-7.7-7.6
	c0-18.8,0-37.6,0-56.4c0-4.6,3.1-7.6,7.7-7.6C41.5,0.7,74.6,0.8,107.6,0.8z"/>
<path fill="#FFFFFF" d="M42.6,36.5c0,6.5,0,12.9,0,19.4c0,2.8-1.7,4.5-4.5,4.5c-5.7,0-11.3,0-17,0c-2.8,0-4.6-1.7-4.6-4.6
	c0-12.8,0-25.7,0-38.5c0-2.9,1.7-4.6,4.5-4.6c5.7,0,11.3,0,17,0c2.9,0,4.5,1.7,4.5,4.6C42.6,23.7,42.6,30.1,42.6,36.5z"/>
<path fill="#FFFFFF" d="M102.1,55.1c0,3,0,5.8,0,8.5c0,0.8-0.1,1.1-1,1.1c-3.1,0-3.1,0-3.1-3c0-7.2,0-14.4-0.1-21.7
	c0-0.7,0.2-1,0.9-1c2.4,0,2.4,0,2.9,2.8c1.1-1.4,2.3-2.5,4-2.9c4-0.9,7.5,0.8,8.9,4.8c1.3,3.6,1.2,7.3-1,10.6
	c-1.8,2.8-5.1,4-8.3,3.1C104.1,57.2,103,56.5,102.1,55.1z"/>
<path fill="#FFFFFF" d="M82.1,55.2c0,3.1,0,5.8,0,8.6c0,0.7-0.1,1-0.9,1c-3.2,0-3.1,0.1-3.2-3.1c0-7.2,0-14.4-0.1-21.7
	c0-0.8,0.2-0.9,0.9-0.9c2.6,0,2.6,0,2.8,2.7c0.1,0,0.2,0,0.3-0.1c1.8-2.5,4.3-3.3,7.2-2.8c3.2,0.6,5,2.7,5.8,5.7
	c0.9,3.5,0.7,6.8-1.4,9.9c-2,2.9-5.8,4-9,2.8C83.6,56.9,82.9,56.2,82.1,55.2z"/>
<path fill="#FFFFFF" d="M75.4,57.2c-1.3,0-2.9,0.4-3.9-0.1c-1.1-0.5-0.9-2.3-1.4-3.5c-0.4-1-0.7-2-1-3.1c-0.1-0.6-0.4-0.8-1-0.7
	c-2.2,0-4.4,0-6.6,0c-0.7,0-0.9,0.2-1.1,0.8c-0.6,2-1.2,3.9-1.7,5.9c-0.2,0.6-0.5,0.9-1.2,0.8c-1-0.1-2.1,0-3.3,0
	c0.8-2.4,1.5-4.8,2.3-7.1c1.8-5.7,3.7-11.5,5.5-17.2c0.2-0.7,0.5-1,1.3-1c1.1,0.1,2.2,0,3.2,0c0.5,0,0.8,0.1,1,0.6
	c2.6,8.1,5.2,16.2,7.8,24.4C75.5,57.1,75.4,57.2,75.4,57.2z"/>
<path fill="#FFFFFF" d="M123.6,52.8c2.2,1.2,4.5,1.7,7,1.4c1.9-0.2,3.3-1.3,3.6-2.7c0.4-1.8-0.3-3.2-1.9-4.3
	c-1.1-0.7-2.5-1.1-3.7-1.7c-2.3-1.1-4.4-2.4-5.2-5c-1.1-3.5,0.9-7,4.7-8.2c2.8-0.9,5.7-0.7,8.5,0.3c0.6,0.2,0.9,0.5,0.6,1.2
	c-0.3,0.7-0.3,1.7-0.8,2.2c-0.3,0.3-1.3-0.4-2-0.5c-1.6-0.4-3.2-0.5-4.7,0c-1.2,0.4-2,1.2-2.3,2.4c-0.3,1.3,0.2,2.4,1.2,3.2
	c0.8,0.7,1.8,1.1,2.7,1.5c1.2,0.5,2.3,1,3.4,1.7c2.8,1.6,4.1,4,3.6,7.2c-0.4,3-2.3,5-5.2,5.8c-3.2,0.9-6.4,0.8-9.5-0.5
	c-0.7-0.3-0.9-0.6-0.6-1.4C123.1,54.4,123.3,53.6,123.6,52.8z"/>
<path fill="#FFFFFF" d="M151.5,48.3c0-6.9,5.6-11.1,12.1-9c3.5,1.1,5.2,3.9,5.6,7.4c0.4,3.5-0.3,6.7-3.1,9c-2.9,2.4-6.3,2.7-9.7,1.2
	c-3.3-1.5-4.7-4.4-4.9-7.9C151.5,48.7,151.5,48.5,151.5,48.3z"/>
<path fill="#FFFFFF" d="M192.6,49.1c-1.6,0-3.3,0.1-4.9,0c-1.1-0.1-1.1,0.5-1,1.3c0.6,2.9,3.1,4.5,6.5,4.2c1.1-0.1,2.3-0.2,3.4-0.6
	c0.5-0.2,0.7-0.1,0.8,0.4c0.5,2.6,1,2.2-1.6,2.8c-3.2,0.7-6.4,0.9-9.4-1c-2-1.3-3.1-3.2-3.5-5.5c-0.5-3.2-0.1-6.2,1.9-8.9
	c2.2-2.8,5.2-3.6,8.6-2.8c2.8,0.6,4.7,3.1,5.3,6.3c0.1,0.9,0.2,1.8,0.2,2.8c0,0.8-0.2,1.1-1.1,1.1C196.1,49.1,194.3,49.1,192.6,49.1
	z"/>
<path fill="#FFFFFF" d="M141.9,47.5c0-1.5,0-3,0-4.4c0-0.8-0.2-0.9-0.9-0.9c-1.7,0-1.7,0-1.8-1.7c-0.1-1,0.2-1.5,1.3-1.3
	c1.1,0.2,1.5-0.2,1.4-1.4c-0.1-1.9,0-1.9,1.9-2.5c2.1-0.6,2.1-0.6,2.1,1.6c0,2.3,0,2.3,2.3,2.3c2.4,0,2.4,0,2.2,2.4
	c0,0.5-0.2,0.6-0.6,0.6c-1,0-2.1,0-3.1,0c-0.5,0-0.7,0-0.7,0.6c0,3,0,5.9,0.1,8.9c0.1,2.2,1.1,3,3.2,2.6c1-0.2,0.9,0.3,0.9,0.9
	c0,2.2,0,2.2-2.1,2.4c-4.1,0.2-5.9-1.4-6.1-5.5C141.8,50.5,141.9,49,141.9,47.5C141.9,47.5,141.9,47.5,141.9,47.5z"/>
<path fill="#FFFFFF" d="M175.3,42.3c1-1.6,2-3,3.9-3.4c0.2-0.1,0.5-0.1,0.7-0.2c1.5-0.2,1.5-0.1,1.5,1.3c0,0.2,0,0.3,0,0.5
	c0,1.9,0,1.9-1.8,2c-1.7,0.1-3.1,1.4-3.5,3.4c-0.2,0.7-0.2,1.5-0.2,2.3c0,2.7,0,5.5,0,8.2c0,0.6-0.1,1-0.8,0.9c-1-0.1-2.4,0.4-3-0.2
	c-0.5-0.5-0.2-1.9-0.2-2.9c0-4.7,0-9.4-0.1-14.1c0-1,0.3-1.1,1.1-1.1c2.5,0,2.5,0,2.5,2.5C175.3,41.8,175.3,42.1,175.3,42.3z"/>
<path fill="#FFFFFF" d="M112.7,18.2c1.3-1.5,2.8-1.8,4.3-1.2c1.6,0.6,2.3,1.9,2.5,3.5c0.2,1.1,0.1,2.2-0.3,3.2
	c-1,2.9-4.7,3.8-6.7,1.2c-0.1,0.8-0.1,1.5-1.1,1.4c-0.6-0.1-0.8-0.2-0.8-0.8c0.1-3.9,0.1-7.9,0.1-11.8c0-0.9,0.2-1,1.1-1.1
	c0.9,0,1,0.3,1,1.1C112.7,15.1,112.7,16.5,112.7,18.2z"/>
<path fill="#FFFFFF" d="M54.4,26.2c1.3-4.1,2.6-8.3,4-12.4c0.3-0.9,1.2-0.4,1.8-0.5c0.5-0.1,0.9-0.1,1.1,0.6c1.3,4.1,2.6,8.2,4,12.3
	c-2.1,0.3-2.1,0.3-2.7-1.6c-0.7-2.1-0.7-2.1-2.9-2.1c-2,0-2.1,0-2.6,1.9c0,0.1,0,0.2,0,0.2C56.5,26.4,56.5,26.4,54.4,26.2z"/>
<path fill="#FEFEFE" d="M181.8,18.2c1.2-1.4,2.6-1.8,4.1-1.2c1.6,0.6,1.9,2,2,3.5c0,1.6,0,3.3,0,4.9c0,0.8-0.3,0.9-0.9,0.8
	c-0.5-0.1-1.3,0.3-1.2-0.8c0.1-1.6,0-3.2,0-4.8c0-1.6-0.6-2.2-1.9-2.2c-1.3,0-2,0.8-2,2.3c0,1.6-0.1,3.1,0,4.7c0,0.9-0.4,0.8-1,0.8
	c-0.6,0-1.2,0.1-1.1-0.9c0.1-4,0.1-7.9,0-11.9c0-1,0.6-0.8,1.1-0.9c0.6,0,1.1-0.1,1,0.8C181.8,15,181.8,16.4,181.8,18.2z"/>
<path fill="#FFFFFF" d="M152.5,21.5c0,3-1.8,5-4.6,4.9c-2.7,0-4.5-2-4.5-4.8c0-2.9,1.9-4.9,4.6-4.9
	C150.7,16.8,152.5,18.6,152.5,21.5z"/>
<path fill="#FEFEFE" d="M82.9,25.1c-1,1.1-1.9,1.4-2.9,1.4c-1.3,0-2.3-0.7-2.7-1.8c-0.4-1.2-0.1-2.5,0.9-3.2c1-0.8,2.2-1,3.3-1.2
	c0.4-0.1,1,0.3,1-0.4c0-0.6-0.2-1.1-0.8-1.4c-0.9-0.4-1.8-0.3-2.7,0c-0.3,0.1-0.8,0.7-1.1-0.2c-0.3-0.8,0.2-1,0.7-1.2
	c1.1-0.4,2.3-0.5,3.4-0.3c1.3,0.2,2.2,1.1,2.4,2.4c0.4,2.2,0,4.4,0.3,6.6c0.1,0.5-0.3,0.5-0.6,0.4C83.5,26.3,82.6,26.6,82.9,25.1z"
	/>
<path fill="#FEFEFE" d="M132.3,22.1c-0.8,0-1.5,0.1-2.3,0c-0.9-0.1-0.9,0.4-0.7,1c0.4,1,1.1,1.6,2.1,1.7c0.8,0.1,1.6,0.1,2.4-0.1
	c0.5-0.1,0.8-0.3,1,0.4c0.1,0.5,0.1,0.9-0.5,1.1c-1.1,0.3-2.3,0.4-3.4,0.2c-2.5-0.5-4-2.7-3.6-5.4c0.4-3,2.2-4.5,4.9-4.2
	c2.1,0.2,3.9,2.7,3.4,4.8c-0.1,0.4-0.3,0.5-0.7,0.5C134,22.1,133.2,22.1,132.3,22.1z"/>
<path fill="#FFFFFF" d="M192.3,22.1c0.2,1.8,1,2.7,2.7,2.7c0.6,0,1.3,0,1.9-0.2c0.6-0.2,0.8-0.1,1,0.5c0.2,0.7-0.1,0.9-0.6,1
	c-1.1,0.3-2.2,0.4-3.3,0.2c-2.7-0.5-4.1-2.8-3.6-5.8c0.4-2.6,2.5-4.1,5.1-3.8c2.1,0.3,3.9,3.2,3.1,5c-0.2,0.5-0.5,0.3-0.8,0.3
	C195.9,22.1,194.1,22.1,192.3,22.1z"/>
<path fill="#FFFFFF" d="M105,25.2c-0.9,0.9-1.8,1.3-2.8,1.3c-1.3,0-2.2-0.6-2.6-1.8c-0.4-1.1-0.2-2.2,0.7-3.1c1-1,2.2-1.1,3.5-1.3
	c0.4-0.1,1,0.2,1-0.4c0-0.6-0.2-1.2-0.9-1.4c-0.9-0.3-1.8-0.2-2.7,0.1c-0.4,0.1-0.7,0.5-1-0.2c-0.2-0.6-0.1-0.9,0.5-1.1
	c1.2-0.5,2.5-0.6,3.8-0.3c1.4,0.3,2.3,1.4,2.3,3c0.1,2,0.1,3.9,0.1,5.9c0,0.3,0,0.5-0.3,0.5c-0.5-0.1-1.1,0.3-1.5-0.3
	C105.1,25.8,105.1,25.6,105,25.2z"/>
<path fill="#FFFFFF" d="M157.2,18.2c0.8-0.8,1.7-1.4,2.8-1.4c1.7,0,3,1,3.3,2.7c0.3,2.1,0.1,4.2,0.1,6.3c0,1-0.8,0.4-1.3,0.5
	c-0.5,0.1-0.8-0.1-0.8-0.7c0-1.6,0-3.2,0-4.8c0-1.5-0.6-2.2-1.7-2.3c-1.2-0.1-2.1,0.6-2.2,2c-0.1,1.6-0.1,3.1-0.1,4.7
	c0,0.7,0,1.1-1,1.1c-1,0-1.1-0.4-1-1.2c0-2.4,0-4.8,0-7.2c0-0.5-0.2-1.1,0.7-1c0.7,0,1.2,0,1.1,0.9C157,17.9,157.1,18,157.2,18.2z"
	/>
<path fill="#FEFEFE" d="M66.4,17c2.1-0.3,2.1-0.3,2.7,1.5c0.6,1.8,1.2,3.6,1.8,5.6c0.6-1.9,1.2-3.6,1.7-5.4c0.6-1.9,0.6-1.9,2.7-1.8
	c-1.1,3-2.3,5.9-3.3,8.8c-0.3,0.7-0.8,0.4-1.2,0.5c-0.5,0-1,0.2-1.2-0.5C68.6,22.9,67.5,20,66.4,17z"/>
<path fill="#FEFDFE" d="M172.4,21.4c0-0.7,0-1.4,0-2c0-0.6,0-1-0.8-0.9c-0.6,0.1-0.6-0.3-0.6-0.8c0-0.4-0.1-0.9,0.5-0.8
	c0.9,0.1,0.9-0.4,0.9-1c0-0.6,1.2-1.4,1.8-1.2c0.4,0.1,0.3,0.6,0.2,0.8c-0.1,1,0.2,1.6,1.3,1.4c0.6-0.1,1,0,1,0.9
	c0,0.8-0.4,0.8-1,0.7c-1.1-0.2-1.5,0.2-1.4,1.3c0.1,1.2,0,2.3,0.1,3.5c0,0.9,0.4,1.6,1.5,1.5c0.6-0.1,0.6,0.2,0.7,0.7
	c0,0.5,0,0.8-0.6,1c-1.8,0.5-3.3-0.4-3.5-2.2C172.4,23.3,172.5,22.4,172.4,21.4C172.5,21.4,172.5,21.4,172.4,21.4z"/>
<path fill="#FDFDFD" d="M122.3,19.5c0-2,0.1-3.9,0-5.9c0-0.9,0.3-1,1-0.9c0.6,0,1.1-0.1,1.1,0.9c-0.1,4-0.1,7.9,0,11.9
	c0,1-0.5,0.9-1.1,0.9c-0.7,0-1.1,0-1.1-0.9C122.4,23.4,122.3,21.4,122.3,19.5z"/>
<path fill="#FDFDFD" d="M94.2,19.4c0-1.9,0.1-3.8,0-5.8c0-0.9,0.3-1,1.1-0.9c0.6,0,1.1-0.1,1.1,0.9c-0.1,4-0.1,7.9,0,11.9
	c0,1-0.5,0.9-1.1,0.9c-0.7,0-1.1,0-1.1-0.9C94.2,23.4,94.2,21.4,94.2,19.4z"/>
<path fill="#FBFBFB" d="M88.4,21.5c0-1.3,0.1-2.6,0-3.9c0-0.8,0.4-0.8,1-0.8c0.5,0,1.2-0.2,1.1,0.7c0,2.6,0,5.3,0,7.9
	c0,1-0.7,0.6-1.2,0.7c-0.5,0.1-1,0.1-0.9-0.7C88.4,24.3,88.4,22.9,88.4,21.5z"/>
<path fill="#FCFCFC" d="M90.6,14.1c0,0.8-0.4,1.3-1.2,1.3c-0.8,0-1.3-0.4-1.3-1.2c0-0.7,0.5-1.2,1.2-1.2
	C90.2,12.9,90.5,13.4,90.6,14.1z"/>
<path fill="#010203" d="M18.6,36.5c0-4.9,0-9.8,0-14.7c0-1,0.2-1.3,1.2-1.3c6.5,0.1,13,0,19.5,0c1,0,1.3,0.2,1.3,1.2
	c0,9.9,0,19.8,0,29.6c0,0.9-0.2,1.2-1.2,1.2c-6.6,0-13.2,0-19.8,0c-0.9,0-1.1-0.3-1.1-1.1C18.7,46.4,18.6,41.4,18.6,36.5z"/>
<path fill="#030304" d="M29.6,58.5c-1.4,0-2.5-1-2.5-2.4c0-1.4,1.1-2.5,2.4-2.5c1.3,0,2.5,1.1,2.6,2.5C32.2,57.4,31,58.5,29.6,58.5z
	"/>
<path fill="#111111" d="M29.5,17.8c-0.6,0-1.2,0-1.8,0c-0.3,0-0.6,0-0.6-0.4c0-0.3,0.2-0.6,0.5-0.6c1.3,0,2.6,0,4,0
	c0.3,0,0.6,0.2,0.6,0.5c0,0.3-0.3,0.5-0.6,0.5C30.9,17.8,30.2,17.8,29.5,17.8z"/>
<path fill="#010203" d="M111.3,48.2c0.1,1.1-0.1,2.2-0.5,3.3c-0.9,2.4-2.9,3.4-5.3,3c-1.9-0.4-3.3-2.3-3.3-4.6c0-1.5-0.2-3,0.2-4.5
	c0.6-1.9,2.1-3.2,3.9-3.4c1.8-0.2,3.5,0.9,4.4,2.7C111.1,45.8,111.3,47,111.3,48.2z"/>
<path fill="#010203" d="M82.1,48c0-0.7-0.1-1.8,0.2-2.8c0.6-1.8,2.1-3.2,4-3.3c1.8-0.1,3.6,0.9,4.3,2.8c0.9,2.4,0.9,4.8-0.1,7.1
	c-1,2.2-2.9,3.1-5.2,2.6c-1.8-0.4-3.2-2.3-3.3-4.4C82.1,49.5,82.1,48.9,82.1,48z"/>
<path fill="#020303" d="M68.2,46.7c-2.3,0-4.4,0-6.7,0c1.1-3.7,2.4-7.3,3.3-11C65.7,39.4,67,43,68.2,46.7z"/>
<path fill="#010203" d="M155.6,48.2c0-1.7,0.3-3.1,1.2-4.5c1.7-2.6,5.3-2.7,7-0.1c1.7,2.5,1.7,6.8-0.1,9.3c-1.8,2.5-5.3,2.4-6.9-0.2
	C155.9,51.3,155.5,49.8,155.6,48.2z"/>
<path fill="#020304" d="M190.8,46.2c-1.2,0-2.3,0-3.5,0c-0.4,0-0.8,0.1-0.7-0.5c0.5-2.5,2.5-4.9,5.5-4.1c1.6,0.4,3,2.6,2.9,4.2
	c-0.1,0.5-0.3,0.4-0.7,0.4C193.2,46.3,192,46.2,190.8,46.2z"/>
<path fill="#020304" d="M112.7,21.6c0-1.8,0.5-2.8,1.6-3.1c1-0.3,1.9,0,2.5,0.9c0.8,1.2,0.8,3.4-0.1,4.6c-0.7,0.9-1.6,1-2.6,0.8
	C113.2,24.5,112.7,23.4,112.7,21.6z"/>
<path fill="#090A0A" d="M61.5,20.9c-1,0-1.7,0-2.5,0c-0.3,0-0.5,0-0.9,0c0.6-1.9,1.1-3.7,1.7-5.7C60.3,17.2,60.9,19,61.5,20.9z"/>
<path fill="#020304" d="M150.3,21.6c0,1.9-1,3.3-2.4,3.3c-1.4,0-2.5-1.4-2.5-3.4c0-2,1-3.3,2.4-3.3
	C149.3,18.2,150.3,19.6,150.3,21.6z"/>
<path fill="#060708" d="M82.6,22.6c0.1,1.3-0.5,2-1.6,2.3c-0.6,0.2-1.2,0-1.6-0.6c-0.4-0.6-0.3-1.2,0-1.8c0.4-0.6,2.2-1.2,2.8-0.9
	C82.9,21.9,82.4,22.4,82.6,22.6z"/>
<path fill="#080909" d="M131.4,20.7c-0.3,0-0.6,0-1,0c-0.4,0-0.9,0.2-1.1-0.2c-0.2-0.5,0.1-0.9,0.4-1.3c0.5-0.8,1.2-1.1,2.2-0.9
	c0.9,0.1,1.3,0.7,1.5,1.5c0.2,0.7,0.1,1.1-0.7,1C132.3,20.6,131.8,20.7,131.4,20.7z"/>
<path fill="#09090A" d="M192.2,20.7c0.4-1.9,1.2-2.6,2.5-2.5c0.6,0.1,1.1,0.3,1.4,0.8c0.3,0.4,0.6,1,0.3,1.4
	c-0.2,0.4-0.8,0.2-1.2,0.2C194.3,20.7,193.3,20.7,192.2,20.7z"/>
<path fill="#070708" d="M105,22.7c0,1.1-0.5,1.9-1.5,2.2c-0.7,0.2-1.3,0.1-1.7-0.5c-0.4-0.7-0.4-1.4,0.2-2c0.7-0.7,1.7-0.9,2.7-0.8
	C105.3,21.7,104.8,22.4,105,22.7z"/>
</svg>
