<!-- Generator: Adobe Illustrator 18.0.0, SVG Export Plug-In  -->
<svg version="1.1"
	 xmlns="http://www.w3.org/2000/svg" xmlns:xlink="http://www.w3.org/1999/xlink" xmlns:a="http://ns.adobe.com/AdobeSVGViewerExtensions/3.0/"
	 x="0px" y="0px" width="277.5px" height="220px" viewBox="0 0 277.5 220" enable-background="new 0 0 277.5 220"
	 xml:space="preserve">
<defs>
</defs>
<path fill="#FFFFFF" d="M244.2,60.8c0-0.3,0.1-0.7,0.2-1c0.1-0.3,0.1-0.6,0.2-0.9l0.1-0.4c0.5-2.9,1-5.7,1.5-8.6
	c0.5-2.9,1-5.8,1.5-8.7c0.4-2.6,0.8-5.2,1.3-7.8c-12-2.7-23-5.2-33.6-7.7c-0.9-0.1-1.8-0.4-2.6-0.6c-1.7-0.4-3.5-0.8-5.2-1.2
	c-3.8-0.9-7.5-1.7-11.3-2.6c-0.1,0-0.1,0-0.2,0l-24.5,18.3c1.5,0.3,2.9,0.7,4.4,1c2,0.5,4,0.9,6,1.4c2.6,0.6,5.2,1.2,7.8,1.8
	l1.3,0.3c8,1.8,16,3.7,24,5.5l6.8,1.6c1.7,0.4,2.3,1.5,2,3.4c-0.7,4.2-1.4,8.4-2.1,12.6c-0.6,3.4-1.2,6.9-1.7,10.3
	c-0.5,3-1,5.9-1.5,8.9c-0.7,4-1.3,7.9-2,11.9c0,0.2-0.1,0.4-0.1,0.6l0,0.2l-0.8,4.6c-0.4,2.3-0.8,4.6-1.2,7l24.5-18.3
	c0-0.1,0.1-0.2,0.1-0.5l0-0.2c0.3-1.5,0.5-2.9,0.7-4.4c0.5-2.8,0.9-5.7,1.5-8.6c0.7-4.4,1.5-8.9,2.2-13.4L244.2,60.8z M240,78.7
	c-0.6,3-1,6-1.5,8.6c-0.2,1.2-0.4,2.4-0.6,3.7l-0.1,0.8L216.1,108l1.5-9.2c0-0.2,0.1-0.4,0.1-0.6c0.7-4,1.4-7.9,2-11.9l0.1-0.5
	c0.5-2.8,0.9-5.6,1.4-8.4c0.6-3.4,1.2-6.9,1.7-10.3c0.7-4.2,1.4-8.4,2.1-12.6c0.4-2.5-0.6-4.1-2.8-4.6l-6.8-1.5
	c-8.1-1.8-16.1-3.7-24.1-5.5l-1.4-0.3c-2.6-0.6-5.1-1.2-7.6-1.7c-1.7-0.4-3.3-0.8-5-1.1l-3.1-0.7l21.7-16.2l0.7,0.2
	c3.4,0.8,6.8,1.6,10.2,2.3c1.8,0.4,3.5,0.8,5.2,1.2c0.7,0.2,1.6,0.4,2.6,0.6l0.1,0c9.9,2.3,20.2,4.6,31.4,7.2l1.2,0.3l-0.2,1.3
	c-0.3,1.8-0.6,3.7-0.9,5.4c-0.5,2.9-1,5.8-1.5,8.7l0,0.2c-0.5,2.8-0.9,5.6-1.4,8.3l-0.1,0.5c0,0.2-0.1,0.4-0.1,0.6
	c-0.1,0.5-0.2,0.9-0.2,1.2l0,0.1l-0.8,4.8C241.4,70,240.7,74.4,240,78.7z"/>
<path fill="#FFFFFF" d="M263.4,8.8c-0.4-0.1-0.8-0.2-1.2-0.3c-5.9-1.4-11.8-2.7-17.6-4c-5.7-1.3-11.3-2.6-17-3.9
	c-0.3-0.1-0.6-0.2-0.9-0.2c-0.7-0.2-1.3-0.4-2-0.4l-24.5,18.3l8.3,1.9c7.8,1.8,15.7,3.6,23.5,5.4c0.9,0.2,1.7,0.4,2.5,0.6
	c2.9,0.7,5.9,1.4,8.9,2c2.6,0.6,5.1,1.2,7.7,1.7c1.8,0.4,1.8,1.9,1.7,2.8c-0.3,2-0.7,3.9-1,5.9c-0.4,2.3-0.8,4.6-1.2,7
	c-1,6.2-2.1,12.4-3.1,18.6c0,0.3-0.1,0.7-0.2,1c-0.6,3.5-1.2,7.2-1.8,10.7c-0.4,2.3-0.8,4.7-1.2,7l-0.7,3.9
	c-0.1,0.9-0.3,1.7-0.4,2.6L267.5,71c0-0.1,0.1-0.2,0.1-0.4c0.2-1.2,0.4-2.4,0.6-3.5c0.2-1.3,0.5-2.7,0.7-4c0.4-2.4,0.8-4.8,1.2-7.2
	c0.6-3.6,1.2-7.4,1.9-11.1l0.1-0.6c1-5.8,1.9-11.8,3-17.7c0-0.2,0.1-0.4,0.1-0.6l0-0.3c0.3-1.8,0.6-3.6,0.9-5.4
	c0.5-2.8,0.9-5.6,1.4-8.4c-4.1-0.9-8.2-1.9-12.3-2.8C264.6,9.1,264,8.9,263.4,8.8z M276.1,13.1l-0.2,1.3c-0.3,2-0.7,4-1,6l-0.1,0.8
	c-0.3,1.5-0.5,3-0.8,4.6l0,0.2c0,0.2-0.1,0.4-0.1,0.6c-1,5.9-2,12-2.9,17.4l-0.1,0.8c-0.7,3.8-1.3,7.5-1.9,11.1
	c-0.4,2.4-0.8,4.8-1.2,7.2c-0.2,1.3-0.4,2.6-0.7,3.9c-0.1,0.8-0.3,1.6-0.4,2.5l-0.1,0.8l-21.7,16.2l0.6-3.7c0.4-2.2,0.7-4.4,1.1-6.6
	l0.1-0.4c0.5-3.3,1.2-7.1,1.8-10.7c0.1-0.4,0.1-0.8,0.2-1.1l0-0.1c1-6.2,2.1-12.4,3.1-18.5c0.4-2.4,0.8-4.7,1.2-7l0.1-0.3
	c0.3-1.9,0.6-3.7,0.9-5.6c0.4-2.1-0.5-3.6-2.4-4c-2.6-0.6-5.1-1.2-7.7-1.7c-3-0.7-5.9-1.3-8.9-2c-0.7-0.2-1.5-0.4-2.5-0.6
	c-7.8-1.8-15.6-3.6-23.4-5.4l-6-1.4l21.8-16.2l1.3,0.3c0.3,0.1,0.6,0.2,1,0.2c5.4,1.2,10.7,2.5,16.1,3.7l0.9,0.2
	c5.9,1.3,11.8,2.7,17.7,4c0.4,0.1,0.8,0.2,1.2,0.3l0.2,0c0.5,0.1,1.1,0.2,1.7,0.4c3.4,0.8,6.8,1.6,10.2,2.3L276.1,13.1z"/>
<circle fill="none" stroke="#FFFFFF" stroke-miterlimit="10" cx="56.9" cy="95.2" r="56.4"/>
<path fill="none" stroke="#FFFFFF" stroke-miterlimit="10" d="M87.7,173.5l10.9,37.8c1,3.4-1,7-4.4,7.9h0c-3.4,1-7-1-7.9-4.4
	l-10.9-37.8c-1-3.4,1-7,4.4-7.9h0C83.2,168.2,86.8,170.1,87.7,173.5z"/>
<rect x="56.6" y="161.3" transform="matrix(-0.297 -0.9549 0.9549 -0.297 -54.8411 285.8503)" fill="none" stroke="#FFFFFF" stroke-miterlimit="10" width="42.4" height="3.6"/>
</svg>
