<!-- Generator: Adobe Illustrator 18.0.0, SVG Export Plug-In  -->
<svg version="1.1"
	 xmlns="http://www.w3.org/2000/svg" xmlns:xlink="http://www.w3.org/1999/xlink" xmlns:a="http://ns.adobe.com/AdobeSVGViewerExtensions/3.0/"
	 x="0px" y="0px" width="74.1px" height="92.2px" viewBox="0 0 74.1 92.2" enable-background="new 0 0 74.1 92.2"
	 xml:space="preserve">
<defs>
</defs>
<path fill="#FFFFFF" d="M61.5,42.9c-0.1,0-0.3,0-0.4,0c-1.6,11.9-2.9,21.9-4.1,30c-0.6,3-2.3,5.6-5.3,7.9l-10.4,9.5
	c-0.9,0.9-2.2,1.2-5,1.2c-0.6,0-1.3,0-2.1,0c-4.3,0.1-5.9-0.1-7.1-1.2l-10.5-9.5c-3-2.2-4.8-4.8-5.3-7.8c-0.8-5.9-1.8-12.7-2.8-20.7
	c-0.2,0.1-0.5,0.2-0.7,0.3c1.1,8,2,14.8,2.8,20.6c0.6,3.2,2.5,6,5.6,8.3l10.4,9.5c1.1,1.1,2.5,1.4,5.5,1.4c0.6,0,1.3,0,2.1,0
	c0.8,0,1.5,0,2.1,0c3,0,4.4-0.4,5.5-1.4l10.4-9.5c3.1-2.3,5-5.1,5.6-8.3c1.1-8,2.5-18.1,4.1-30C61.7,43,61.5,43,61.5,42.9z"/>
<path fill-rule="evenodd" clip-rule="evenodd" fill="none" stroke="#FFFFFF" stroke-width="0.75" stroke-miterlimit="10" d="
	M58.4,65.7c1.2-9.2,1.9-13.8,1.9-13.8c1.2-1.2,1.9-1.5,2.5-1c1,0.9,0.6,3.8-0.8,8.1c-0.8,2.3-1.6,4.3-2,6.1
	C59.6,66.2,59,66.2,58.4,65.7L58.4,65.7z"/>
<path fill-rule="evenodd" clip-rule="evenodd" fill="none" stroke="#FFFFFF" stroke-width="0.75" stroke-miterlimit="10" d="
	M50.1,2.9C39.9-3.7,6.8,2.6,13.7,22.2c2.9,13.1,12.6,20.8,28.9,23c-3.1-1.5-5.3-3.7-6.4-6.6c5.7,4.7,13,6.7,22,6.1
	c-3.2-0.8-5.1-1.8-5.8-2.9c10,3.8,16.6,1,19.9-8.5c-2,1.4-3.7,2-5.3,1.8c3-1.1,5.1-3.3,6.2-6.7c-1.5,1-3.1,1.1-4.6,0.4
	c2.4-1.1,4.1-2.4,4.9-3.8c-1.7-1-3.2-2.8-4.5-5.3c-3.8-6.3-8.2-10.6-13.2-13.1C53.8,5.4,51.4,4.3,50.1,2.9L50.1,2.9z"/>
<path fill-rule="evenodd" clip-rule="evenodd" fill="none" stroke="#FFFFFF" stroke-width="0.75" stroke-miterlimit="10" d="
	M27.2,21.5c17.1,9.6,30.4,12.1,40.1,7.7C60.6,31.3,47.2,28.8,27.2,21.5L27.2,21.5z"/>
<path fill-rule="evenodd" clip-rule="evenodd" fill="none" stroke="#FFFFFF" stroke-width="0.75" stroke-miterlimit="10" d="
	M60.2,36.3c-17.5,0.6-31.6-5.7-42.2-18.2C26.7,32.8,40.8,38.9,60.2,36.3L60.2,36.3z"/>
<path fill-rule="evenodd" clip-rule="evenodd" fill="none" stroke="#FFFFFF" stroke-width="0.75" stroke-miterlimit="10" d="
	M54.4,27.1c8.6,3,14.3,2.2,17.2-2.4C68.9,27.1,63.2,27.9,54.4,27.1L54.4,27.1z"/>
<path fill-rule="evenodd" clip-rule="evenodd" fill="none" stroke="#FFFFFF" stroke-width="0.75" stroke-miterlimit="10" d="
	M32.6,73.8c-0.8-0.3-1.4-0.2-2,0.4c-1.8,1.3-3.3,1.9-4.5,2c-0.7,0.1-0.8,0.2-0.1,0.5c2.1,0.2,3.8,0.1,5.1-0.3
	c0.6-0.2,1.2-0.2,1.6-0.1c0.4,0.3,0.9,0.5,1.5,0.5V74C33.7,74,33.2,73.9,32.6,73.8L32.6,73.8z"/>
<path fill-rule="evenodd" clip-rule="evenodd" fill="none" stroke="#FFFFFF" stroke-width="0.75" stroke-miterlimit="10" d="
	M27.8,77.4c0.2,1.3,1.5,2.1,3,2.5c0.9,0.2,2,0.3,3.3,0.4v-2.9c-0.6,0-1.1-0.2-1.5-0.5c-0.5-0.1-1-0.1-1.6,0.1
	C30.1,77.3,29,77.4,27.8,77.4L27.8,77.4z"/>
<path fill-rule="evenodd" clip-rule="evenodd" fill="none" stroke="#FFFFFF" stroke-width="0.75" stroke-miterlimit="10" d="
	M35.7,73.8c0.8-0.3,1.4-0.2,2,0.4c1.8,1.3,3.3,1.9,4.5,2c0.7,0.1,0.8,0.2,0.1,0.5c-2.1,0.2-3.8,0.1-5.1-0.3
	c-0.6-0.2-1.2-0.2-1.6-0.1c-0.4,0.3-0.9,0.5-1.5,0.5V74C34.6,74,35.1,73.9,35.7,73.8L35.7,73.8z"/>
<path fill-rule="evenodd" clip-rule="evenodd" fill="none" stroke="#FFFFFF" stroke-width="0.75" stroke-miterlimit="10" d="
	M40.5,77.4c-0.2,1.3-1.5,2.1-3,2.5c-0.9,0.2-2,0.3-3.3,0.4v-2.9c0.6,0,1.1-0.2,1.5-0.5c0.5-0.1,1-0.1,1.6,0.1
	C38.2,77.3,39.2,77.4,40.5,77.4L40.5,77.4z"/>
<path fill-rule="evenodd" clip-rule="evenodd" fill="none" stroke="#FFFFFF" stroke-width="0.75" stroke-miterlimit="10" d="
	M16.4,17.5c1.4,4.3,2.3,8.3,2.6,12c0.7,4.8-1.5,9.3-6.6,13.4c-0.3,2.2-1,4.6-2,7.3c-0.6,1.3-0.9,2.8-0.9,4.7C9,54.7,8.5,53.7,8,52
	c-0.5-0.6-1.1-1-1.6-1.2c-1.4,0-1.8,1.4-1.2,4.2c-7.4-17-6.3-30.4,3.3-40.1C11.2,11.3,13.8,12.2,16.4,17.5L16.4,17.5z"/>
<path fill-rule="evenodd" clip-rule="evenodd" fill="none" stroke="#FFFFFF" stroke-width="0.75" stroke-miterlimit="10" d="
	M16,25.6C21.7,36,28.3,41.2,36,41.2C27.8,38.9,21.2,33.7,16,25.6L16,25.6z"/>
<path fill-rule="evenodd" clip-rule="evenodd" fill="none" stroke="#FFFFFF" stroke-width="0.75" stroke-miterlimit="10" d="
	M9.9,65.7C8.6,56.6,8,52,8,52c-1.2-1.2-1.9-1.5-2.5-1c-1,0.9-0.6,3.8,0.8,8.1c0.8,2.3,1.6,4.3,2,6.1C8.6,66.2,9.3,66.2,9.9,65.7
	L9.9,65.7z"/>
<path fill-rule="evenodd" clip-rule="evenodd" fill="none" stroke="#FFFFFF" stroke-width="0.75" stroke-miterlimit="10" d="
	M27.2,21.5c2.4,1.3,4.7,2.5,6.9,3.6v-1.2C31.9,23.2,29.6,22.3,27.2,21.5L27.2,21.5z"/>
<path fill-rule="evenodd" clip-rule="evenodd" fill="none" stroke="#FFFFFF" stroke-width="0.75" stroke-miterlimit="10" d="
	M34.1,30.9c-6-3-11.4-7.3-16.1-12.9c4.1,7,9.5,12.1,16.1,15.2V30.9L34.1,30.9z"/>
<path fill-rule="evenodd" clip-rule="evenodd" fill="none" stroke="#FFFFFF" stroke-width="0.75" stroke-miterlimit="10" d="
	M16,25.6c5.2,9.5,11.2,14.7,18.1,15.5v-0.5C26.8,38.1,20.8,33.1,16,25.6L16,25.6z"/>
<rect x="33.9" y="43.6" fill="#FFFFFF" width="0.5" height="48.6"/>
<path fill-rule="evenodd" clip-rule="evenodd" fill="none" stroke="#FFFFFF" stroke-width="0.5" stroke-miterlimit="10" d="
	M52.8,44.7c1.4-0.7,2.1-2.1,2.7-3.4c0.9-1.8,2.4-1.3,2.7-0.2c0.5,1.9-1.8,4.3-4,5.6c-4.6,2-8.2,2.1-10.9,1.4c-1.6-0.3-3.6-1.4-2-1.8
	C47.1,46.2,49.5,46.1,52.8,44.7L52.8,44.7z"/>
<path fill-rule="evenodd" clip-rule="evenodd" fill="none" stroke="#FFFFFF" stroke-width="0.5" stroke-miterlimit="10" d="M23.8,44
	c1.5-0.2,2.9,0.6,4.1,1.4c1.8,1,2.7-0.3,2.4-1.3c-0.6-1.8-3.9-2.6-6.5-2.5c-5,1-8,2.9-9.8,4.9c-1.2,1.1-2.2,3.1-0.7,2.6
	C18.3,46,20.3,44.7,23.8,44L23.8,44z"/>
</svg>
