<!-- Generator: Adobe Illustrator 18.0.0, SVG Export Plug-In  -->
<svg version="1.1"
	 xmlns="http://www.w3.org/2000/svg" xmlns:xlink="http://www.w3.org/1999/xlink" xmlns:a="http://ns.adobe.com/AdobeSVGViewerExtensions/3.0/"
	 x="0px" y="0px" width="287.9px" height="149.3px" viewBox="0 0 287.9 149.3" enable-background="new 0 0 287.9 149.3"
	 xml:space="preserve">
<defs>
</defs>
<path fill="#FFFFFF" d="M143.9,0c-41.2,0-74.6,33.5-74.6,74.6c0,41.2,33.5,74.6,74.6,74.6c41.2,0,74.6-33.5,74.6-74.6
	C218.6,33.5,185.1,0,143.9,0z M143.9,145.1c-38.9,0-70.5-31.6-70.5-70.5c0-38.9,31.6-70.5,70.5-70.5c38.9,0,70.5,31.6,70.5,70.5
	C214.4,113.5,182.8,145.1,143.9,145.1z"/>
<path fill="#FFFFFF" d="M64.6,60.4c0.3-1.4,0.5-2.8,0.9-4.2c-28.3,2.6-47.9,6.3-58.1,10.9C0,70.5,0,73.1,0,74.6
	c0,2.5,0,9.9,43.3,15.9c6.7,0.9,14.2,1.8,22.1,2.5c-0.3-1.4-0.6-2.8-0.9-4.3C34.4,86,12.7,81.6,6.3,77.1l-3.7-2.6l3.8-2.4
	C9.1,70.4,21.4,64.5,64.6,60.4z"/>
<path fill="#FFFFFF" d="M81.4,90.2c0.4,1.4,0.8,2.8,1.2,4.2c19.2,1.3,39.8,1.9,61.3,1.9c21.5,0,42.1-0.6,61.3-1.9
	c0.5-1.4,0.9-2.8,1.2-4.2c-19.4,1.3-40.5,2-62.5,2C121.8,92.2,100.8,91.5,81.4,90.2z"/>
<path fill="#FFFFFF" d="M287.9,74.6c0-1.6,0-4.2-7.3-7.5c-10.2-4.7-29.8-8.4-58.1-10.9c0.3,1.4,0.6,2.8,0.9,4.2
	c43.2,4.1,55.4,10,58.2,11.7l3.8,2.4l-3.7,2.6c-6.4,4.5-28.1,8.8-58.3,11.7c-0.3,1.4-0.6,2.8-0.9,4.3c7.9-0.7,15.4-1.6,22.1-2.5
	C287.9,84.6,287.9,77.1,287.9,74.6z"/>
</svg>
