<!-- Generator: Adobe Illustrator 18.0.0, SVG Export Plug-In  -->
<svg version="1.1"
	 xmlns="http://www.w3.org/2000/svg" xmlns:xlink="http://www.w3.org/1999/xlink" xmlns:a="http://ns.adobe.com/AdobeSVGViewerExtensions/3.0/"
	 x="0px" y="0px" width="92.3px" height="31.7px" viewBox="0 0 92.3 31.7" enable-background="new 0 0 92.3 31.7"
	 xml:space="preserve">
<defs>
</defs>
<path fill="#FFFFFF" d="M92.3,14.5H89C88.2,6.4,80.4,0,70.8,0c-8,0-14.8,4.4-17.3,10.6c-1.7-1.9-4.4-3-7.4-3c-3,0-5.6,1.2-7.4,3
	C36.3,4.4,29.5,0,21.5,0C11.9,0,4.1,6.4,3.3,14.5H0v2.8h3.3c0.8,8.1,8.7,14.5,18.2,14.5c10.1,0,18.3-7.1,18.3-15.9l0,0
	c0-3,2.8-5.5,6.4-5.5c3.5,0,6.4,2.5,6.4,5.5h0c0,8.8,8.2,15.9,18.3,15.9c9.6,0,17.4-6.4,18.2-14.5h3.3V14.5z M21.5,29
	c-8.3,0-15.1-5.9-15.1-13.1c0-7.2,6.8-13.1,15.1-13.1c8.3,0,15.1,5.9,15.1,13.1C36.6,23.1,29.8,28.9,21.5,29z M70.8,29
	c-8.3,0-15.1-5.9-15.1-13.1c0-7.2,6.8-13.1,15.1-13.1c8.3,0,15.1,5.9,15.1,13.1C85.9,23.1,79.2,29,70.8,29z"/>
</svg>
