<!-- Generator: Adobe Illustrator 18.0.0, SVG Export Plug-In  -->
<svg version="1.1"
	 xmlns="http://www.w3.org/2000/svg" xmlns:xlink="http://www.w3.org/1999/xlink" xmlns:a="http://ns.adobe.com/AdobeSVGViewerExtensions/3.0/"
	 x="0px" y="0px" width="329.4px" height="299.3px" viewBox="0 0 329.4 299.3" enable-background="new 0 0 329.4 299.3"
	 xml:space="preserve">
<defs>
</defs>
<g>
	<circle fill="none" stroke="#FFFFFF" stroke-miterlimit="10" cx="197.3" cy="132" r="125.3"/>
	<circle fill="none" stroke="#FFFFFF" stroke-miterlimit="10" cx="197.3" cy="132" r="131.5"/>
	<path fill="none" stroke="#FFFFFF" stroke-miterlimit="10" d="M66.5,255.8l-49.3,40.8c-4.1,3.4-10.3,2.8-13.8-1.3l-0.6-0.8
		c-3.4-4.1-2.8-10.3,1.3-13.8L53.4,240c4.1-3.4,10.3-2.8,13.8,1.3l0.6,0.8C71.2,246.2,70.6,252.4,66.5,255.8z"/>
	
		<rect x="41.1" y="232" transform="matrix(0.7569 -0.6535 0.6535 0.7569 -135.2575 106.1433)" fill="none" stroke="#FFFFFF" stroke-miterlimit="10" width="67.9" height="5.8"/>
	<g>
		<path fill="#FFFFFF" d="M272.7,66.7c-6.8-1.6-13.8-3.3-22.3-5.3c-1.1-0.3-2.2-0.5-3.2-0.8c-0.7-0.2-1.5-0.3-2.2-0.5
			c-10.3-2.5-20.8-5-31-7.4l-0.9-0.2c-10.9-2.6-20.7-4.9-30.7-7.3c-0.5-0.1-1-0.3-1.6-0.4l-0.1,0c-1.2-0.3-2.4-0.7-3.7-0.8l-0.3,0
			L134,75.5l0,0l-45.9,33.7l-0.2,0.2l0,0l0,0c0.1,0,0.2,0,0.3,0.1c0.2,0,14.6,3.5,21.3,5.1l0.1,0c3.2,0.7,6.4,1.5,9.4,2.2
			c1.3,0.4,43.7,10.4,65.3,15.5c-0.9,4.8-1.8,9.5-2.5,14.1c-1,5.3-1.9,10.6-2.8,15.7l-0.1,0.5c-0.9,4.9-1.7,10-2.7,15l-0.1,0.7
			c-0.1,0.5-0.2,1-0.3,1.5c-0.2,0.7-0.2,1.3-0.3,1.9l-1.4,8.2c-1.4,7.9-2.9,16.1-4.2,24.2c-1,5.2-1.9,10.5-2.8,15.6l0,0.1
			c-0.2,1.3-0.5,2.7-0.7,4.1c0,0-0.5,3-0.8,4.4l-0.1,0.6c0,0-0.2,1.1-0.3,1.3l0.8-0.6l0.2-0.1l0,0l41.9-30.7l0,0l46.3-34l0,0
			l0.1-0.2c0.1-0.2,0.1-0.5,0.2-0.7c0.3-1.9,0.7-3.8,1.1-6l0.1-0.4c0.4-2.2,0.9-4.7,1.3-7.2c0.8-4.4,1.6-8.7,2.3-13l0.1-0.6
			c1.1-6.3,2.3-12.9,3.5-19.4l0.2-1.1c1.8-10.4,3.7-21.2,5.7-31.9c0.1-0.3,0.1-0.7,0.2-1l0.1-0.6c0.6-3.3,1.1-6.5,1.7-9.7
			c0.8-4.6,1.7-9.9,2.7-15.1l0.1-0.7L272.7,66.7z M269.7,82.5c-0.6,3.2-1.1,6.4-1.7,9.7l-0.1,0.5c-0.1,0.3-0.1,0.7-0.2,1
			c-2,10.7-3.9,21.5-5.7,31.9l-0.2,1.1c-1.2,6.5-2.4,13-3.5,19.4l-0.1,0.7c-0.7,4.2-1.5,8.6-2.3,12.9c-0.4,2.3-0.8,4.7-1.2,7
			l-0.1,0.7c-0.4,2-0.7,4-1.1,6c0,0.2-0.1,0.4-0.1,0.6l-42.9,31.5c0,0,0,0,0,0l-44.3,32.5l0.1-0.3c0.5-2.6,0.9-5,1.4-8l0-0.1
			c0.9-5,1.8-10.3,2.8-15.4c1.4-8.2,2.9-16.7,4.2-24.2l1.5-8.2c0.1-0.6,0.1-1.1,0.3-1.8c0.1-0.4,0.2-0.9,0.3-1.4l0.1-0.8
			c0.9-5.1,1.9-10.4,2.7-15.1l0.1-0.4c0.8-4.8,1.8-10.3,2.8-15.7c0.7-4.6,1.6-9.4,2.5-14.2l0.1-0.7l-0.7-0.2
			c-21.3-5-64-15.1-65.4-15.5c-2.8-0.7-5.7-1.4-8.7-2l-0.8-0.2c-4.1-1-8.3-1.9-12.5-2.9c0,0-4.9-1.2-7.3-1.8l43.4-31.9c0,0,0,0,0,0
			L177,45c1.2,0.1,2.3,0.4,3.5,0.7l0-0.1v0l0,0.1c0.5,0.2,1.1,0.3,1.7,0.4c9.9,2.4,19.7,4.7,30.7,7.3l1,0.2
			c10.1,2.4,20.6,4.9,30.9,7.3c0.7,0.2,1.4,0.3,2.2,0.5l0.1,0c1,0.2,2.1,0.4,3.1,0.7c8.3,2,15.5,3.7,22.2,5.3
			C271.5,72.4,270.6,77.2,269.7,82.5z"/>
		<path fill="#FFFFFF" d="M190.6,70.2L170,85.5c-2.4,1.8-5.9,1.3-7.7-1.1l-10-13.3c-1.8-2.4-1.3-5.9,1.1-7.7L174,48
			c2.4-1.8,5.9-1.3,7.7,1.1l10,13.3C193.5,64.9,193,68.4,190.6,70.2z M154.1,64.2c-2,1.5-2.4,4.3-0.9,6.3l10,13.3
			c1.5,2,4.3,2.4,6.3,0.9L190,69.4c2-1.5,2.4-4.3,0.9-6.3l-10-13.3c-1.5-2-4.3-2.4-6.3-0.9L154.1,64.2z"/>
		<path fill="#FFFFFF" d="M245.4,109.7l-46,34.3c-2.6-0.4-5.1-0.7-7.7-1.1l-2.1-2.8l0.5-3.6c0,0,0,0,0,0l3-2.3l2.4,3.2
			c1.8,2.4,5.3,2.9,7.7,1.1l25.7-19.2c-0.1,0-0.1-0.1-0.2-0.1c-0.2-0.2-0.4-0.4-0.7-0.5l-25.5,19c-2,1.5-4.8,1.1-6.3-0.9l-13.3-17.8
			c-1.5-2-1.1-4.8,0.9-6.3l24.3-18.1c-0.2-0.3-0.3-0.6-0.4-0.9l-24.4,18.2c-2.4,1.8-2.9,5.3-1.1,7.7l10.4,13.9l-2.9,2.1
			c-0.2,0-0.5,0.1-0.5,0.4l-0.6,4.2c0,0,0,0,0,0c0,0.1,0,0.1,0,0.2c0,0.1,0,0.1,0.1,0.1c0,0,0,0,0,0l2.4,3.2c0,0,0.1,0.1,0.1,0.1
			c0,0,0,0,0,0c0.1,0,0.1,0.1,0.2,0.1c2.6,0.4,5.2,0.8,7.7,1.1c0.2,0.1,0.4,0.2,0.6,0l46.2-34.5C246.6,110.1,246,109.3,245.4,109.7z
			"/>
		<path fill="#FFFFFF" d="M245.2,107.1L218.6,127c-2.4,1.8-5.9,1.3-7.7-1.1L197.6,108c-1.8-2.4-1.3-5.9,1.1-7.7l26.6-19.9
			c2.4-1.8,5.9-1.3,7.7,1.1l13.3,17.8C248.2,101.8,247.7,105.3,245.2,107.1z M199.3,101.1c-2,1.5-2.4,4.3-0.9,6.3l13.3,17.8
			c1.5,2,4.3,2.4,6.3,0.9l26.6-19.9c2-1.5,2.4-4.3,0.9-6.3l-13.3-17.8c-1.5-2-4.3-2.4-6.3-0.9L199.3,101.1z"/>
		<path fill="#FFFFFF" d="M162.2,72.9l-1.3,0.9c-0.7,0.5-1.6,0.4-2.1-0.3l-2.6-3.5c-0.5-0.7-0.4-1.6,0.3-2.1l1.3-0.9
			c0.7-0.5,1.6-0.4,2.1,0.3l2.6,3.5C163,71.4,162.9,72.4,162.2,72.9z M157.1,68.7c-0.2,0.2-0.3,0.5-0.1,0.7l2.6,3.5
			c0.2,0.2,0.5,0.3,0.7,0.1l1.3-0.9c0.2-0.2,0.3-0.5,0.1-0.7l-2.6-3.5c-0.2-0.2-0.5-0.3-0.7-0.1L157.1,68.7z"/>
		<path fill="#FFFFFF" d="M201.5,87.3l-4.7,3.5c-0.7,0.5-1.6,0.4-2.1-0.3l-7.2-9.6c-0.5-0.7-0.4-1.6,0.3-2.1l4.7-3.5
			c0.7-0.5,1.6-0.4,2.1,0.3l7.2,9.6C202.3,85.8,202.1,86.8,201.5,87.3z M188.4,79.5c-0.2,0.2-0.3,0.5-0.1,0.7l7.2,9.6
			c0.2,0.2,0.5,0.3,0.7,0.1l4.7-3.5c0.2-0.2,0.3-0.5,0.1-0.7l-7.2-9.6c-0.2-0.2-0.5-0.3-0.7-0.1L188.4,79.5z"/>
		<path fill="#FFFFFF" d="M177.9,90.3l-4.7,3.5c-0.7,0.5-1.6,0.4-2.1-0.3l-1.6-2.2c-0.5-0.7-0.4-1.6,0.3-2.1l4.7-3.5
			c0.7-0.5,1.6-0.4,2.1,0.3l1.6,2.2C178.7,88.9,178.5,89.8,177.9,90.3z M170.4,90c-0.2,0.2-0.3,0.5-0.1,0.7l1.6,2.2
			c0.2,0.2,0.5,0.3,0.7,0.1l4.7-3.5c0.2-0.2,0.3-0.5,0.1-0.7l-1.6-2.2c-0.2-0.2-0.5-0.3-0.7-0.1L170.4,90z"/>
		<path fill="#FFFFFF" d="M174.1,108.2l-4.7,3.5c-0.7,0.5-1.6,0.4-2.1-0.3l-1.6-2.2c-0.5-0.7-0.4-1.6,0.3-2.1l4.7-3.5
			c0.7-0.5,1.6-0.4,2.1,0.3l1.6,2.2C174.9,106.7,174.7,107.7,174.1,108.2z M166.6,107.9c-0.2,0.2-0.3,0.5-0.1,0.7l1.6,2.2
			c0.2,0.2,0.5,0.3,0.7,0.1l4.7-3.5c0.2-0.2,0.3-0.5,0.1-0.7l-1.6-2.2c-0.2-0.2-0.5-0.3-0.7-0.1L166.6,107.9z"/>
		<path fill="#FFFFFF" d="M147.6,104.3l-2.7,2c-0.7,0.5-1.6,0.4-2.1-0.3l-0.7-1c-0.5-0.7-0.4-1.6,0.3-2.1l2.7-2
			c0.7-0.5,1.6-0.4,2.1,0.3l0.7,1C148.4,102.9,148.3,103.8,147.6,104.3z M143,103.7c-0.2,0.2-0.3,0.5-0.1,0.7l0.7,1
			c0.2,0.2,0.5,0.3,0.7,0.1l2.7-2c0.2-0.2,0.3-0.5,0.1-0.7l-0.7-1c-0.2-0.2-0.5-0.3-0.7-0.1L143,103.7z"/>
		<path fill="#FFFFFF" d="M137.9,115.4l-1,0.7c-0.7,0.5-1.6,0.4-2.1-0.3l-2-2.7c-0.5-0.7-0.4-1.6,0.3-2.1l1-0.7
			c0.7-0.5,1.6-0.4,2.1,0.3l2,2.7C138.7,113.9,138.6,114.9,137.9,115.4z M133.7,111.8c-0.2,0.2-0.3,0.5-0.1,0.7l2,2.7
			c0.2,0.2,0.5,0.3,0.7,0.1l1-0.7c0.2-0.2,0.3-0.5,0.1-0.7l-2-2.7c-0.2-0.2-0.5-0.3-0.7-0.1L133.7,111.8z"/>
		<path fill="#FFFFFF" d="M152.7,111.1l-2.7,2c-0.7,0.5-1.6,0.4-2.1-0.3l-0.7-1c-0.5-0.7-0.4-1.6,0.3-2.1l2.7-2
			c0.7-0.5,1.6-0.4,2.1,0.3l0.7,1C153.5,109.7,153.4,110.6,152.7,111.1z M148.1,110.6c-0.2,0.2-0.3,0.5-0.1,0.7l0.7,1
			c0.2,0.2,0.5,0.3,0.7,0.1l2.7-2c0.2-0.2,0.3-0.5,0.1-0.7l-0.7-1c-0.2-0.2-0.5-0.3-0.7-0.1L148.1,110.6z"/>
		<path fill="#FFFFFF" d="M170.7,117.8l-2.7,2c-0.7,0.5-1.6,0.4-2.1-0.3l-0.7-1c-0.5-0.7-0.4-1.6,0.3-2.1l2.7-2
			c0.7-0.5,1.6-0.4,2.1,0.3l0.7,1C171.5,116.3,171.4,117.3,170.7,117.8z M166.1,117.2c-0.2,0.2-0.3,0.5-0.1,0.7l0.7,1
			c0.2,0.2,0.5,0.3,0.7,0.1l2.7-2c0.2-0.2,0.3-0.5,0.1-0.7l-0.7-1c-0.2-0.2-0.5-0.3-0.7-0.1L166.1,117.2z"/>
		<path fill="#FFFFFF" d="M184.1,107.8l-2.7,2c-0.7,0.5-1.6,0.4-2.1-0.3l-0.7-1c-0.5-0.7-0.4-1.6,0.3-2.1l2.7-2
			c0.7-0.5,1.6-0.4,2.1,0.3l0.7,1C184.9,106.4,184.7,107.3,184.1,107.8z M179.4,107.2c-0.2,0.2-0.3,0.5-0.1,0.7l0.7,1
			c0.2,0.2,0.5,0.3,0.7,0.1l2.7-2c0.2-0.2,0.3-0.5,0.1-0.7l-0.7-1c-0.2-0.2-0.5-0.3-0.7-0.1L179.4,107.2z"/>
		<path fill="#FFFFFF" d="M199.3,194.6l-1.1,0.8c-0.7,0.5-1.6,0.4-2.1-0.3l-2.4-3.3c-0.5-0.7-0.4-1.6,0.3-2.1l1.1-0.8
			c0.7-0.5,1.6-0.4,2.1,0.3l2.4,3.3C200.1,193.2,200,194.1,199.3,194.6z M194.6,190.6c-0.2,0.2-0.3,0.5-0.1,0.7l2.4,3.3
			c0.2,0.2,0.5,0.3,0.7,0.1l1.1-0.8c0.2-0.2,0.3-0.5,0.1-0.7l-2.4-3.3c-0.2-0.2-0.5-0.3-0.7-0.1L194.6,190.6z"/>
		<path fill="#FFFFFF" d="M195,188.8l-1.1,0.8c-0.7,0.5-1.6,0.4-2.1-0.3l-2.4-3.3c-0.5-0.7-0.4-1.6,0.3-2.1l1.1-0.8
			c0.7-0.5,1.6-0.4,2.1,0.3l2.4,3.3C195.7,187.3,195.6,188.3,195,188.8z M190.2,184.7c-0.2,0.2-0.3,0.5-0.1,0.7l2.4,3.3
			c0.2,0.2,0.5,0.3,0.7,0.1l1.1-0.8c0.2-0.2,0.3-0.5,0.1-0.7L192,184c-0.2-0.2-0.5-0.3-0.7-0.1L190.2,184.7z"/>
		<path fill="#FFFFFF" d="M190.6,182.9l-1.1,0.8c-0.7,0.5-1.6,0.4-2.1-0.3l-2.4-3.3c-0.5-0.7-0.4-1.6,0.3-2.1l1.1-0.8
			c0.7-0.5,1.6-0.4,2.1,0.3l2.4,3.3C191.4,181.5,191.2,182.4,190.6,182.9z M185.8,178.9c-0.2,0.2-0.3,0.5-0.1,0.7l2.4,3.3
			c0.2,0.2,0.5,0.3,0.7,0.1l1.1-0.8c0.2-0.2,0.3-0.5,0.1-0.7l-2.4-3.3c-0.2-0.2-0.5-0.3-0.7-0.1L185.8,178.9z"/>
		<path fill="#FFFFFF" d="M186.2,177l-1.1,0.8c-0.7,0.5-1.6,0.4-2.1-0.3l-2.4-3.3c-0.5-0.7-0.4-1.6,0.3-2.1l1.1-0.8
			c0.7-0.5,1.6-0.4,2.1,0.3l2.4,3.3C187,175.6,186.9,176.5,186.2,177z M181.5,173c-0.2,0.2-0.3,0.5-0.1,0.7l2.4,3.3
			c0.2,0.2,0.5,0.3,0.7,0.1l1.1-0.8c0.2-0.2,0.3-0.5,0.1-0.7l-2.4-3.3c-0.2-0.2-0.5-0.3-0.7-0.1L181.5,173z"/>
		<path fill="#FFFFFF" d="M203.5,191.5l-1.1,0.8c-0.7,0.5-1.6,0.4-2.1-0.3l-2.4-3.3c-0.5-0.7-0.4-1.6,0.3-2.1l1.1-0.8
			c0.7-0.5,1.6-0.4,2.1,0.3l2.4,3.3C204.3,190.1,204.2,191,203.5,191.5z M198.8,187.5c-0.2,0.2-0.3,0.5-0.1,0.7l2.4,3.3
			c0.2,0.2,0.5,0.3,0.7,0.1l1.1-0.8c0.2-0.2,0.3-0.5,0.1-0.7l-2.4-3.3c-0.2-0.2-0.5-0.3-0.7-0.1L198.8,187.5z"/>
		<path fill="#FFFFFF" d="M199.1,185.6l-1.1,0.8c-0.7,0.5-1.6,0.4-2.1-0.3l-2.4-3.3c-0.5-0.7-0.4-1.6,0.3-2.1l1.1-0.8
			c0.7-0.5,1.6-0.4,2.1,0.3l2.4,3.3C199.9,184.2,199.8,185.1,199.1,185.6z M194.4,181.6c-0.2,0.2-0.3,0.5-0.1,0.7l2.4,3.3
			c0.2,0.2,0.5,0.3,0.7,0.1l1.1-0.8c0.2-0.2,0.3-0.5,0.1-0.7l-2.4-3.3c-0.2-0.2-0.5-0.3-0.7-0.1L194.4,181.6z"/>
		<path fill="#FFFFFF" d="M194.7,179.8l-1.1,0.8c-0.7,0.5-1.6,0.4-2.1-0.3l-2.4-3.3c-0.5-0.7-0.4-1.6,0.3-2.1l1.1-0.8
			c0.7-0.5,1.6-0.4,2.1,0.3l2.4,3.3C195.5,178.3,195.4,179.3,194.7,179.8z M190,175.7c-0.2,0.2-0.3,0.5-0.1,0.7l2.4,3.3
			c0.2,0.2,0.5,0.3,0.7,0.1l1.1-0.8c0.2-0.2,0.3-0.5,0.1-0.7l-2.4-3.3c-0.2-0.2-0.5-0.3-0.7-0.1L190,175.7z"/>
		<path fill="#FFFFFF" d="M190.4,173.9l-1.1,0.8c-0.7,0.5-1.6,0.4-2.1-0.3l-2.4-3.3c-0.5-0.7-0.4-1.6,0.3-2.1l1.1-0.8
			c0.7-0.5,1.6-0.4,2.1,0.3l2.4,3.3C191.2,172.5,191,173.4,190.4,173.9z M185.6,169.9c-0.2,0.2-0.3,0.5-0.1,0.7l2.4,3.3
			c0.2,0.2,0.5,0.3,0.7,0.1l1.1-0.8c0.2-0.2,0.3-0.5,0.1-0.7l-2.4-3.3c-0.2-0.2-0.5-0.3-0.7-0.1L185.6,169.9z"/>
		<path fill="#FFFFFF" d="M229.2,166.1l-1.1,0.8c-0.7,0.5-1.6,0.4-2.1-0.3l-2.4-3.3c-0.5-0.7-0.4-1.6,0.3-2.1l1.1-0.8
			c0.7-0.5,1.6-0.4,2.1,0.3l2.4,3.3C230,164.7,229.8,165.6,229.2,166.1z M224.4,162.1c-0.2,0.2-0.3,0.5-0.1,0.7l2.4,3.3
			c0.2,0.2,0.5,0.3,0.7,0.1l1.1-0.8c0.2-0.2,0.3-0.5,0.1-0.7l-2.4-3.3c-0.2-0.2-0.5-0.3-0.7-0.1L224.4,162.1z"/>
		<path fill="#FFFFFF" d="M224.8,160.3l-1.1,0.8c-0.7,0.5-1.6,0.4-2.1-0.3l-2.4-3.3c-0.5-0.7-0.4-1.6,0.3-2.1l1.1-0.8
			c0.7-0.5,1.6-0.4,2.1,0.3l2.4,3.3C225.6,158.8,225.5,159.8,224.8,160.3z M220.1,156.2c-0.2,0.2-0.3,0.5-0.1,0.7l2.4,3.3
			c0.2,0.2,0.5,0.3,0.7,0.1l1.1-0.8c0.2-0.2,0.3-0.5,0.1-0.7l-2.4-3.3c-0.2-0.2-0.5-0.3-0.7-0.1L220.1,156.2z"/>
		<path fill="#FFFFFF" d="M220.4,154.4l-1.1,0.8c-0.7,0.5-1.6,0.4-2.1-0.3l-2.4-3.3c-0.5-0.7-0.4-1.6,0.3-2.1l1.1-0.8
			c0.7-0.5,1.6-0.4,2.1,0.3l2.4,3.3C221.2,153,221.1,153.9,220.4,154.4z M215.7,150.4c-0.2,0.2-0.3,0.5-0.1,0.7l2.4,3.3
			c0.2,0.2,0.5,0.3,0.7,0.1l1.1-0.8c0.2-0.2,0.3-0.5,0.1-0.7l-2.4-3.3c-0.2-0.2-0.5-0.3-0.7-0.1L215.7,150.4z"/>
		<path fill="#FFFFFF" d="M216.1,148.5l-1.1,0.8c-0.7,0.5-1.6,0.4-2.1-0.3l-2.4-3.3c-0.5-0.7-0.4-1.6,0.3-2.1l1.1-0.8
			c0.7-0.5,1.6-0.4,2.1,0.3l2.4,3.3C216.9,147.1,216.7,148,216.1,148.5z M211.3,144.5c-0.2,0.2-0.3,0.5-0.1,0.7l2.4,3.3
			c0.2,0.2,0.5,0.3,0.7,0.1l1.1-0.8c0.2-0.2,0.3-0.5,0.1-0.7l-2.4-3.3c-0.2-0.2-0.5-0.3-0.7-0.1L211.3,144.5z"/>
		<path fill="#FFFFFF" d="M233.4,163l-1.1,0.8c-0.7,0.5-1.6,0.4-2.1-0.3l-2.4-3.3c-0.5-0.7-0.4-1.6,0.3-2.1l1.1-0.8
			c0.7-0.5,1.6-0.4,2.1,0.3l2.4,3.3C234.2,161.6,234,162.5,233.4,163z M228.6,159c-0.2,0.2-0.3,0.5-0.1,0.7l2.4,3.3
			c0.2,0.2,0.5,0.3,0.7,0.1l1.1-0.8c0.2-0.2,0.3-0.5,0.1-0.7l-2.4-3.3c-0.2-0.2-0.5-0.3-0.7-0.1L228.6,159z"/>
		<path fill="#FFFFFF" d="M229,157.1l-1.1,0.8c-0.7,0.5-1.6,0.4-2.1-0.3l-2.4-3.3c-0.5-0.7-0.4-1.6,0.3-2.1l1.1-0.8
			c0.7-0.5,1.6-0.4,2.1,0.3l2.4,3.3C229.8,155.7,229.6,156.6,229,157.1z M224.2,153.1c-0.2,0.2-0.3,0.5-0.1,0.7l2.4,3.3
			c0.2,0.2,0.5,0.3,0.7,0.1l1.1-0.8c0.2-0.2,0.3-0.5,0.1-0.7l-2.4-3.3c-0.2-0.2-0.5-0.3-0.7-0.1L224.2,153.1z"/>
		<path fill="#FFFFFF" d="M224.6,151.3l-1.1,0.8c-0.7,0.5-1.6,0.4-2.1-0.3l-2.4-3.3c-0.5-0.7-0.4-1.6,0.3-2.1l1.1-0.8
			c0.7-0.5,1.6-0.4,2.1,0.3l2.4,3.3C225.4,149.8,225.3,150.8,224.6,151.3z M219.9,147.2c-0.2,0.2-0.3,0.5-0.1,0.7l2.4,3.3
			c0.2,0.2,0.5,0.3,0.7,0.1l1.1-0.8c0.2-0.2,0.3-0.5,0.1-0.7l-2.4-3.3c-0.2-0.2-0.5-0.3-0.7-0.1L219.9,147.2z"/>
		<path fill="#FFFFFF" d="M220.2,145.4l-1.1,0.8c-0.7,0.5-1.6,0.4-2.1-0.3l-2.4-3.3c-0.5-0.7-0.4-1.6,0.3-2.1l1.1-0.8
			c0.7-0.5,1.6-0.4,2.1,0.3l2.4,3.3C221,144,220.9,144.9,220.2,145.4z M215.5,141.4c-0.2,0.2-0.3,0.5-0.1,0.7l2.4,3.3
			c0.2,0.2,0.5,0.3,0.7,0.1l1.1-0.8c0.2-0.2,0.3-0.5,0.1-0.7l-2.4-3.3c-0.2-0.2-0.5-0.3-0.7-0.1L215.5,141.4z"/>
		<path fill="#FFFFFF" d="M195.3,162.7l-2.8,2.1c-0.7,0.5-1.6,0.4-2.1-0.3l-0.2-0.3c-0.5-0.7-0.4-1.6,0.3-2.1l2.8-2.1
			c0.7-0.5,1.6-0.4,2.1,0.3l0.2,0.3C196.1,161.3,195.9,162.3,195.3,162.7z M191.1,162.9c-0.2,0.2-0.3,0.5-0.1,0.7l0.2,0.3
			c0.2,0.2,0.5,0.3,0.7,0.1l2.8-2.1c0.2-0.2,0.3-0.5,0.1-0.7l-0.2-0.3c-0.2-0.2-0.5-0.3-0.7-0.1L191.1,162.9z"/>
		<path fill="#FFFFFF" d="M197.9,166.2l-2.8,2.1c-0.7,0.5-1.6,0.4-2.1-0.3l-0.2-0.3c-0.5-0.7-0.4-1.6,0.3-2.1l2.8-2.1
			c0.7-0.5,1.6-0.4,2.1,0.3l0.2,0.3C198.7,164.8,198.5,165.7,197.9,166.2z M193.7,166.4c-0.2,0.2-0.3,0.5-0.1,0.7l0.2,0.3
			c0.2,0.2,0.5,0.3,0.7,0.1l2.8-2.1c0.2-0.2,0.3-0.5,0.1-0.7l-0.2-0.3c-0.2-0.2-0.5-0.3-0.7-0.1L193.7,166.4z"/>
		<path fill="#FFFFFF" d="M200.4,169.6l-2.8,2.1c-0.7,0.5-1.6,0.4-2.1-0.3l-0.2-0.3c-0.5-0.7-0.4-1.6,0.3-2.1l2.8-2.1
			c0.7-0.5,1.6-0.4,2.1,0.3l0.2,0.3C201.2,168.2,201,169.1,200.4,169.6z M196.2,169.8c-0.2,0.2-0.3,0.5-0.1,0.7l0.2,0.3
			c0.2,0.2,0.5,0.3,0.7,0.1l2.8-2.1c0.2-0.2,0.3-0.5,0.1-0.7l-0.2-0.3c-0.2-0.2-0.5-0.3-0.7-0.1L196.2,169.8z"/>
		<path fill="#FFFFFF" d="M203,173.1l-2.8,2.1c-0.7,0.5-1.6,0.4-2.1-0.3l-0.2-0.3c-0.5-0.7-0.4-1.6,0.3-2.1l2.8-2.1
			c0.7-0.5,1.6-0.4,2.1,0.3l0.2,0.3C203.8,171.6,203.6,172.6,203,173.1z M198.8,173.3c-0.2,0.2-0.3,0.5-0.1,0.7l0.2,0.3
			c0.2,0.2,0.5,0.3,0.7,0.1l2.8-2.1c0.2-0.2,0.3-0.5,0.1-0.7l-0.2-0.3c-0.2-0.2-0.5-0.3-0.7-0.1L198.8,173.3z"/>
		<path fill="#FFFFFF" d="M205.5,176.4l-2.8,2.1c-0.7,0.5-1.6,0.4-2.1-0.3l-0.2-0.3c-0.5-0.7-0.4-1.6,0.3-2.1l2.8-2.1
			c0.7-0.5,1.6-0.4,2.1,0.3l0.2,0.3C206.3,175,206.2,175.9,205.5,176.4z M201.3,176.6c-0.2,0.2-0.3,0.5-0.1,0.7l0.2,0.3
			c0.2,0.2,0.5,0.3,0.7,0.1l2.8-2.1c0.2-0.2,0.3-0.5,0.1-0.7l-0.2-0.3c-0.2-0.2-0.5-0.3-0.7-0.1L201.3,176.6z"/>
		<path fill="#FFFFFF" d="M208.1,179.9l-2.8,2.1c-0.7,0.5-1.6,0.4-2.1-0.3l-0.2-0.3c-0.5-0.7-0.4-1.6,0.3-2.1l2.8-2.1
			c0.7-0.5,1.6-0.4,2.1,0.3l0.2,0.3C208.9,178.5,208.8,179.4,208.1,179.9z M203.9,180.1c-0.2,0.2-0.3,0.5-0.1,0.7l0.2,0.3
			c0.2,0.2,0.5,0.3,0.7,0.1l2.8-2.1c0.2-0.2,0.3-0.5,0.1-0.7l-0.2-0.3c-0.2-0.2-0.5-0.3-0.7-0.1L203.9,180.1z"/>
		<path fill="#FFFFFF" d="M210.5,183.2l-2.8,2.1c-0.7,0.5-1.6,0.4-2.1-0.3l-0.2-0.3c-0.5-0.7-0.4-1.6,0.3-2.1l2.8-2.1
			c0.7-0.5,1.6-0.4,2.1,0.3l0.2,0.3C211.3,181.8,211.2,182.7,210.5,183.2z M206.4,183.4c-0.2,0.2-0.3,0.5-0.1,0.7l0.2,0.3
			c0.2,0.2,0.5,0.3,0.7,0.1l2.8-2.1c0.2-0.2,0.3-0.5,0.1-0.7l-0.2-0.3c-0.2-0.2-0.5-0.3-0.7-0.1L206.4,183.4z"/>
		<path fill="#FFFFFF" d="M210.3,152.1l-2.8,2.1c-0.7,0.5-1.6,0.4-2.1-0.3l-0.2-0.3c-0.5-0.7-0.4-1.6,0.3-2.1l2.8-2.1
			c0.7-0.5,1.6-0.4,2.1,0.3l0.2,0.3C211.1,150.7,210.9,151.6,210.3,152.1z M206.1,152.3c-0.2,0.2-0.3,0.5-0.1,0.7l0.2,0.3
			c0.2,0.2,0.5,0.3,0.7,0.1l2.8-2.1c0.2-0.2,0.3-0.5,0.1-0.7l-0.2-0.3c-0.2-0.2-0.5-0.3-0.7-0.1L206.1,152.3z"/>
		<path fill="#FFFFFF" d="M212.9,155.6l-2.8,2.1c-0.7,0.5-1.6,0.4-2.1-0.3l-0.2-0.3c-0.5-0.7-0.4-1.6,0.3-2.1l2.8-2.1
			c0.7-0.5,1.6-0.4,2.1,0.3l0.2,0.3C213.7,154.1,213.5,155.1,212.9,155.6z M208.7,155.8c-0.2,0.2-0.3,0.5-0.1,0.7l0.2,0.3
			c0.2,0.2,0.5,0.3,0.7,0.1l2.8-2.1c0.2-0.2,0.3-0.5,0.1-0.7l-0.2-0.3c-0.2-0.2-0.5-0.3-0.7-0.1L208.7,155.8z"/>
		<path fill="#FFFFFF" d="M215.4,158.9l-2.8,2.1c-0.7,0.5-1.6,0.4-2.1-0.3l-0.2-0.3c-0.5-0.7-0.4-1.6,0.3-2.1l2.8-2.1
			c0.7-0.5,1.6-0.4,2.1,0.3l0.2,0.3C216.2,157.5,216.1,158.4,215.4,158.9z M211.2,159.1c-0.2,0.2-0.3,0.5-0.1,0.7l0.2,0.3
			c0.2,0.2,0.5,0.3,0.7,0.1l2.8-2.1c0.2-0.2,0.3-0.5,0.1-0.7l-0.2-0.3c-0.2-0.2-0.5-0.3-0.7-0.1L211.2,159.1z"/>
		<path fill="#FFFFFF" d="M218,162.4l-2.8,2.1c-0.7,0.5-1.6,0.4-2.1-0.3l-0.2-0.3c-0.5-0.7-0.4-1.6,0.3-2.1l2.8-2.1
			c0.7-0.5,1.6-0.4,2.1,0.3l0.2,0.3C218.8,161,218.7,161.9,218,162.4z M213.8,162.6c-0.2,0.2-0.3,0.5-0.1,0.7l0.2,0.3
			c0.2,0.2,0.5,0.3,0.7,0.1l2.8-2.1c0.2-0.2,0.3-0.5,0.1-0.7l-0.2-0.3c-0.2-0.2-0.5-0.3-0.7-0.1L213.8,162.6z"/>
		<path fill="#FFFFFF" d="M220.5,165.8l-2.8,2.1c-0.7,0.5-1.6,0.4-2.1-0.3l-0.2-0.3c-0.5-0.7-0.4-1.6,0.3-2.1l2.8-2.1
			c0.7-0.5,1.6-0.4,2.1,0.3l0.2,0.3C221.3,164.3,221.2,165.3,220.5,165.8z M216.3,166c-0.2,0.2-0.3,0.5-0.1,0.7l0.2,0.3
			c0.2,0.2,0.5,0.3,0.7,0.1l2.8-2.1c0.2-0.2,0.3-0.5,0.1-0.7l-0.2-0.3c-0.2-0.2-0.5-0.3-0.7-0.1L216.3,166z"/>
		<path fill="#FFFFFF" d="M223.1,169.3l-2.8,2.1c-0.7,0.5-1.6,0.4-2.1-0.3l-0.2-0.3c-0.5-0.7-0.4-1.6,0.3-2.1l2.8-2.1
			c0.7-0.5,1.6-0.4,2.1,0.3l0.2,0.3C223.9,167.8,223.8,168.8,223.1,169.3z M218.9,169.5c-0.2,0.2-0.3,0.5-0.1,0.7l0.2,0.3
			c0.2,0.2,0.5,0.3,0.7,0.1l2.8-2.1c0.2-0.2,0.3-0.5,0.1-0.7l-0.2-0.3c-0.2-0.2-0.5-0.3-0.7-0.1L218.9,169.5z"/>
		<path fill="#FFFFFF" d="M225.6,172.5l-2.8,2.1c-0.7,0.5-1.6,0.4-2.1-0.3l-0.2-0.3c-0.5-0.7-0.4-1.6,0.3-2.1l2.8-2.1
			c0.7-0.5,1.6-0.4,2.1,0.3l0.2,0.3C226.4,171.1,226.2,172,225.6,172.5z M221.4,172.7c-0.2,0.2-0.3,0.5-0.1,0.7l0.2,0.3
			c0.2,0.2,0.5,0.3,0.7,0.1l2.8-2.1c0.2-0.2,0.3-0.5,0.1-0.7l-0.2-0.3c-0.2-0.2-0.5-0.3-0.7-0.1L221.4,172.7z"/>
		<path fill="#FFFFFF" d="M184.6,166.2l-1.1,0.8c-0.7,0.5-1.6,0.4-2.1-0.3l-1.5-2c-0.5-0.7-0.4-1.6,0.3-2.1l1.1-0.8
			c0.7-0.5,1.6-0.4,2.1,0.3l1.5,2C185.4,164.7,185.3,165.7,184.6,166.2z M180.8,163.4c-0.2,0.2-0.3,0.5-0.1,0.7l1.5,2
			c0.2,0.2,0.5,0.3,0.7,0.1l1.1-0.8c0.2-0.2,0.3-0.5,0.1-0.7l-1.5-2c-0.2-0.2-0.5-0.3-0.7-0.1L180.8,163.4z"/>
		<path fill="#FFFFFF" d="M188.4,163.4l-1.1,0.8c-0.7,0.5-1.6,0.4-2.1-0.3l-1.5-2c-0.5-0.7-0.4-1.6,0.3-2.1l1.1-0.8
			c0.7-0.5,1.6-0.4,2.1,0.3l1.5,2C189.2,161.9,189,162.9,188.4,163.4z M184.6,160.6c-0.2,0.2-0.3,0.5-0.1,0.7l1.5,2
			c0.2,0.2,0.5,0.3,0.7,0.1l1.1-0.8c0.2-0.2,0.3-0.5,0.1-0.7l-1.5-2c-0.2-0.2-0.5-0.3-0.7-0.1L184.6,160.6z"/>
		<path fill="#FFFFFF" d="M189.7,198.6l-1.1,0.8c-0.7,0.5-1.6,0.4-2.1-0.3l-1.5-2c-0.5-0.7-0.4-1.6,0.3-2.1l1.1-0.8
			c0.7-0.5,1.6-0.4,2.1,0.3l1.5,2C190.5,197.2,190.4,198.1,189.7,198.6z M186,195.9c-0.2,0.2-0.3,0.5-0.1,0.7l1.5,2
			c0.2,0.2,0.5,0.3,0.7,0.1l1.1-0.8c0.2-0.2,0.3-0.5,0.1-0.7l-1.5-2c-0.2-0.2-0.5-0.3-0.7-0.1L186,195.9z"/>
		<path fill="#FFFFFF" d="M193.3,203.3l-1.1,0.8c-0.7,0.5-1.6,0.4-2.1-0.3l-1.5-2c-0.5-0.7-0.4-1.6,0.3-2.1l1.1-0.8
			c0.7-0.5,1.6-0.4,2.1,0.3l1.5,2C194.1,201.9,193.9,202.9,193.3,203.3z M189.5,200.6c-0.2,0.2-0.3,0.5-0.1,0.7l1.5,2
			c0.2,0.2,0.5,0.3,0.7,0.1l1.1-0.8c0.2-0.2,0.3-0.5,0.1-0.7l-1.5-2c-0.2-0.2-0.5-0.3-0.7-0.1L189.5,200.6z"/>
		<path fill="#FFFFFF" d="M190.3,119.7l-1.3,0.9c-0.7,0.5-1.6,0.4-2.1-0.3l-2.6-3.5c-0.5-0.7-0.4-1.6,0.3-2.1l1.3-0.9
			c0.7-0.5,1.6-0.4,2.1,0.3l2.6,3.5C191.1,118.3,191,119.2,190.3,119.7z M185.2,115.5c-0.2,0.2-0.3,0.5-0.1,0.7l2.6,3.5
			c0.2,0.2,0.5,0.3,0.7,0.1l1.3-0.9c0.2-0.2,0.3-0.5,0.1-0.7l-2.6-3.5c-0.2-0.2-0.5-0.3-0.7-0.1L185.2,115.5z"/>
		<path fill="#FFFFFF" d="M259.6,73.5l-1.3,0.9c-0.7,0.5-1.6,0.4-2.1-0.3l-2.6-3.5c-0.5-0.7-0.4-1.6,0.3-2.1l1.3-0.9
			c0.7-0.5,1.6-0.4,2.1,0.3l2.6,3.5C260.4,72.1,260.3,73,259.6,73.5z M254.5,69.3c-0.2,0.2-0.3,0.5-0.1,0.7l2.6,3.5
			c0.2,0.2,0.5,0.3,0.7,0.1l1.3-0.9c0.2-0.2,0.3-0.5,0.1-0.7l-2.6-3.5c-0.2-0.2-0.5-0.3-0.7-0.1L254.5,69.3z"/>
		<path fill="#FFFFFF" d="M266.6,82.9l-1.3,0.9c-0.7,0.5-1.6,0.4-2.1-0.3l-2.6-3.5c-0.5-0.7-0.4-1.6,0.3-2.1l1.3-0.9
			c0.7-0.5,1.6-0.4,2.1,0.3l2.6,3.5C267.4,81.5,267.3,82.4,266.6,82.9z M261.6,78.7c-0.2,0.2-0.3,0.5-0.1,0.7l2.6,3.5
			c0.2,0.2,0.5,0.3,0.7,0.1l1.3-0.9c0.2-0.2,0.3-0.5,0.1-0.7l-2.6-3.5c-0.2-0.2-0.5-0.3-0.7-0.1L261.6,78.7z"/>
		<path fill="#FFFFFF" d="M182.1,58l-1.3,0.9c-0.7,0.5-1.6,0.4-2.1-0.3l-2.6-3.5c-0.5-0.7-0.4-1.6,0.3-2.1l1.3-0.9
			c0.7-0.5,1.6-0.4,2.1,0.3l2.6,3.5C182.9,56.6,182.7,57.5,182.1,58z M177,53.9c-0.2,0.2-0.3,0.5-0.1,0.7l2.6,3.5
			c0.2,0.2,0.5,0.3,0.7,0.1l1.3-0.9c0.2-0.2,0.3-0.5,0.1-0.7L179,53c-0.2-0.2-0.5-0.3-0.7-0.1L177,53.9z"/>
		<path fill="#FFFFFF" d="M167.8,83.8c-0.2-0.2-0.1-0.5,0.1-0.7l1.3-0.9c0.2-0.2,0.5-0.1,0.7,0.1l1.2,1.7c0.1-0.1,0.3-0.3,0.4-0.4
			c0.1-0.1,0.3-0.2,0.4-0.2l-1.2-1.7c-0.5-0.7-1.4-0.8-2.1-0.3l-1.3,0.9c-0.7,0.5-0.8,1.4-0.3,2.1l1,1.4c0,0,0.1-0.1,0.1-0.1
			c0.3-0.2,0.5-0.3,0.8-0.4L167.8,83.8z"/>
		<path fill="#FFFFFF" d="M189.7,67.4l1.3,1.7c0.2-0.3,0.4-0.5,0.7-0.8l-1.1-1.5c-0.5-0.7-1.4-0.8-2.1-0.3l-1.3,0.9
			c-0.7,0.5-0.8,1.4-0.3,2.1l1.2,1.6c0.1-0.1,0.2-0.2,0.4-0.3c0.1-0.1,0.3-0.2,0.4-0.3l-1.2-1.6c-0.2-0.2-0.1-0.5,0.1-0.7l1.3-0.9
			C189.3,67.2,189.6,67.2,189.7,67.4z"/>
		<path fill="#FFFFFF" d="M216,199.2c-1.4,1.1-3.4,0.8-4.5-0.7c-1.1-1.4-0.8-3.4,0.7-4.5c1.4-1.1,3.4-0.8,4.5,0.7
			C217.7,196.1,217.4,198.1,216,199.2z M212.8,194.8c-1,0.7-1.2,2.1-0.4,3.1c0.7,1,2.1,1.2,3.1,0.4c1-0.7,1.2-2.1,0.4-3.1
			S213.7,194.1,212.8,194.8z"/>
		<path fill="#FFFFFF" d="M223.1,193.9c-1.4,1.1-3.4,0.8-4.5-0.7c-1.1-1.4-0.8-3.4,0.7-4.5c1.4-1.1,3.4-0.8,4.5,0.7
			C224.9,190.8,224.6,192.8,223.1,193.9z M219.9,189.5c-1,0.7-1.2,2.1-0.4,3.1c0.7,1,2.1,1.2,3.1,0.4c1-0.7,1.2-2.1,0.4-3.1
			C222.3,189,220.9,188.8,219.9,189.5z"/>
		<path fill="#FFFFFF" d="M230.3,188.5c-1.4,1.1-3.4,0.8-4.5-0.7c-1.1-1.4-0.8-3.4,0.7-4.5c1.4-1.1,3.4-0.8,4.5,0.7
			C232,185.4,231.7,187.5,230.3,188.5z M227,184.2c-1,0.7-1.2,2.1-0.4,3.1c0.7,1,2.1,1.2,3.1,0.4s1.2-2.1,0.4-3.1
			C229.4,183.6,228,183.4,227,184.2z"/>
		<path fill="#FFFFFF" d="M237.4,183.2c-1.4,1.1-3.4,0.8-4.5-0.7c-1.1-1.4-0.8-3.4,0.7-4.5c1.4-1.1,3.4-0.8,4.5,0.7
			C239.1,180.1,238.8,182.1,237.4,183.2z M234.2,178.8c-1,0.7-1.2,2.1-0.4,3.1c0.7,1,2.1,1.2,3.1,0.4s1.2-2.1,0.4-3.1
			S235.1,178.1,234.2,178.8z"/>
		<path fill="#FFFFFF" d="M244.6,177.9c-1.4,1.1-3.4,0.8-4.5-0.7s-0.8-3.4,0.7-4.5c1.4-1.1,3.4-0.8,4.5,0.7
			C246.3,174.8,246,176.8,244.6,177.9z M241.3,173.5c-1,0.7-1.2,2.1-0.4,3.1s2.1,1.2,3.1,0.4s1.2-2.1,0.4-3.1
			S242.3,172.8,241.3,173.5z"/>
		<path fill="#FFFFFF" d="M123.9,104.9c-1.4,1.1-3.4,0.8-4.5-0.7s-0.8-3.4,0.7-4.5c1.4-1.1,3.4-0.8,4.5,0.7
			C125.6,101.8,125.3,103.8,123.9,104.9z M120.6,100.6c-1,0.7-1.2,2.1-0.4,3.1c0.7,1,2.1,1.2,3.1,0.5s1.2-2.1,0.4-3.1
			C123,100,121.6,99.8,120.6,100.6z"/>
		<path fill="#FFFFFF" d="M134.3,97.2c-1.4,1.1-3.4,0.8-4.5-0.7c-1.1-1.4-0.8-3.4,0.7-4.5c1.4-1.1,3.4-0.8,4.5,0.7
			C136,94.1,135.7,96.1,134.3,97.2z M131,92.8c-1,0.7-1.2,2.1-0.4,3.1c0.7,1,2.1,1.2,3.1,0.4s1.2-2.1,0.4-3.1
			C133.4,92.3,132,92.1,131,92.8z"/>
		<path fill="#FFFFFF" d="M242.9,161.6l-0.3,0.2c-0.7,0.5-1.6,0.4-2.1-0.3l-2.1-2.8c-0.5-0.7-0.4-1.6,0.3-2.1l0.3-0.2
			c0.7-0.5,1.6-0.4,2.1,0.3l2.1,2.8C243.7,160.1,243.5,161.1,242.9,161.6z M239.3,157.4c-0.2,0.2-0.3,0.5-0.1,0.7l2.1,2.8
			c0.2,0.2,0.5,0.3,0.7,0.1l0.3-0.2c0.2-0.2,0.3-0.5,0.1-0.7l-2.1-2.8c-0.2-0.2-0.5-0.3-0.7-0.1L239.3,157.4z"/>
		<path fill="#FFFFFF" d="M246.2,159l-0.3,0.2c-0.7,0.5-1.6,0.4-2.1-0.3l-2.1-2.8c-0.5-0.7-0.4-1.6,0.3-2.1l0.3-0.2
			c0.7-0.5,1.6-0.4,2.1,0.3l2.1,2.8C247,157.6,246.9,158.5,246.2,159z M242.7,154.9c-0.2,0.2-0.3,0.5-0.1,0.7l2.1,2.8
			c0.2,0.2,0.5,0.3,0.7,0.1l0.3-0.2c0.2-0.2,0.3-0.5,0.1-0.7l-2.1-2.8c-0.2-0.2-0.5-0.3-0.7-0.1L242.7,154.9z"/>
		<path fill="#FFFFFF" d="M249.7,156.4l-0.3,0.2c-0.7,0.5-1.6,0.4-2.1-0.3l-2.1-2.8c-0.5-0.7-0.4-1.6,0.3-2.1l0.3-0.2
			c0.7-0.5,1.6-0.4,2.1,0.3l2.1,2.8C250.5,155,250.4,155.9,249.7,156.4z M246.2,152.3c-0.2,0.2-0.3,0.5-0.1,0.7l2.1,2.8
			c0.2,0.2,0.5,0.3,0.7,0.1l0.3-0.2c0.2-0.2,0.3-0.5,0.1-0.7l-2.1-2.8c-0.2-0.2-0.5-0.3-0.7-0.1L246.2,152.3z"/>
		<path fill="#FFFFFF" d="M253,154l-0.3,0.2c-0.7,0.5-1.6,0.4-2.1-0.3l-2.1-2.8c-0.5-0.7-0.4-1.6,0.3-2.1l0.3-0.2
			c0.7-0.5,1.6-0.4,2.1,0.3l2.1,2.8C253.8,152.5,253.7,153.5,253,154z M249.5,149.8c-0.2,0.2-0.3,0.5-0.1,0.7l2.1,2.8
			c0.2,0.2,0.5,0.3,0.7,0.1l0.3-0.2c0.2-0.2,0.3-0.5,0.1-0.7l-2.1-2.8c-0.2-0.2-0.5-0.3-0.7-0.1L249.5,149.8z"/>
		<path fill="#FFFFFF" d="M234.5,139.7l-0.3,0.2c-0.7,0.5-1.6,0.4-2.1-0.3l-2.1-2.8c-0.5-0.7-0.4-1.6,0.3-2.1l0.3-0.2
			c0.7-0.5,1.6-0.4,2.1,0.3l2.1,2.8C235.3,138.3,235.1,139.2,234.5,139.7z M230.9,135.6c-0.2,0.2-0.3,0.5-0.1,0.7l2.1,2.8
			c0.2,0.2,0.5,0.3,0.7,0.1l0.3-0.2c0.2-0.2,0.3-0.5,0.1-0.7l-2.1-2.8c-0.2-0.2-0.5-0.3-0.7-0.1L230.9,135.6z"/>
		<path fill="#FFFFFF" d="M237.8,137.2l-0.3,0.2c-0.7,0.5-1.6,0.4-2.1-0.3l-2.1-2.8c-0.5-0.7-0.4-1.6,0.3-2.1l0.3-0.2
			c0.7-0.5,1.6-0.4,2.1,0.3l2.1,2.8C238.6,135.8,238.5,136.7,237.8,137.2z M234.3,133.1c-0.2,0.2-0.3,0.5-0.1,0.7l2.1,2.8
			c0.2,0.2,0.5,0.3,0.7,0.1l0.3-0.2c0.2-0.2,0.3-0.5,0.1-0.7l-2.1-2.8c-0.2-0.2-0.5-0.3-0.7-0.1L234.3,133.1z"/>
		<path fill="#FFFFFF" d="M241.3,134.6l-0.3,0.2c-0.7,0.5-1.6,0.4-2.1-0.3l-2.1-2.8c-0.5-0.7-0.4-1.6,0.3-2.1l0.3-0.2
			c0.7-0.5,1.6-0.4,2.1,0.3l2.1,2.8C242.1,133.2,242,134.1,241.3,134.6z M237.8,130.5c-0.2,0.2-0.3,0.5-0.1,0.7l2.1,2.8
			c0.2,0.2,0.5,0.3,0.7,0.1l0.3-0.2c0.2-0.2,0.3-0.5,0.1-0.7l-2.1-2.8c-0.2-0.2-0.5-0.3-0.7-0.1L237.8,130.5z"/>
		<path fill="#FFFFFF" d="M244.6,132.2l-0.3,0.2c-0.7,0.5-1.6,0.4-2.1-0.3l-2.1-2.8c-0.5-0.7-0.4-1.6,0.3-2.1l0.3-0.2
			c0.7-0.5,1.6-0.4,2.1,0.3l2.1,2.8C245.4,130.7,245.3,131.7,244.6,132.2z M241.1,128c-0.2,0.2-0.3,0.5-0.1,0.7l2.1,2.8
			c0.2,0.2,0.5,0.3,0.7,0.1l0.3-0.2c0.2-0.2,0.3-0.5,0.1-0.7l-2.1-2.8c-0.2-0.2-0.5-0.3-0.7-0.1L241.1,128z"/>
		<path fill="#FFFFFF" d="M253.8,102.6l-3.7-4.9c-0.1-0.2-0.3-0.2-0.4-0.2c-0.9-0.1-1.8-0.2-2.7-0.3c-0.2,0-0.4,0.1-0.5,0.2
			c0,0,0,0-0.1,0l-1.1,0.8c-0.5,0.4,0.1,1.2,0.6,0.8l1.1-0.8c0,0,0,0,0,0c0.8,0.1,1.6,0.2,2.4,0.3l3.5,4.7l-1,6.9c0,0,0,0,0,0
			l-26.3,19.6c0,0,0,0,0,0c-0.1,0.1-0.2,0.2-0.2,0.3l-0.7,5.1c0,0.2,0,0.3,0.1,0.4c0,0,0,0,0,0l5.3,7.1c0.1,0.2,0.4,0.2,0.5,0.2
			c0.5,0.1,1,0.1,1.5,0.2c0.2,0,0.3,0,0.4-0.1c0,0,0,0,0.1,0l2.4-1.8c0.2-0.1,0.2-0.4,0.2-0.5c0-0.1,0-0.2-0.1-0.3l-0.7-0.9
			c-0.4-0.5-1.2,0.1-0.8,0.6l0.5,0.6l-2,1.5c-0.5-0.1-0.9-0.1-1.4-0.2l-5-6.7l0.7-4.6l26.4-19.7c0.2-0.2,0.2-0.4,0.2-0.5l1-7.1
			C254,102.8,253.9,102.7,253.8,102.6z"/>
		<path fill="#FFFFFF" d="M264.5,95.4c-0.9,0.6-2.1,0.5-2.7-0.4c-0.6-0.9-0.5-2.1,0.4-2.7c0.9-0.6,2.1-0.5,2.7,0.4
			C265.6,93.6,265.4,94.8,264.5,95.4z M262.8,93.1c-0.4,0.3-0.5,0.9-0.2,1.3c0.3,0.4,0.9,0.5,1.3,0.2c0.4-0.3,0.5-0.9,0.2-1.3
			C263.8,92.9,263.2,92.8,262.8,93.1z"/>
		<path fill="#FFFFFF" d="M198.9,149.9c-0.9,0.6-2.1,0.5-2.7-0.4c-0.6-0.9-0.5-2.1,0.4-2.7s2.1-0.5,2.7,0.4
			C200,148,199.8,149.2,198.9,149.9z M197.2,147.6c-0.4,0.3-0.5,0.9-0.2,1.3c0.3,0.4,0.9,0.5,1.3,0.2c0.4-0.3,0.5-0.9,0.2-1.3
			C198.2,147.4,197.6,147.3,197.2,147.6z"/>
		<path fill="#FFFFFF" d="M190.4,152.2c-0.9,0.6-2.1,0.5-2.7-0.4c-0.6-0.9-0.5-2.1,0.4-2.7s2.1-0.5,2.7,0.4
			C191.4,150.4,191.3,151.6,190.4,152.2z M188.7,149.9c-0.4,0.3-0.5,0.9-0.2,1.3c0.3,0.4,0.9,0.5,1.3,0.2c0.4-0.3,0.5-0.9,0.2-1.3
			C189.7,149.7,189.1,149.6,188.7,149.9z"/>
		<path fill="#FFFFFF" d="M177.4,119c-0.9,0.6-2.1,0.5-2.7-0.4c-0.6-0.9-0.5-2.1,0.4-2.7c0.9-0.6,2.1-0.5,2.7,0.4
			C178.4,117.2,178.2,118.4,177.4,119z M175.6,116.7c-0.4,0.3-0.5,0.9-0.2,1.3c0.3,0.4,0.9,0.5,1.3,0.2c0.4-0.3,0.5-0.9,0.2-1.3
			C176.6,116.5,176.1,116.4,175.6,116.7z"/>
		<path fill="#FFFFFF" d="M144,117.7c-0.9,0.6-2.1,0.5-2.7-0.4s-0.5-2.1,0.4-2.7c0.9-0.6,2.1-0.5,2.7,0.4S144.9,117.1,144,117.7z
			 M142.3,115.4c-0.4,0.3-0.5,0.9-0.2,1.3c0.3,0.4,0.9,0.5,1.3,0.2c0.4-0.3,0.5-0.9,0.2-1.3C143.3,115.2,142.7,115.1,142.3,115.4z"
			/>
		<path fill="#FFFFFF" d="M106.8,105.6c-0.9,0.6-2.1,0.5-2.7-0.4c-0.6-0.9-0.5-2.1,0.4-2.7c0.9-0.6,2.1-0.5,2.7,0.4
			C107.9,103.7,107.7,104.9,106.8,105.6z M105.1,103.3c-0.4,0.3-0.5,0.9-0.2,1.3c0.3,0.4,0.9,0.5,1.3,0.2c0.4-0.3,0.5-0.9,0.2-1.3
			C106.1,103,105.5,103,105.1,103.3z"/>
		<path fill="#FFFFFF" d="M138.5,81.9c-0.9,0.6-2.1,0.5-2.7-0.4c-0.6-0.9-0.5-2.1,0.4-2.7s2.1-0.5,2.7,0.4
			C139.5,80.1,139.4,81.3,138.5,81.9z M136.8,79.6c-0.4,0.3-0.5,0.9-0.2,1.3c0.3,0.4,0.9,0.5,1.3,0.2s0.5-0.9,0.2-1.3
			C137.8,79.4,137.2,79.3,136.8,79.6z"/>
		<path fill="#FFFFFF" d="M143.1,82.1c-0.9,0.6-2.1,0.5-2.7-0.4c-0.6-0.9-0.5-2.1,0.4-2.7c0.9-0.6,2.1-0.5,2.7,0.4
			C144.2,80.2,144,81.5,143.1,82.1z M141.4,79.8c-0.4,0.3-0.5,0.9-0.2,1.3c0.3,0.4,0.9,0.5,1.3,0.2c0.4-0.3,0.5-0.9,0.2-1.3
			C142.4,79.6,141.8,79.5,141.4,79.8z"/>
		<path fill="#FFFFFF" d="M183.1,85.3c-0.9,0.6-2.1,0.5-2.7-0.4c-0.6-0.9-0.5-2.1,0.4-2.7c0.9-0.6,2.1-0.5,2.7,0.4
			C184.1,83.4,184,84.6,183.1,85.3z M181.4,83c-0.4,0.3-0.5,0.9-0.2,1.3c0.3,0.4,0.9,0.5,1.3,0.2c0.4-0.3,0.5-0.9,0.2-1.3
			C182.4,82.7,181.8,82.7,181.4,83z"/>
		<path fill="#FFFFFF" d="M202.8,73c-0.9,0.6-2.1,0.5-2.7-0.4c-0.6-0.9-0.5-2.1,0.4-2.7c0.9-0.6,2.1-0.5,2.7,0.4
			C203.9,71.1,203.7,72.4,202.8,73z M201.1,70.7c-0.4,0.3-0.5,0.9-0.2,1.3c0.3,0.4,0.9,0.5,1.3,0.2c0.4-0.3,0.5-0.9,0.2-1.3
			C202.1,70.5,201.5,70.4,201.1,70.7z"/>
		<path fill="#FFFFFF" d="M209.4,71.5c-0.9,0.6-2.1,0.5-2.7-0.4s-0.5-2.1,0.4-2.7c0.9-0.6,2.1-0.5,2.7,0.4S210.3,70.9,209.4,71.5z
			 M207.7,69.2c-0.4,0.3-0.5,0.9-0.2,1.3s0.9,0.5,1.3,0.2c0.4-0.3,0.5-0.9,0.2-1.3C208.7,69,208.1,68.9,207.7,69.2z"/>
		<path fill="#FFFFFF" d="M215.8,70.5c-0.9,0.6-2.1,0.5-2.7-0.4s-0.5-2.1,0.4-2.7c0.9-0.6,2.1-0.5,2.7,0.4S216.7,69.9,215.8,70.5z
			 M214.1,68.2c-0.4,0.3-0.5,0.9-0.2,1.3c0.3,0.4,0.9,0.5,1.3,0.2c0.4-0.3,0.5-0.9,0.2-1.3C215.1,68,214.5,67.9,214.1,68.2z"/>
		<path fill="#FFFFFF" d="M211.1,172.6c-0.9,0.6-2.1,0.5-2.7-0.4c-0.6-0.9-0.5-2.1,0.4-2.7c0.9-0.6,2.1-0.5,2.7,0.4
			S211.9,171.9,211.1,172.6z M209.4,170.3c-0.4,0.3-0.5,0.9-0.2,1.3c0.3,0.4,0.9,0.5,1.3,0.2c0.4-0.3,0.5-0.9,0.2-1.3
			C210.4,170,209.8,170,209.4,170.3z"/>
		<path fill="#FFFFFF" d="M250.4,81.4c-0.9,0.6-2.1,0.5-2.7-0.4s-0.5-2.1,0.4-2.7c0.9-0.6,2.1-0.5,2.7,0.4S251.2,80.8,250.4,81.4z
			 M248.7,79.1c-0.4,0.3-0.5,0.9-0.2,1.3c0.3,0.4,0.9,0.5,1.3,0.2c0.4-0.3,0.5-0.9,0.2-1.3S249.1,78.8,248.7,79.1z"/>
		<path fill="#FFFFFF" d="M234.8,76.4c-0.9,0.6-2.1,0.5-2.7-0.4c-0.6-0.9-0.5-2.1,0.4-2.7c0.9-0.6,2.1-0.5,2.7,0.4
			C235.8,74.6,235.6,75.8,234.8,76.4z M233.1,74.1c-0.4,0.3-0.5,0.9-0.2,1.3c0.3,0.4,0.9,0.5,1.3,0.2c0.4-0.3,0.5-0.9,0.2-1.3
			C234.1,73.9,233.5,73.8,233.1,74.1z"/>
		<path fill="#FFFFFF" d="M256.7,79.1c-0.9,0.6-2.1,0.5-2.7-0.4c-0.6-0.9-0.5-2.1,0.4-2.7s2.1-0.5,2.7,0.4
			C257.7,77.3,257.5,78.5,256.7,79.1z M255,76.8c-0.4,0.3-0.5,0.9-0.2,1.3c0.3,0.4,0.9,0.5,1.3,0.2c0.4-0.3,0.5-0.9,0.2-1.3
			C256,76.6,255.4,76.5,255,76.8z"/>
		<path fill="#FFFFFF" d="M251,95.1c-1.5-0.2-3.1-0.4-4.6-0.6c0,0,0,0,0,0c-0.1-0.1-0.3-0.1-0.5,0l-2.2,1.6
			c-0.5,0.4,0.1,1.2,0.6,0.8l2-1.5c0,0,0,0,0,0c1.5,0.2,3,0.4,4.5,0.6l5.3,7.2c-1.3,8.9-2.5,17.8-3.8,26.7l-15.6,11.6c0,0,0,0,0,0
			l-4,3c0,0-0.1,0.1-0.1,0.1c0,0,0,0,0,0c0,0.1-0.1,0.1-0.1,0.2c-0.1,0.7-0.2,1.3-0.3,2c0,0,0,0,0,0c-0.1,0.4-0.1,0.8-0.2,1.2
			c0,0,0,0,0,0c0,0.1,0,0.1,0,0.2c0,0.1,0,0.1,0.1,0.1c0,0,0,0,0,0l6.2,8.3c0.4,0.5,1.2-0.1,0.8-0.6l-6.1-8.1c0-0.2,0.1-0.4,0.1-0.5
			c0,0,0,0,0,0c0.1-0.8,0.2-1.5,0.3-2.3l3.2-2.4c0,0,0,0,0,0l16.4-12.2c0.2-0.1,0.2-0.3,0.2-0.5c1.3-9,2.5-17.9,3.8-26.9
			c0.1-0.1,0-0.3-0.1-0.4l-5.6-7.5C251.3,95.1,251.1,95.1,251,95.1z"/>
		<path fill="#FFFFFF" d="M253.4,92.9c-0.1-0.1-0.2-0.2-0.4-0.3l-7.5-1.1c-0.2,0-0.4,0.1-0.4,0.2c0,0-0.1,0-0.1,0.1l-3.1,2.3
			c-0.5,0.4,0.1,1.2,0.6,0.8l3.1-2.3c0,0,0,0,0,0c2.4,0.3,4.7,0.7,7.1,1l6,8.1c-1.4,9.8-2.9,19.6-4.3,29.4L237.2,144
			c0,0,0,0-0.1,0.1c-0.1,0.1-0.2,0.2-0.3,0.4c-0.1,0.7-0.2,1.5-0.3,2.2c0,0,0,0,0,0c0,0.1,0,0.1,0,0.2c0,0.1,0,0.1,0.1,0.1
			c0,0,0,0,0,0l5.3,7.1c0.4,0.5,1.2-0.1,0.8-0.6l-5.2-6.9l0.3-1.8l17.4-13c0.1,0,0.1-0.1,0.1-0.2c0-0.1,0.1-0.1,0.1-0.2
			c1.4-9.9,2.9-19.8,4.3-29.7c0-0.1,0-0.3-0.1-0.4L253.4,92.9C253.5,93,253.5,93,253.4,92.9z"/>
		<path fill="#FFFFFF" d="M254.1,90.2c-0.1,0-0.1-0.1-0.2-0.1c-3-0.4-5.9-0.8-8.9-1.3c-0.2,0-0.4,0.1-0.5,0.2c0,0,0,0,0,0l-4.2,3.2
			c-0.5,0.4,0.1,1.2,0.6,0.8l4.2-3.1c2.9,0.4,5.7,0.8,8.6,1.2l7.6,10.2c-1.5,10.3-3,20.6-4.5,30.9c0,0,0,0,0,0l-11.7,8.7
			c0,0,0,0,0,0c0,0-0.1,0.1-0.1,0.1c0,0,0,0.1-0.1,0.1c0,0,0,0,0,0c-0.1,0.9-0.3,1.9-0.4,2.8c0,0.3,0.1,0.5,0.3,0.5l3.5,4.6
			c0.4,0.5,1.2-0.1,0.8-0.6l-3.6-4.8c0.1-0.7,0.2-1.5,0.3-2.2l11.4-8.5c0.2,0,0.4-0.1,0.5-0.4c1.5-10.4,3-20.8,4.5-31.2
			c0.1-0.2,0.2-0.4,0-0.6l-7.8-10.5C254.4,90.3,254.2,90.2,254.1,90.2z"/>
		<path fill="#FFFFFF" d="M259.2,87.7c-4.7-0.7-9.4-1.4-14.2-2.1c-0.2,0-0.4,0.1-0.5,0.2l-5.7,4.2c-0.5,0.4,0.1,1.2,0.6,0.8l5.6-4.2
			c4.6,0.7,9.1,1.3,13.7,2l3,4c0.4,0.5,1.2-0.1,0.8-0.6l-3.1-4.1C259.5,87.8,259.3,87.7,259.2,87.7z"/>
		<path fill="#FFFFFF" d="M247.4,80.6l-9.9,7.4c-0.5,0.4,0.1,1.2,0.6,0.8l9.9-7.4C248.5,81,247.9,80.2,247.4,80.6z"/>
		<path fill="#FFFFFF" d="M251.3,71.3C251.3,71.2,251.3,71.2,251.3,71.3c-0.2-0.1-0.2-0.2-0.3-0.2c-0.9-0.1-1.7-0.2-2.6-0.3
			c-0.1,0-0.2,0-0.3,0c-0.1,0-0.1,0-0.2,0.1l-2.8,2.1c0,0,0,0,0,0l-3.3,2.4c0,0,0,0,0,0l-9.1,6.8c-0.5,0.4,0.1,1.2,0.6,0.8l8.8-6.6
			c0,0,0,0,0,0l3.5-2.6c0,0,0,0,0,0l2.8-2.1c0.7,0.1,1.5,0.2,2.2,0.3l3.3,4.4c0.4,0.5,1.2-0.1,0.8-0.6L251.3,71.3
			C251.4,71.3,251.4,71.3,251.3,71.3z"/>
		<path fill="#FFFFFF" d="M253.9,68.9c-3.1-0.5-6.3-0.9-9.4-1.4c-0.6-0.1-0.8,0.9-0.1,1c3.1,0.5,6.3,0.9,9.4,1.4
			C254.4,70,254.6,69,253.9,68.9z"/>
		<path fill="#FFFFFF" d="M253.1,65.7c-0.1,0-0.1-0.1-0.2-0.1l-17-2.4l-1.3-1.8c-0.2-0.2-0.4-0.2-0.6-0.1c-0.1,0-0.2,0-0.3,0.1
			l-2.9,2.2c-0.1,0.1-0.2,0.2-0.2,0.4c-0.2,0-0.3,0.2-0.3,0.4c-0.3,1.9-0.6,3.7-0.9,5.6c-0.1,0.3,0.2,0.5,0.4,0.5l2.4,3.3
			c0.4,0.5,1.2-0.1,0.8-0.6l-2.6-3.4c0,0-0.1,0-0.1-0.1c0.3-1.7,0.6-3.5,0.8-5.2c0,0,0,0,0,0c0,0,0.1,0,0.1-0.1l2.6-2l1.2,1.6
			c0.2,0.2,0.4,0.2,0.5,0.2l16.9,2.4l1.4,1.9c0.4,0.5,1.2-0.1,0.8-0.6l-1.5-2C253.3,65.8,253.2,65.7,253.1,65.7z"/>
		<path fill="#FFFFFF" d="M199.9,72.2l-5.3,3.9c-0.5,0.4,0.1,1.2,0.6,0.8l5.3-3.9C201,72.6,200.4,71.8,199.9,72.2z"/>
		<path fill="#FFFFFF" d="M206.6,70.6l-10.4,7.8c-0.5,0.4,0.1,1.2,0.6,0.8l10.4-7.8C207.7,71,207.1,70.2,206.6,70.6z"/>
		<path fill="#FFFFFF" d="M212.8,69.7l-14.5,10.8c-0.5,0.4,0.1,1.2,0.6,0.8l14.5-10.8C214,70.2,213.4,69.3,212.8,69.7z"/>
		<path fill="#FFFFFF" d="M214.8,84.6l2.1,2.8c0.4,0.5,1.2-0.1,0.8-0.6l-2.1-2.8C215.2,83.5,214.4,84.1,214.8,84.6z"/>
		<path fill="#FFFFFF" d="M214.6,79.3l4.7,6.3c0.4,0.5,1.2-0.1,0.8-0.6l-4.7-6.3C215,78.2,214.2,78.8,214.6,79.3z"/>
		<path fill="#FFFFFF" d="M202.5,58.7c-0.1-0.1-0.2-0.3-0.4-0.3c-3.6-0.5-7.2-1-10.8-1.6c-0.1-0.1-0.3-0.1-0.5,0.1l-2.3,1.8
			c-0.5,0.4,0.1,1.2,0.6,0.8l2.2-1.6c3.5,0.5,7,1,10.4,1.5c0,0.3-0.1,0.6-0.1,0.9c0,0,0,0,0,0l-0.8,5.3l-10.2,7.6
			c-0.2,0.1-0.2,0.3-0.2,0.4c-0.1,0.1-0.1,0.3,0.1,0.5l1.5,2c0.4,0.5,1.2-0.1,0.8-0.6l-1.3-1.7l10.1-7.5c0,0,0,0,0,0
			c0,0,0.1-0.1,0.1-0.1c0,0,0-0.1,0.1-0.1c0,0,0,0,0,0c0.3-1.8,0.5-3.6,0.8-5.5c0,0,0,0,0,0c0.1-0.4,0.1-0.8,0.2-1.2
			C202.7,58.9,202.6,58.8,202.5,58.7z"/>
		<path fill="#FFFFFF" d="M213.1,58.1C213.1,58.2,213.1,58.2,213.1,58.1l-4.3,3.2l-5.1-6.9c-0.1-0.1-0.2-0.2-0.3-0.2
			c-0.1-0.1-0.2-0.1-0.3-0.1l-15.8-2.3c0,0,0,0,0,0c-0.2-0.2-0.4-0.2-0.6,0l-2.2,1.7c-0.5,0.4,0.1,1.2,0.6,0.8l2-1.5
			c0,0,0.1,0,0.1,0.1c5.3,0.8,10.5,1.5,15.8,2.3l5.3,7.1c0.1,0.2,0.3,0.2,0.4,0.2c0.1,0.1,0.3,0.1,0.5-0.1l4.2-3.1l4.5,6l-1,6.1
			l-5.7,4.3c-0.1,0-0.1,0.1-0.2,0.2c0,0,0,0.1,0,0.1c0,0,0,0.1,0,0.1c-0.3,2.3-0.7,4.7-1,7c0,0.1,0,0.2,0.1,0.3
			c-0.1,0.2-0.1,0.4,0,0.5l3.7,4.9c0.4,0.5,1.2-0.1,0.8-0.6l-3.6-4.9c0-0.1,0.1-0.1,0.1-0.2c0.3-2.3,0.6-4.5,1-6.8l5.9-4.4
			c0.2-0.2,0.2-0.4,0.1-0.6c0.3-1.9,0.6-3.9,0.9-5.8c0.1-0.2,0.2-0.4,0-0.6l-0.1-0.1c0,0,0,0,0-0.1l-4.9-6.6
			C213.7,57.9,213.3,58,213.1,58.1z"/>
		<path fill="#FFFFFF" d="M194.4,192.1l-5.2,3.9c-0.5,0.4,0.1,1.2,0.6,0.8l5.2-3.9C195.5,192.6,194.9,191.8,194.4,192.1z"/>
		<path fill="#FFFFFF" d="M220.8,173.7l-2.4,1.8c-0.3,0.2-0.2,0.5-0.1,0.7c0,0,0,0.1,0,0.1l0.5,0.7c0,0,0,0,0,0l2,2.7
			c-0.1,0.7-0.2,1.3-0.4,2l-12.6,9.4c0,0,0,0-0.1,0.1c-0.1,0.1-0.2,0.2-0.3,0.4c-0.5,3.4-1,6.7-1.5,10.1l-28.8,21.5l-0.9-1.2
			c0,0,0,0,0,0c0.1-0.1,0.2-0.2,0.2-0.3c0.4-2.9,0.9-5.8,1.3-8.7c0,0,0,0,0,0l12.5-9.3c0.5-0.4-0.1-1.2-0.6-0.8l-12.5,9.3
			c0,0-0.1,0.1-0.1,0.1c-0.2,0-0.3,0.2-0.3,0.4c-0.4,3-0.9,5.9-1.3,8.9c0,0.2,0,0.3,0.1,0.4c-0.2,0.2-0.3,0.4-0.1,0.7l1.2,1.6
			c0.2,0.3,0.6,0.2,0.8,0c0,0,0.1,0,0.1-0.1l29.1-21.7c0.1-0.1,0.1-0.1,0.1-0.2c0.1-0.1,0.1-0.1,0.1-0.3l1.5-10l12.8-9.6
			c0.2-0.2,0.2-0.4,0.2-0.6c0.1-0.7,0.2-1.4,0.4-2.1c0-0.2,0-0.3-0.1-0.4c0,0,0,0,0,0l-2.3-3.1l2-1.5
			C221.9,174.1,221.3,173.3,220.8,173.7z"/>
		<path fill="#FFFFFF" d="M225.1,165.3c-0.2,1.6-0.5,3.2-0.7,4.8c-0.1,0.6,0.9,0.8,1,0.1c0.2-1.6,0.5-3.2,0.7-4.8
			C226.2,164.8,225.2,164.6,225.1,165.3z"/>
		<path fill="#FFFFFF" d="M220.6,159.3l-1.2,0.9c-0.1,0.1-0.2,0.2-0.2,0.3c0,0,0,0,0,0c0,0,0,0,0,0c0,0.1,0,0.2,0.1,0.3l2.6,3.5
			l-0.3,2.2c-0.1,0.6,0.9,0.8,1,0.1c0.1-0.9,0.3-1.8,0.4-2.6c0-0.3-0.2-0.5-0.4-0.6l-2.1-2.8l0.7-0.6
			C221.8,159.7,221.2,158.9,220.6,159.3z"/>
		<path fill="#FFFFFF" d="M208.1,171.8l-3,2.2c-0.5,0.4,0.1,1.2,0.6,0.8l3-2.2C209.2,172.2,208.6,171.4,208.1,171.8z"/>
		<path fill="#FFFFFF" d="M208,156.5l-3.4,2.5c-0.5,0.4,0.1,1.2,0.6,0.8l3.4-2.5C209.1,157,208.5,156.2,208,156.5z"/>
		<path fill="#FFFFFF" d="M195.9,151.3c0-0.2-0.2-0.3-0.4-0.3l-0.1,0c0,0,0,0,0,0c-1.5-0.2-2.9-0.4-4.4-0.6c-0.6-0.1-0.8,0.9-0.1,1
			c1.4,0.2,2.8,0.4,4.2,0.6l11,14.7c0,0,0,0,0,0l-0.2,1.6l-3.4,2.5c-0.5,0.4,0.1,1.2,0.6,0.8l3.5-2.6c0,0,0,0,0-0.1
			c0.1-0.1,0.2-0.2,0.3-0.4l0.3-2c0-0.2-0.1-0.4-0.2-0.4c0,0,0-0.1-0.1-0.1L195.9,151.3z"/>
		<path fill="#FFFFFF" d="M201.6,165.9l-1.7,1.3c-0.5,0.4,0.1,1.2,0.6,0.8l1.7-1.3C202.7,166.3,202.1,165.5,201.6,165.9z"/>
		<path fill="#FFFFFF" d="M246,167.4c-0.1-0.1-0.1-0.1-0.2-0.1c-1.1-0.2-2.2-0.4-3.3-0.5c-0.2,0-0.3,0-0.4,0.1c0,0,0,0,0,0
			l-12.2,9.1c-1-0.1-2.1-0.3-3.1-0.4c0,0,0,0,0,0l-2.1-2.8c-0.4-0.5-1.2,0.1-0.8,0.6l2.1,2.8c0,0,0.1,0.1,0.1,0.1
			c0.1,0.1,0.2,0.3,0.4,0.3l3.5,0.5c0.1,0,0.2,0,0.3-0.1c0,0,0.1,0,0.1,0l12.2-9.1c1,0.2,2,0.3,3,0.5l2,2.6l-2.7,2
			c-0.5,0.4,0.1,1.2,0.6,0.8l3-2.2c0.2-0.1,0.2-0.3,0.2-0.4c0.1-0.1,0.1-0.3-0.1-0.5l-2.3-3C246.2,167.4,246.1,167.4,246,167.4z"/>
		<path fill="#FFFFFF" d="M202.4,192l0.3,0.4c-0.4,2.6-0.7,5.1-1.1,7.7l-7,5.2l-1.8-2.4c-0.4-0.5-1.2,0.1-0.8,0.6l2,2.7
			c0.1,0.1,0.1,0.1,0.2,0.2c0.2,0.1,0.4,0.1,0.6,0l7.4-5.6c0,0,0,0,0.1-0.1c0.1-0.1,0.2-0.2,0.2-0.3c0.4-2.6,0.7-5.2,1.1-7.9
			c0.1-0.2,0.1-0.4,0-0.5l-0.5-0.6C202.9,190.8,202.1,191.4,202.4,192z"/>
		<path fill="#FFFFFF" d="M243.8,108.1l1.6,2.1c0.4,0.5,1.2-0.1,0.8-0.6l-1.6-2.1C244.2,107,243.4,107.6,243.8,108.1z"/>
		<path fill="#FFFFFF" d="M187,164.1l0.5,0.7l-7.2,5.4c-0.3,0.2-0.2,0.7,0.1,0.8c0,0.1,0,0.1,0.1,0.2l0.8,1.1
			c0.4,0.5,1.2-0.1,0.8-0.6l-0.8-1l7.1-5.3c0,0,0,0,0.1-0.1c0.2-0.1,0.3-0.4,0.1-0.7l-0.8-1.1C187.5,163,186.7,163.6,187,164.1z"/>
		<path fill="#FFFFFF" d="M232.4,130.9l1.4,1.8c0.4,0.5,1.2-0.1,0.8-0.6l-1.4-1.8C232.8,129.7,232,130.3,232.4,130.9z"/>
		<path fill="#FFFFFF" d="M235.9,128.4l1.3,1.8c0.4,0.5,1.2-0.1,0.8-0.6l-1.3-1.8C236.3,127.3,235.5,127.9,235.9,128.4z"/>
		<path fill="#FFFFFF" d="M214.6,138.3C214.6,138.2,214.6,138.2,214.6,138.3C214.6,138.2,214.6,138.2,214.6,138.3
			c-0.2,0-0.3,0-0.4,0.1l-13,9.7c-0.5,0-1-0.1-1.5-0.1c-0.6-0.1-0.8,0.9-0.1,1c0.5,0,1.1,0.1,1.6,0.1c0.1,0,0.3,0,0.4-0.1l12.8-9.6
			l0.9,1.2c0.4,0.5,1.2-0.1,0.8-0.6l-1.2-1.6C214.9,138.3,214.7,138.3,214.6,138.3z"/>
		<path fill="#FFFFFF" d="M123.8,96.2c-0.1-0.1-0.2-0.3-0.4-0.3c-2.1-0.3-4.2-0.6-6.3-0.9c-0.2,0-0.3,0.1-0.4,0.2c0,0,0,0-0.1,0
			l-9.7,7.3c-0.5,0.4,0.1,1.2,0.6,0.8l9.7-7.3c1.9,0.3,3.9,0.6,5.8,0.8l10.5,14.1c0.4,0.5,1.2-0.1,0.8-0.6L123.8,96.2
			C123.9,96.3,123.9,96.2,123.8,96.2z"/>
		<path fill="#FFFFFF" d="M135.6,81l-8.7,6.5c-0.2,0-0.4,0.1-0.4,0.4l-1,7c0,0.2,0,0.3,0.2,0.4c0,0,0,0.1,0,0.1l9.6,12.8
			c0.1,0.1,0.1,0.1,0.2,0.2c0.1,0.1,0.1,0.1,0.3,0.1c0.8,0.1,1.7,0.2,2.5,0.4c0,0,0,0,0,0c0.1,0,0.3,0,0.4-0.1l4.3-3.2
			c0.5-0.4-0.1-1.2-0.6-0.8l-4.1,3.1c-0.7-0.1-1.5-0.2-2.2-0.3l-9.5-12.7l0.9-6.4l8.7-6.5C136.8,81.4,136.2,80.6,135.6,81z"/>
		<path fill="#FFFFFF" d="M180.2,84.5l-3.3,2.4c-0.5,0.4,0.1,1.2,0.6,0.8l3.3-2.4C181.3,84.9,180.7,84.1,180.2,84.5z"/>
		<path fill="#FFFFFF" d="M169.9,91.8l-6.2,4.7c-0.5-0.1-1.1-0.2-1.6-0.2c0,0-0.1,0-0.1,0c-0.9-0.1-1.8-0.3-2.6-0.4l-9-12
			c0.3-2.4,0.7-4.9,1-7.3l3.4-2.5c0.5-0.4-0.1-1.2-0.6-0.8l-3.5,2.6c-0.1,0-0.1,0.1-0.1,0.2c-0.1,0.1-0.1,0.1-0.1,0.3
			c-0.3,2.5-0.7,5-1,7.5c0,0,0,0.1,0,0.1c0,0.1,0,0.3,0.1,0.4l9.2,12.2c0,0,0,0,0.1,0.1c0.1,0.1,0.2,0.2,0.3,0.2
			c1,0.1,2.1,0.3,3.1,0.4c0,0,0.1,0,0.1,0c0.5,0.1,0.9,0.1,1.4,0.2c0.1,0,0.2,0,0.3,0c0.1,0,0.2,0,0.3-0.1l6.3-4.7
			C171,92.2,170.4,91.4,169.9,91.8z"/>
		<path fill="#FFFFFF" d="M172,93.4c-0.2,1.4-0.5,2.9-0.7,4.3l-10.3,7.7c-0.2,0-0.4,0.1-0.5,0.4c-0.3,2.3-0.7,4.5-1,6.8
			c0,0.1,0,0.1,0,0.2c0,0.1,0,0.2,0.1,0.3l1,1.4c0,0,0,0,0.1,0.1c0.1,0.2,0.4,0.3,0.7,0.1l5.4-4.1c0.5-0.4-0.1-1.2-0.6-0.8l-5,3.8
			l-0.7-0.9c0.3-2.1,0.6-4.2,0.9-6.4l10.6-7.9c0.1-0.1,0.2-0.2,0.2-0.3c0-0.1,0.1-0.1,0.1-0.2c0.3-1.5,0.5-2.9,0.8-4.4
			C173.1,93,172.1,92.8,172,93.4z"/>
		<path fill="#FFFFFF" d="M182.3,108.7l1.9,2.6c0.4,0.5,1.2-0.1,0.8-0.6l-1.9-2.6C182.7,107.6,181.9,108.2,182.3,108.7z"/>
		<path fill="#FFFFFF" d="M174.9,118l-4.9,3.6l-1.9-2.5c-0.4-0.5-1.2,0.1-0.8,0.6l2.1,2.8c0,0,0.1,0.1,0.1,0.1
			c0.1,0.2,0.4,0.4,0.7,0.1l5.3-3.9C176,118.4,175.4,117.6,174.9,118z"/>
		<path fill="#FFFFFF" d="M142.1,82.6c0.1-0.6-0.9-0.8-1-0.1c-0.4,2.5-0.7,5-1.1,7.5c0,0,0,0,0,0.1c0,0.1,0,0.3,0.1,0.4l1.6,2.1
			c0.1,0.1,0.2,0.1,0.3,0.2c0.2,0.1,0.4,0.1,0.5,0l2.5-1.9l6.9,9.3c0,0,0,0,0,0c-0.4,2.5-0.7,5.1-1.1,7.6c-0.1,0.6,0.9,0.8,1,0.1
			c0.4-2.5,0.7-5.1,1.1-7.6c0,0,0,0,0-0.1c0.1-0.1,0.1-0.3,0-0.5l-7.3-9.7c0,0-0.1,0-0.1-0.1c-0.1-0.2-0.4-0.3-0.7-0.1l-2.5,1.9
			l-1.2-1.6C141.4,87.5,141.7,85,142.1,82.6z"/>
		<path fill="#FFFFFF" d="M208.2,78.6c-0.4,0-0.8-0.1-1.2-0.1c-0.1,0-0.2,0-0.3,0.1c-0.1,0-0.2,0-0.3,0.1l-6.4,4.8
			c-0.5,0.4,0.1,1.2,0.6,0.8l6.4-4.8c0.2,0,0.4,0,0.6,0.1c-0.4,2.5-0.7,4.9-1.1,7.4l-0.4,0.3c0,0,0,0,0,0c0,0,0,0,0,0l-14.9,11.1
			l-2.4-3.2c-0.2-0.3-0.5-0.2-0.7-0.1c0,0-0.1,0-0.1,0.1l-9.6,7.2c-0.2,0.2-0.2,0.4-0.2,0.6c-0.1,0.2-0.2,0.4,0,0.6l2,2.6
			c0.4,0.5,1.2-0.1,0.8-0.6l-1.9-2.5l9.2-6.9l2.1,2.9c0.1,0.1,0.1,0.1,0.2,0.2c0.1,0.3,0.4,0.6,0.8,0.3L206.7,88c0,0,0,0,0,0
			c0,0,0,0,0,0l0.6-0.4c0,0,0,0,0,0c0.1-0.1,0.2-0.2,0.2-0.3l1.2-8.1c0-0.1,0-0.2,0-0.3C208.6,78.7,208.4,78.6,208.2,78.6z"/>
		<path fill="#FFFFFF" d="M152.7,71.9l-4.7,3.5c-0.1,0.1-0.2,0.2-0.2,0.3l-1.5,9.6c0,0.2,0.1,0.4,0.2,0.5c0,0,0,0.1,0.1,0.1
			l9.8,13.1c0.1,0.1,0.1,0.1,0.2,0.2c-0.4,2.3-0.7,4.5-1.1,6.8c0,0,0,0,0,0l-3.1,2.3c-0.5,0.4,0.1,1.2,0.6,0.8l3.1-2.3
			c0.1-0.1,0.2-0.2,0.2-0.3c0.1-0.1,0.2-0.2,0.2-0.3c0.4-2.4,0.7-4.7,1.1-7.1c0-0.3-0.2-0.5-0.4-0.5c0,0,0,0,0-0.1l-9.8-13.1
			c0,0,0,0,0,0c0.5-3.1,0.9-6.2,1.4-9.2l4.6-3.4C153.8,72.3,153.2,71.5,152.7,71.9z"/>
		<path fill="#FFFFFF" d="M141.4,110.3l-3.8,2.8c-0.5,0.4,0.1,1.2,0.6,0.8l3.8-2.8C142.5,110.7,141.9,109.9,141.4,110.3z"/>
		<path fill="#FFFFFF" d="M147.7,112l-3.9,2.9c-0.5,0.4,0.1,1.2,0.6,0.8l3.9-2.9C148.8,112.4,148.2,111.6,147.7,112z"/>
	</g>
</g>
</svg>
