<!-- Generator: Adobe Illustrator 18.0.0, SVG Export Plug-In  -->
<svg version="1.1"
	 xmlns="http://www.w3.org/2000/svg" xmlns:xlink="http://www.w3.org/1999/xlink" xmlns:a="http://ns.adobe.com/AdobeSVGViewerExtensions/3.0/"
	 x="0px" y="0px" width="55.6px" height="62.3px" viewBox="0 0 55.6 62.3" enable-background="new 0 0 55.6 62.3"
	 xml:space="preserve">
<defs>
</defs>
<g id="start_1_">
	<path fill="#FFFFFF" d="M27.8,62.3c-2.2,0-4.2-1.2-6.1-3.4c-1.8-2.2-3.3-5.1-4.4-8.6l-0.2-0.5l-0.5,0.1c-2.3,0.5-4.4,0.7-6.4,0.7
		c-1.2,0-2.3-0.1-3.4-0.3c-2.9-0.5-4.9-1.7-6-3.5c-1.1-1.9-1.1-4.2-0.1-7c1-2.6,2.7-5.4,5.2-8.2l0.4-0.4L6,30.7
		c-2.5-2.8-4.3-5.6-5.3-8.2c-1-2.7-1-5.1,0.1-7c1.1-1.9,3.1-3.1,6-3.5c1-0.2,2.2-0.2,3.3-0.2c1.9,0,4.1,0.2,6.4,0.7l0.5,0.1l0.2-0.5
		c1.2-3.5,2.6-6.5,4.4-8.6C23.6,1.2,25.6,0,27.8,0C30,0,32,1.2,33.9,3.4c1.8,2.2,3.3,5.1,4.5,8.6l0.2,0.5l0.5-0.1
		c2.3-0.4,4.4-0.7,6.3-0.7c1.2,0,2.3,0.1,3.4,0.3c2.9,0.5,4.9,1.6,6,3.5c1.1,1.9,1.1,4.2,0,7c-1,2.6-2.8,5.4-5.2,8.2l-0.4,0.4
		l0.4,0.4c2.5,2.8,4.2,5.6,5.2,8.2c1,2.7,1,5.1,0,7c-1.1,1.9-3.1,3.1-6,3.5c-1,0.2-2.1,0.2-3.2,0.2c-2,0-4.1-0.2-6.5-0.7l-0.5-0.1
		l-0.2,0.5c-1.2,3.6-2.7,6.5-4.5,8.6C32,61.1,30,62.3,27.8,62.3z M27.6,46.2c-2.6,1.2-5.4,2.2-8,2.9l-0.6,0.2l0.2,0.6
		c1,3.2,2.2,5.8,3.7,7.7c1.5,2.1,3.2,3.1,5,3.1s3.5-1,5.1-3.1c1.5-1.9,2.7-4.5,3.7-7.7l0.2-0.6l-0.6-0.2c-2.7-0.7-5.4-1.7-8-2.9
		l-0.3-0.1L27.6,46.2z M47.5,32.9c-2,1.9-4.2,3.8-6.6,5.6l-0.2,0.2l0,0.3c-0.3,2.9-0.8,5.7-1.5,8.4L39,48l0.6,0.1
		c2.3,0.5,4.5,0.8,6.4,0.8c0.8,0,1.5,0,2.2-0.1c2.6-0.3,4.3-1.3,5.2-2.8c0.9-1.5,0.8-3.5-0.2-5.9c-1-2.2-2.6-4.6-4.8-7.1L48,32.5
		L47.5,32.9z M7.2,32.9c-2.2,2.4-3.9,4.8-4.8,7.1c-1,2.4-1.1,4.4-0.2,5.9c0.9,1.6,2.7,2.5,5.2,2.8c0.7,0.1,1.4,0.1,2.2,0.1
		c1.9,0,4-0.3,6.4-0.8l0.6-0.1l-0.2-0.6c-0.7-2.7-1.2-5.5-1.5-8.4l0-0.3l-0.2-0.2c-2.4-1.8-4.6-3.7-6.6-5.6l-0.5-0.5L7.2,32.9z
		 M37.5,40.9c-0.9,0.6-1.9,1.2-3,1.8c-1.1,0.7-2.1,1.2-3.1,1.7L30.2,45l1.3,0.5c1.8,0.7,3.5,1.3,5.2,1.8l0.6,0.2l0.2-0.6
		c0.4-1.6,0.7-3.4,1-5.3l0.2-1.3L37.5,40.9z M17.2,41.5c0.2,1.8,0.6,3.6,1,5.3l0.1,0.6l0.6-0.2c1.6-0.5,3.4-1.1,5.2-1.8l1.3-0.5
		l-1.2-0.6c-1.1-0.6-2.2-1.1-3.1-1.7c-1-0.5-2-1.1-3-1.8L17,40.2L17.2,41.5z M27.5,18.5c-1.8,0.9-3.7,1.8-5.4,2.8
		c-1.9,1.2-3.7,2.3-5.2,3.3l-0.2,0.2l0,0.3c-0.2,1.7-0.2,3.8-0.2,6.1c0,2.3,0.1,4.3,0.2,6.1l0,0.3l0.2,0.2c1.4,1,3.1,2.1,5.1,3.3
		c1.8,1.1,3.6,2,5.5,2.9l0.3,0.1l0.3-0.1c1.9-0.9,3.7-1.8,5.4-2.9c1.9-1.1,3.6-2.2,5.1-3.2l0.2-0.2l0-0.3c0.2-1.8,0.2-3.8,0.2-6.1
		c0-2.3-0.1-4.3-0.2-6.1l0-0.3l-0.2-0.2c-1.6-1.1-3.4-2.2-5.2-3.2c-1.8-1-3.6-1.9-5.4-2.8l-0.3-0.1L27.5,18.5z M41.1,27.7
		c0.1,1.3,0.1,2.4,0.1,3.4c0,1.1,0,2.3-0.1,3.6L41,36.2l1.1-0.9c0.6-0.5,1.3-1.1,1.9-1.6c0.8-0.7,1.5-1.4,2.2-2l0.5-0.5l-0.5-0.4
		c-1.2-1.1-2.6-2.3-4.1-3.5L41,26.3L41.1,27.7z M13.5,27.2c-1.5,1.1-2.9,2.3-4.1,3.5L9,31.2l0.5,0.4c1.2,1.2,2.6,2.4,4.2,3.6
		l1.1,0.8l-0.1-1.4c-0.1-1.1-0.1-2.3-0.1-3.5c0-0.8,0-1.6,0-2.4c0-0.3,0-0.7,0-1l0.1-1.3L13.5,27.2z M46,13.4c-1.9,0-4,0.3-6.4,0.8
		L39,14.4l0.2,0.6c0.7,2.6,1.2,5.5,1.6,8.5l0,0.3l0.2,0.2c2.3,1.7,4.5,3.6,6.5,5.5l0.5,0.4l0.4-0.5c2.3-2.5,3.9-4.8,4.8-7.1
		c1-2.4,1.1-4.4,0.2-5.9c-0.9-1.5-2.7-2.5-5.2-2.8C47.5,13.5,46.8,13.4,46,13.4z M9.7,13.4c-0.8,0-1.6,0-2.3,0.1
		c-2.6,0.3-4.3,1.3-5.2,2.8c-0.9,1.6-0.9,3.5,0.2,5.9c1,2.2,2.6,4.6,4.9,7.1l0.4,0.5l0.5-0.5c1.9-1.9,4.2-3.8,6.6-5.6l0.2-0.2l0-0.3
		c0.3-2.9,0.8-5.7,1.5-8.5l0.2-0.6L16,14.1C13.7,13.7,11.6,13.4,9.7,13.4z M36.6,15c-1.6,0.5-3.3,1.1-5.2,1.8l-1.3,0.5l1.2,0.6
		c1.2,0.6,2.2,1.2,3,1.7c1.1,0.6,2.1,1.2,3,1.8l1.1,0.7l-0.2-1.4c-0.3-1.8-0.6-3.6-1-5.4l-0.2-0.6L36.6,15z M18.2,15.4
		c-0.4,1.7-0.8,3.6-1,5.4L17,22.2l1.2-0.7c0.9-0.6,1.9-1.2,3-1.8c0.9-0.6,1.9-1.1,3-1.7l1.2-0.6l-1.3-0.5c-1.7-0.7-3.4-1.3-5.1-1.8
		l-0.6-0.2L18.2,15.4z M27.8,1.6c-1.8,0-3.5,1.1-5,3.1c-1.5,2-2.7,4.5-3.7,7.7L18.9,13l0.6,0.2c2.6,0.8,5.4,1.7,8.1,2.9l0.2,0.1
		l0.2-0.1c2.9-1.2,5.6-2.2,8.1-2.9l0.6-0.2l-0.2-0.6c-1-3.2-2.3-5.8-3.7-7.7C31.3,2.6,29.6,1.6,27.8,1.6z"/>
	<circle fill="#FFFFFF" cx="27.8" cy="31.1" r="4"/>
</g>
</svg>
