<!-- Generator: Adobe Illustrator 18.0.0, SVG Export Plug-In  -->
<svg version="1.1"
	 xmlns="http://www.w3.org/2000/svg" xmlns:xlink="http://www.w3.org/1999/xlink" xmlns:a="http://ns.adobe.com/AdobeSVGViewerExtensions/3.0/"
	 x="0px" y="0px" width="47.7px" height="47.7px" viewBox="0 0 47.7 47.7" enable-background="new 0 0 47.7 47.7"
	 xml:space="preserve">
<defs>
</defs>
<g>
	<path fill="#FFFFFF" d="M17.8,4.1L17.8,4.1c3.7,0,7.1,1.4,9.7,4c5.3,5.3,5.3,14.1,0,19.4c-2.6,2.6-6,4-9.7,4c-3.7,0-7.1-1.4-9.7-4
		c-5.3-5.3-5.3-14.1,0-19.4C10.7,5.6,14.2,4.1,17.8,4.1 M31,31.1l3.6,3.6l1.4,1.4l1.4-1.4l7.7,7.7l-2.8,2.8l-7.7-7.7l1.4-1.4
		l-1.4-1.4L31,31.1C31,31.1,31,31.1,31,31.1 M17.8,0C13.3,0,8.7,1.7,5.2,5.2c-7,7-7,18.3,0,25.2c3.5,3.5,8,5.2,12.6,5.2
		c3.9,0,7.9-1.3,11.1-3.9l4.3,4.3L32.3,37c-0.3,0.3-0.3,0.7,0,0.9l9.6,9.6c0.1,0.1,0.3,0.2,0.5,0.2c0.2,0,0.3-0.1,0.5-0.2l4.7-4.7
		c0.3-0.3,0.3-0.7,0-0.9l-9.6-9.6c-0.1-0.1-0.3-0.2-0.5-0.2s-0.3,0.1-0.5,0.2l-0.9,0.9L31.8,29c5.6-7,5.2-17.3-1.3-23.8
		C27,1.7,22.4,0,17.8,0L17.8,0z M17.8,34.5c-4.3,0-8.5-1.6-11.8-4.9C-0.5,23.1-0.5,12.6,6,6c3.3-3.3,7.5-4.9,11.8-4.9
		c4.3,0,8.5,1.6,11.8,4.9c6.5,6.5,6.5,17.1,0,23.6C26.4,32.9,22.1,34.5,17.8,34.5L17.8,34.5z M17.8,2.1c-4,0-8,1.5-11.1,4.6
		c-6.1,6.1-6.1,16.1,0,22.2c3.1,3.1,7.1,4.6,11.1,4.6c4,0,8-1.5,11.1-4.6c6.1-6.1,6.1-16.1,0-22.2C25.9,3.7,21.9,2.1,17.8,2.1
		L17.8,2.1z"/>
</g>
</svg>
