<!-- Generator: Adobe Illustrator 18.0.0, SVG Export Plug-In  -->
<svg version="1.1"
	 xmlns="http://www.w3.org/2000/svg" xmlns:xlink="http://www.w3.org/1999/xlink" xmlns:a="http://ns.adobe.com/AdobeSVGViewerExtensions/3.0/"
	 x="0px" y="0px" width="28.5px" height="28.5px" viewBox="0 0 28.5 28.5" enable-background="new 0 0 28.5 28.5"
	 xml:space="preserve">
<defs>
</defs>
<path fill="#FFFFFF" d="M20.6,11c-0.1,0.4-0.7,0.9-1.1,1.2c0.4,5.7-6.1,9.3-10.8,6.4c1.3,0,2.8-0.4,3.6-1.1c-1.1-0.2-2-0.7-2.3-1.7
	c0.3,0,0.8,0.1,1-0.1c-1-0.4-1.9-1-1.9-2.4c0.4,0,0.6,0.3,1,0.2c-0.7-0.4-1.4-2.1-0.8-3.3c1.2,1.4,2.8,2.4,5.2,2.6
	c-0.6-2.5,2.8-4.1,4.3-2.3c0.6-0.1,1.1-0.3,1.6-0.5c-0.2,0.6-0.6,0.9-1,1.3C19.8,11.2,20.3,11.2,20.6,11"/>
<circle fill="none" stroke="#FFFFFF" stroke-width="0.75" stroke-miterlimit="10" cx="14.2" cy="14.2" r="13.9"/>
</svg>
