<!-- Generator: Adobe Illustrator 18.0.0, SVG Export Plug-In  -->
<svg version="1.1"
	 xmlns="http://www.w3.org/2000/svg" xmlns:xlink="http://www.w3.org/1999/xlink" xmlns:a="http://ns.adobe.com/AdobeSVGViewerExtensions/3.0/"
	 x="0px" y="0px" width="57.5px" height="90.7px" viewBox="0 0 57.5 90.7" enable-background="new 0 0 57.5 90.7"
	 xml:space="preserve">
<defs>
</defs>
<g>
	<g>
		<path fill="#FFFFFF" d="M7.6,2L50,2c1.5,0,2.9,0.6,3.9,1.6s1.6,2.4,1.6,3.9l0,75.6c0,3.1-2.5,5.5-5.6,5.5l-42.4,0
			c-1.5,0-2.9-0.6-3.9-1.6c-1-1-1.6-2.4-1.6-3.9L2,7.5C2,4.5,4.5,2,7.6,2L7.6,2 M7.6,0C3.4,0,0,3.4,0,7.5l0,75.6
			c0,4.2,3.4,7.5,7.5,7.6l42.4,0c0,0,0,0,0,0c4.2,0,7.5-3.4,7.5-7.5l0-75.6C57.5,3.4,54.2,0,50,0L7.6,0C7.6,0,7.6,0,7.6,0L7.6,0z"/>
	</g>
</g>
<g>
	<g>
		<path fill="#FFFFFF" d="M9.2,9.4l38.7,0l0,62.2l-38.7,0L9.2,9.4 M7.2,7.4l0,66.2l42.7,0l0-66.2L7.2,7.4L7.2,7.4z"/>
	</g>
</g>
<g>
	<g>
		<path fill="#FFFFFF" d="M28.5,78.5c1.4,0,2.6,1.2,2.6,2.6c0,1.4-1.2,2.6-2.6,2.6c-1.4,0-2.6-1.2-2.6-2.6
			C26,79.7,27.1,78.5,28.5,78.5L28.5,78.5 M28.5,76.5c-2.5,0-4.6,2-4.6,4.6c0,2.5,2,4.6,4.6,4.6c0,0,0,0,0,0c2.5,0,4.6-2,4.6-4.6
			C33.1,78.6,31.1,76.5,28.5,76.5C28.5,76.5,28.5,76.5,28.5,76.5L28.5,76.5z"/>
	</g>
</g>
</svg>
