<!-- Generator: Adobe Illustrator 18.0.0, SVG Export Plug-In  -->
<svg version="1.1"
	 xmlns="http://www.w3.org/2000/svg" xmlns:xlink="http://www.w3.org/1999/xlink" xmlns:a="http://ns.adobe.com/AdobeSVGViewerExtensions/3.0/"
	 x="0px" y="0px" width="55.8px" height="55.8px" viewBox="0 0 55.8 55.8" enable-background="new 0 0 55.8 55.8"
	 xml:space="preserve">
<defs>
</defs>
<g>
	<path fill="#FFFFFF" d="M34.9,2c2.4,0,5,2.6,5,5v14c0,2.4-2.6,5-5,5H17.4c-0.5,0-1,0.2-1.4,0.6L9,33.5v-5.6c0-1.1-0.9-2-2-2
		c-2.4,0-5-2.6-5-5V7c0-2.4,2.6-5,5-5H34.9 M48.8,19.4c2.4,0,5,2.6,5,5v14c0,2.4-2.6,5-5,5c-1.1,0-2,0.9-2,2V51l-7.1-7.1
		c-0.4-0.4-0.9-0.6-1.4-0.6H20.9c-2.4,0-5-2.6-5-5v-1.2l3.8-3.8h15.2c6.5,0,12.5-5.9,12.5-12.5v-1.5H48.8 M34.9,0H7C3.5,0,0,3.5,0,7
		v14c0,3.5,3.5,7,7,7v10.5l10.5-10.5h17.4c3.5,0,7-3.5,7-7V7C41.9,3.5,38.4,0,34.9,0L34.9,0z M48.8,17.4h-3.5v3.5
		c0,5.4-5.1,10.5-10.5,10.5h-16L14,36.3v2c0,3.5,3.5,7,7,7h17.4l10.5,10.5V45.4c3.5,0,7-3.5,7-7v-14C55.8,20.9,52.3,17.4,48.8,17.4
		L48.8,17.4z"/>
</g>
</svg>
