<!-- Generator: Adobe Illustrator 18.0.0, SVG Export Plug-In  -->
<svg version="1.1"
	 xmlns="http://www.w3.org/2000/svg" xmlns:xlink="http://www.w3.org/1999/xlink" xmlns:a="http://ns.adobe.com/AdobeSVGViewerExtensions/3.0/"
	 x="0px" y="0px" width="58.4px" height="65px" viewBox="0 0 58.4 65" enable-background="new 0 0 58.4 65" xml:space="preserve">
<defs>
</defs>
<g>
	<path fill="#FFFFFF" d="M29.2,20.3l0.2,0c3.6,0.1,7.4,1.6,9.3,3.5c1.9,1.9,2.9,4.1,2.9,6.1c-0.1,3.7-1.5,6-2.6,7.8
		c-0.1,0.2-0.2,0.3-0.3,0.5c-2.9,4.8-4.3,8.4-4.3,11.1V50H23.9v-0.8c0-2.7-1.4-6.3-4.3-11.1c-0.1-0.2-0.2-0.3-0.3-0.5
		c-1.1-1.8-2.5-4-2.6-7.7c0-2,1-4.3,2.9-6.1c1.9-1.9,5.8-3.4,9.3-3.5L29.2,20.3L29.2,20.3L29.2,20.3 M29.5,18.3c-0.1,0-0.2,0-0.3,0
		c-0.1,0-0.2,0-0.3,0c0,0,0,0,0,0c-4.2,0.2-8.4,1.9-10.7,4.1c-2.3,2.3-3.5,5.1-3.4,7.6c0.1,4.7,2,7.4,3.2,9.2c2,3.3,4,7.3,4,10
		c0,2.8,0,2.8,0,2.8h14.5c0,0,0,0,0-2.8c0-2.8,2-6.8,4-10c1.1-1.9,3-4.6,3.2-9.2c0.1-2.5-1.1-5.3-3.4-7.6
		C37.9,20.2,33.6,18.5,29.5,18.3C29.5,18.3,29.5,18.3,29.5,18.3L29.5,18.3z"/>
</g>
<g>
	<path fill="#FFFFFF" d="M34.6,55.5c-0.2,0.2-0.3,0.4-0.4,0.7c-0.1,0.5,0.1,1.1,0.5,1.5c-0.6,0.1-1,0.4-1.3,0.9
		c-0.1,0.3-0.1,0.7,0,1c-0.4,0.1-0.7,0.4-0.9,0.7l-1.8,3.2h-2.9l-1.8-3.2c-0.2-0.3-0.5-0.6-0.9-0.7c0.1-0.3,0.1-0.7,0-1
		c-0.2-0.5-0.7-0.9-1.3-0.9c0.4-0.4,0.6-0.9,0.5-1.5c-0.1-0.3-0.2-0.5-0.4-0.7H34.6 M35.5,54H22.9c-0.7,0-1.3,0.6-1.3,1.3
		c0,0.7,0.5,1.2,1.2,1.3c-0.4,0.2-0.6,0.7-0.6,1.2c0,0.8,0.5,1.4,1.2,1.4h0.3c-0.2,0.2-0.3,0.5-0.3,0.8c0,0.6,0.5,1.1,1,1.1h0.3
		l2.3,3.9h4.7l2.3-3.9h0.3c0.6,0,1-0.5,1-1.1c0-0.3-0.1-0.6-0.3-0.8H35c0.7,0,1.2-0.6,1.2-1.4c0-0.5-0.3-1-0.6-1.2
		c0.6-0.1,1.2-0.6,1.2-1.3C36.8,54.6,36.2,54,35.5,54L35.5,54z"/>
</g>
<line fill="none" stroke="#FFFFFF" stroke-width="2" stroke-miterlimit="10" x1="29.2" y1="8.4" x2="29.2" y2="0"/>
<g>
	<line fill="none" stroke="#FFFFFF" stroke-width="2" stroke-miterlimit="10" x1="8.1" y1="22.5" x2="0.4" y2="19"/>
	<line fill="none" stroke="#FFFFFF" stroke-width="2" stroke-miterlimit="10" x1="50.3" y1="22.5" x2="58" y2="19"/>
</g>
<g>
	<line fill="none" stroke="#FFFFFF" stroke-width="2" stroke-miterlimit="10" x1="15.9" y1="12" x2="11.3" y2="4.9"/>
	<line fill="none" stroke="#FFFFFF" stroke-width="2" stroke-miterlimit="10" x1="42.4" y1="12" x2="47" y2="4.9"/>
</g>
</svg>
