<!-- Generator: Adobe Illustrator 18.0.0, SVG Export Plug-In  -->
<svg version="1.1"
	 xmlns="http://www.w3.org/2000/svg" xmlns:xlink="http://www.w3.org/1999/xlink" xmlns:a="http://ns.adobe.com/AdobeSVGViewerExtensions/3.0/"
	 x="0px" y="0px" width="28.5px" height="28.5px" viewBox="0 0 28.5 28.5" enable-background="new 0 0 28.5 28.5"
	 xml:space="preserve">
<defs>
</defs>
<path fill="#FFFFFF" d="M11.8,10.7c0.1-0.3,0.3-0.4,0.6-0.4c0.3-0.1,0.6-0.1,0.9-0.1c0.5,0,1,0,1.4,0.1c0.5,0.1,0.7,0.2,0.7,0.8
	c0,0.6,0,1.3,0,1.9c0,0.2,0,0.4,0,0.6c0,0.1,0,0.3,0.1,0.4c0.1,0.3,0.3,0.3,0.5,0.1c0.3-0.3,0.6-0.7,0.9-1.1c0.4-0.6,0.7-1.3,1-2
	c0.2-0.4,0.2-0.4,0.6-0.4c0.7,0,1.5,0,2.2,0c0.6,0,0.8,0.2,0.5,0.8c-0.3,0.6-0.7,1.2-1.1,1.7c-0.3,0.4-0.6,0.8-0.9,1.3
	c-0.3,0.4-0.3,0.6,0.1,1c0.4,0.4,0.8,0.7,1.1,1.1c0.3,0.3,0.6,0.6,0.8,1c0.3,0.5,0.1,0.8-0.4,0.8c-0.7,0-1.5,0-2.2,0
	c0,0-0.1,0-0.1,0c-0.4-0.1-0.7-0.3-1-0.6c-0.4-0.4-0.7-0.8-1.1-1.1c-0.4-0.4-0.7-0.3-0.9,0.2c-0.1,0.3-0.1,0.6-0.2,0.8
	c0,0.3-0.2,0.4-0.5,0.4c-0.4,0-0.9,0-1.3,0c-1.1-0.1-2.1-0.5-2.9-1.3c-0.6-0.6-1.1-1.3-1.6-2c-0.8-1.2-1.4-2.5-2-3.8
	c-0.2-0.4-0.1-0.6,0.3-0.6c0.7,0,1.4,0,2,0c0.3,0,0.5,0.2,0.6,0.4c0.3,0.8,0.7,1.6,1.2,2.3c0.2,0.3,0.4,0.5,0.6,0.7
	c0.3,0.3,0.5,0.2,0.6-0.2c0.1-0.2,0.1-0.5,0.1-0.7c0-0.4,0-0.9,0-1.3C12.7,11.1,12.5,10.9,11.8,10.7"/>
<circle fill="none" stroke="#FFFFFF" stroke-width="0.75" stroke-miterlimit="10" cx="14.2" cy="14.2" r="13.9"/>
</svg>
