<!-- Generator: Adobe Illustrator 18.0.0, SVG Export Plug-In  -->
<svg version="1.1"
	 xmlns="http://www.w3.org/2000/svg" xmlns:xlink="http://www.w3.org/1999/xlink" xmlns:a="http://ns.adobe.com/AdobeSVGViewerExtensions/3.0/"
	 x="0px" y="0px" width="446.2px" height="446.2px" viewBox="0 0 446.2 446.2" enable-background="new 0 0 446.2 446.2"
	 xml:space="preserve">
<defs>
</defs>
<circle fill="none" stroke="#FFFFFF" stroke-miterlimit="10" cx="223.1" cy="223.1" r="196.3"/>
<g>
	<path fill="none" stroke="#FFFFFF" stroke-miterlimit="10" d="M289.5,253.4c-14.5-7.3-29-14.6-43.5-21.9c-0.7-0.8-1.6-1.4-2.2-2.3
		c-2.5-3-2.9-6.5-2.3-10.1c19.6-39,39.2-78,58.7-117c4.9-5,9.5-5.8,15.8-2.6c12.9,6.5,25.8,12.9,38.7,19.4c6.1,3.1,8.3,9.8,5.3,16
		c-18.8,37.5-37.6,74.9-56.4,112.4c-0.3,0.7-0.7,1.4-1.2,2C298.9,253.5,294.6,254.7,289.5,253.4z M272.4,161.2
		c-8.3,16.5-16.6,33.1-24.9,49.6c-1.2,2.4-1.2,2.4,1.2,3.6c17.4,8.7,34.8,17.5,52.2,26.2c3,1.5,3,1.5,4.5-1.5
		c13.1-26.1,26.3-52.3,39.4-78.4c3.4-6.9,6.9-13.7,10.3-20.6c0.6-1.2,0.6-1.9-0.7-2.6c-1.2-0.6-2.3-1.2-3.5-1.8
		c-4.1-2-8.3-4.1-12.4-6.2c-4.6-2.3-9.2-4.6-13.8-6.9c-4.2-2.1-8.4-4.2-12.6-6.4c-4.1-2.1-8.2-4.2-12.3-6.2c-1-0.5-1.7-0.3-2.1,0.7
		c-0.3,0.7-0.7,1.3-1,2C288.7,128.9,280.5,145,272.4,161.2z M266.7,232.7c-1.4,2.8-0.4,6.1,2.4,7.5c2.8,1.4,6,0.4,7.5-2.4
		c1.4-2.7,0.4-6.1-2.2-7.4C271.4,228.7,268.2,229.7,266.7,232.7z M330,117.7c1.2,0.6,2.3,1.2,3.5,1.8c0.5,0.2,1.1,0.5,1.4-0.1
		c0.3-0.6-0.2-1-0.7-1.2c-2.3-1.2-4.7-2.4-7-3.5c-0.5-0.2-1-0.4-1.3,0.2c-0.3,0.6,0.2,1,0.7,1.2C327.8,116.6,328.9,117.2,330,117.7z
		"/>
</g>
<circle fill="none" stroke="#FFFFFF" stroke-miterlimit="10" cx="223.1" cy="223.1" r="222.6"/>
<path fill="#FFFFFF" d="M220.8,289.6c-0.1,0-0.2,0.1-0.3,0.1c-0.2,0.2-0.2,0.5,0,0.7c0.2,0.2,0.5,0.5,0.7,0.7
	c0.1,0.1,0.2,0.1,0.4,0.1c0.1,0,0.2-0.1,0.3-0.1c0.2-0.2,0.2-0.5,0-0.7l-0.7-0.7C221.1,289.6,220.9,289.6,220.8,289.6L220.8,289.6z
	 M217.2,286.1c-0.1,0-0.2,0.1-0.3,0.2c-0.2,0.2-0.2,0.5,0,0.7c0.2,0.2,0.4,0.4,0.6,0.6l0,0l0,0c0,0,0.1,0.1,0.1,0.1c0,0,0,0,0,0
	c0.1,0.1,0.2,0.1,0.4,0.1c0.1,0,0.2-0.1,0.3-0.2c0.2-0.2,0.2-0.5,0-0.7l-0.1-0.1l-0.6-0.6C217.5,286.1,217.4,286.1,217.2,286.1
	L217.2,286.1z M213.6,282.6c-0.1,0-0.3,0.1-0.3,0.2c-0.2,0.2-0.2,0.5,0,0.7c0.1,0.1,0.2,0.1,0.2,0.2c0,0,0,0,0,0c0,0,0,0,0,0
	c0,0,0,0,0,0c0,0,0,0,0,0c0,0,0,0,0,0c0,0,0,0,0,0c0,0,0,0,0,0c0.1,0.1,0.2,0.2,0.4,0.3c0.1,0.1,0.2,0.1,0.4,0.1
	c0.1,0,0.3-0.1,0.3-0.2c0.2-0.2,0.2-0.5,0-0.7l-0.7-0.7C213.9,282.7,213.7,282.6,213.6,282.6L213.6,282.6z M209.9,279.2
	c-0.1,0-0.3,0.1-0.4,0.2c-0.2,0.2-0.2,0.5,0,0.7c0.2,0.2,0.5,0.4,0.7,0.7c0.1,0.1,0.2,0.1,0.4,0.1c0.1,0,0.3-0.1,0.4-0.2
	c0.2-0.2,0.2-0.5,0-0.7l-0.7-0.7C210.2,279.3,210,279.2,209.9,279.2L209.9,279.2z M206.1,275.9c-0.1,0-0.3,0.1-0.4,0.2
	c-0.2,0.2-0.2,0.5,0.1,0.7c0.1,0.1,0.2,0.2,0.3,0.2c0,0,0,0,0,0c0,0,0,0,0,0c0,0,0,0,0,0c0,0,0,0,0,0c0,0,0,0,0,0
	c0.1,0.1,0.3,0.2,0.4,0.3c0.1,0.1,0.2,0.1,0.3,0.1c0.1,0,0.3-0.1,0.4-0.2c0.2-0.2,0.2-0.5-0.1-0.7c-0.3-0.2-0.5-0.4-0.8-0.7
	C206.4,276,206.3,275.9,206.1,275.9L206.1,275.9z M202.3,272.7c-0.1,0-0.3,0.1-0.4,0.2c-0.2,0.2-0.1,0.5,0.1,0.7
	c0,0,0.1,0.1,0.1,0.1c0.2,0.2,0.4,0.3,0.6,0.5c0,0,0,0,0,0c0,0,0,0,0,0c0,0,0,0,0,0c0.1,0.1,0.2,0.1,0.3,0.1c0.1,0,0.3-0.1,0.4-0.2
	c0.2-0.2,0.1-0.5-0.1-0.7c-0.3-0.2-0.5-0.4-0.8-0.6C202.5,272.8,202.4,272.7,202.3,272.7L202.3,272.7z M198.3,269.7
	c-0.1,0-0.3,0.1-0.4,0.2c-0.2,0.2-0.1,0.5,0.1,0.7c0.3,0.2,0.5,0.4,0.8,0.6c0.1,0.1,0.2,0.1,0.3,0.1c0.1,0,0.3-0.1,0.4-0.2
	c0.2-0.2,0.1-0.5-0.1-0.7c-0.3-0.2-0.5-0.4-0.8-0.6C198.5,269.7,198.4,269.7,198.3,269.7L198.3,269.7z M194.3,266.7
	c-0.2,0-0.3,0.1-0.4,0.2c-0.2,0.2-0.1,0.5,0.1,0.7c0.3,0.2,0.5,0.4,0.8,0.6c0.1,0.1,0.2,0.1,0.3,0.1c0.2,0,0.3-0.1,0.4-0.2
	c0.2-0.2,0.1-0.5-0.1-0.7c-0.3-0.2-0.5-0.4-0.8-0.6C194.5,266.7,194.4,266.7,194.3,266.7L194.3,266.7z M190.1,263.9
	c-0.2,0-0.3,0.1-0.4,0.2c-0.1,0.2-0.1,0.5,0.2,0.7c0.2,0.2,0.5,0.3,0.7,0.5c0,0,0.1,0.1,0.1,0.1c0.1,0.1,0.2,0.1,0.3,0.1
	c0.2,0,0.3-0.1,0.4-0.2c0.2-0.2,0.1-0.5-0.1-0.7c-0.3-0.2-0.6-0.4-0.8-0.5C190.3,264,190.2,263.9,190.1,263.9L190.1,263.9z
	 M185.8,261.3c-0.2,0-0.3,0.1-0.4,0.3c-0.1,0.2-0.1,0.5,0.2,0.7c0,0,0.1,0,0.1,0.1c0,0,0,0,0,0c0,0,0,0,0,0c0.2,0.1,0.5,0.3,0.7,0.4
	c0.1,0,0.2,0.1,0.3,0.1c0.2,0,0.3-0.1,0.4-0.2c0.1-0.2,0.1-0.5-0.2-0.7c-0.3-0.2-0.6-0.3-0.9-0.5C186,261.4,185.9,261.3,185.8,261.3
	L185.8,261.3z M181.4,259c-0.2,0-0.3,0.1-0.4,0.3c-0.1,0.2,0,0.5,0.2,0.7c0.3,0.2,0.6,0.3,0.9,0.5c0.1,0,0.2,0.1,0.2,0.1
	c0.2,0,0.3-0.1,0.4-0.3c0.1-0.2,0-0.5-0.2-0.7c-0.3-0.2-0.6-0.3-0.9-0.5C181.5,259,181.4,259,181.4,259L181.4,259z M176.8,256.8
	c-0.2,0-0.4,0.1-0.4,0.3c-0.1,0.3,0,0.5,0.3,0.7c0.1,0,0.1,0.1,0.2,0.1c0,0,0,0,0,0c0,0,0,0,0,0c0.2,0.1,0.4,0.2,0.6,0.3
	c0,0,0.1,0,0.1,0c0.1,0,0.1,0,0.2,0c0.2,0,0.4-0.1,0.4-0.3c0.1-0.3,0-0.5-0.3-0.7c-0.3-0.1-0.6-0.3-0.9-0.4
	C176.9,256.8,176.9,256.8,176.8,256.8L176.8,256.8z M172.1,255c-0.2,0-0.4,0.1-0.5,0.3c-0.1,0.3,0,0.5,0.3,0.6
	c0.3,0.1,0.6,0.2,0.9,0.3c0.1,0,0.1,0,0.2,0c0.2,0,0.4-0.1,0.4-0.3c0.1-0.3,0-0.5-0.3-0.6c-0.3-0.1-0.6-0.2-1-0.3
	C172.2,255,172.2,255,172.1,255L172.1,255z M167.3,253.5c-0.2,0-0.4,0.2-0.5,0.4c-0.1,0.3,0.1,0.5,0.3,0.6c0,0,0.1,0,0.1,0
	c0,0,0,0,0,0c0,0,0,0,0,0c0,0,0,0,0,0c0,0,0,0,0,0c0.3,0.1,0.5,0.2,0.8,0.2c0.1,0,0.1,0,0.2,0c0.2,0,0.4-0.1,0.5-0.4
	c0.1-0.3-0.1-0.5-0.3-0.6c-0.3-0.1-0.6-0.2-1-0.3C167.4,253.5,167.4,253.5,167.3,253.5L167.3,253.5z M162.4,252.3
	c-0.2,0-0.4,0.2-0.5,0.4c-0.1,0.3,0.1,0.5,0.4,0.6c0.1,0,0.3,0.1,0.4,0.1c0,0,0,0,0,0c0,0,0,0,0,0c0,0,0,0,0,0c0,0,0,0,0,0
	c0.1,0,0.2,0,0.3,0.1c0,0,0,0,0,0c0,0,0,0,0,0c0,0,0,0,0,0c0,0,0,0,0,0c0,0,0,0,0,0c0,0,0,0,0,0c0,0,0,0,0,0c0,0,0,0,0,0
	c0,0,0,0,0,0l0,0c0,0,0,0,0,0c0,0,0.1,0,0.1,0c0.2,0,0.4-0.2,0.5-0.4c0.1-0.3-0.1-0.5-0.4-0.6c-0.3-0.1-0.7-0.1-1-0.2
	C162.5,252.3,162.5,252.3,162.4,252.3L162.4,252.3z M157.4,251.5c-0.2,0-0.4,0.2-0.5,0.4c0,0.3,0.2,0.5,0.4,0.6c0,0,0,0,0,0
	c0,0,0,0,0,0c0,0,0,0,0,0c0,0,0,0,0,0c0,0,0,0,0,0c0,0,0,0,0,0c0,0,0,0,0,0c0,0,0,0,0,0c0,0,0,0,0,0c0,0,0,0,0,0c0,0,0,0,0,0
	c0,0,0,0,0,0c0,0,0,0,0,0c0,0,0,0,0,0c0,0,0,0,0,0c0,0,0,0,0,0c0,0,0,0,0,0c0,0,0,0,0,0c0,0,0,0,0,0c0,0,0,0,0,0c0,0,0,0,0,0
	c0,0,0,0,0,0c0,0,0,0,0,0c0,0,0,0,0,0c0,0,0,0,0,0c0,0,0,0,0,0c0,0,0,0,0,0c0,0,0,0,0,0c0,0,0,0,0,0c0,0,0,0,0,0c0,0,0,0,0,0
	c0,0,0,0,0,0c0.1,0,0.3,0,0.4,0.1c0,0,0.1,0,0.1,0c0.2,0,0.4-0.2,0.5-0.4c0-0.3-0.2-0.5-0.4-0.6
	C158.2,251.6,157.9,251.5,157.4,251.5C157.5,251.5,157.5,251.5,157.4,251.5L157.4,251.5z M152.4,251.1c-0.3,0-0.5,0.2-0.5,0.5
	c0,0.3,0.2,0.5,0.5,0.5c0.3,0,0.5,0,0.8,0c0,0,0,0,0,0c0,0,0,0,0,0c0,0,0,0,0,0c0,0,0,0,0,0c0,0,0,0,0,0c0,0,0,0,0,0c0,0,0,0,0,0
	c0,0,0,0,0,0c0,0,0.1,0,0.1,0c0,0,0,0,0,0c0.3,0,0.5-0.2,0.5-0.5c0-0.3-0.2-0.5-0.5-0.5C153.1,251.2,152.8,251.1,152.4,251.1
	C152.4,251.1,152.4,251.1,152.4,251.1L152.4,251.1z M148.4,251.2C148.4,251.2,148.4,251.2,148.4,251.2c-0.3,0-0.7,0-1,0
	c-0.3,0-0.5,0.3-0.5,0.5c0,0.3,0.2,0.5,0.5,0.5c0,0,0,0,0,0c0.1,0,0.1,0,0.2,0c0,0,0,0,0,0c0,0,0,0,0,0c0,0,0,0,0,0c0,0,0,0,0,0
	c0,0,0,0,0,0c0,0,0,0,0,0c0.2,0,0.4,0,0.6,0c0,0,0,0,0,0c0,0,0,0,0,0c0,0,0,0,0,0c0,0,0,0,0,0c0,0,0.1,0,0.1,0
	c0.3,0,0.5-0.2,0.5-0.5C148.9,251.4,148.7,251.1,148.4,251.2L148.4,251.2z M143.4,251.6C143.3,251.6,143.3,251.6,143.4,251.6
	c-0.4,0-0.7,0.1-1.1,0.1c-0.3,0-0.5,0.3-0.4,0.6c0,0.3,0.3,0.4,0.5,0.4c0,0,0,0,0.1,0c0.2,0,0.5-0.1,0.7-0.1c0,0,0,0,0,0
	c0,0,0,0,0,0c0,0,0,0,0,0c0,0,0,0,0,0c0,0,0,0,0,0c0,0,0,0,0,0c0,0,0,0,0,0c0,0,0,0,0,0c0.1,0,0.1,0,0.2,0c0.3,0,0.5-0.3,0.4-0.6
	C143.8,251.7,143.6,251.6,143.4,251.6L143.4,251.6z M138.4,252.5C138.4,252.5,138.3,252.5,138.4,252.5c-0.4,0.1-0.8,0.2-1.1,0.3
	c-0.3,0.1-0.4,0.3-0.4,0.6c0.1,0.2,0.3,0.4,0.5,0.4c0,0,0.1,0,0.1,0c0.1,0,0.1,0,0.2,0c0,0,0,0,0,0c0,0,0,0,0,0
	c0.2-0.1,0.5-0.1,0.7-0.2c0,0,0,0,0,0c0,0,0,0,0,0c0,0,0,0,0,0c0,0,0,0,0,0c0.3-0.1,0.4-0.3,0.4-0.6
	C138.8,252.6,138.6,252.5,138.4,252.5L138.4,252.5z M133.7,254.8c0.3-0.1,0.4-0.4,0.3-0.6c-0.1-0.2-0.3-0.3-0.5-0.3l0,0
	c0,0-0.1,0-0.1,0c-0.3,0.1-0.6,0.2-1,0.3c-0.3,0.1-0.4,0.4-0.3,0.6c0.1,0.2,0.3,0.3,0.5,0.3 M128.8,255.7c-0.1,0-0.1,0-0.2,0
	c-0.3,0.1-0.6,0.3-0.9,0.4c-0.2,0.1-0.4,0.4-0.2,0.7c0.1,0.2,0.3,0.3,0.5,0.3c0.1,0,0.1,0,0.2,0c0.1,0,0.2-0.1,0.3-0.1c0,0,0,0,0,0
	c0,0,0,0,0,0c0.2-0.1,0.4-0.2,0.6-0.3c0.3-0.1,0.4-0.4,0.3-0.7C129.2,255.8,129,255.7,128.8,255.7L128.8,255.7z M124.3,258
	c-0.1,0-0.2,0-0.2,0.1c-0.3,0.2-0.6,0.3-0.9,0.5c-0.2,0.1-0.3,0.4-0.2,0.7c0.1,0.2,0.3,0.3,0.4,0.2c0.1,0,0.2,0,0.2-0.1
	c0.3-0.2,0.5-0.3,0.8-0.4c0,0,0,0,0,0c0,0,0,0,0,0c0,0,0,0,0,0c0,0,0,0,0,0c0,0,0,0,0.1,0c0.2-0.1,0.3-0.4,0.2-0.7
	C124.7,258.1,124.5,258,124.3,258L124.3,258z M120.1,260.7c-0.1,0-0.2,0-0.3,0.1c-0.3,0.2-0.6,0.4-0.8,0.6c-0.2,0.2-0.3,0.5-0.1,0.7
	c0.1,0.1,0.3,0.2,0.4,0.2c0.1,0,0.2,0,0.3-0.1c0,0,0.1,0,0.1-0.1c0,0,0,0,0,0c0,0,0,0,0,0c0,0,0,0,0,0c0,0,0,0,0,0c0,0,0,0,0,0
	c0,0,0,0,0.1,0c0,0,0,0,0,0c0,0,0,0,0,0c0,0,0,0,0,0c0,0,0,0,0,0c0,0,0,0,0,0c0,0,0,0,0,0c0,0,0,0,0,0c0,0,0,0,0,0c0,0,0,0,0,0
	c0,0,0,0,0,0c0,0,0,0,0,0c0,0,0,0,0,0c0,0,0,0,0,0c0,0,0,0,0,0c0,0,0,0,0,0c0,0,0,0,0,0c0,0,0,0,0,0c0,0,0,0,0,0c0,0,0,0,0,0
	c0,0,0,0,0,0c0,0,0,0,0,0c0,0,0,0,0,0c0,0,0,0,0,0c0,0,0,0,0,0c0,0,0,0,0,0c0,0,0,0,0,0c0,0,0,0,0,0c0.1-0.1,0.2-0.1,0.3-0.2
	c0.2-0.2,0.3-0.5,0.1-0.7C120.4,260.8,120.2,260.7,120.1,260.7L120.1,260.7z M116.1,263.8c-0.1,0-0.2,0-0.3,0.1
	c-0.3,0.2-0.5,0.4-0.8,0.7c-0.2,0.2-0.2,0.5,0,0.7c0.1,0.1,0.2,0.2,0.4,0.2c0.1,0,0.2,0,0.3-0.1c0.1-0.1,0.2-0.2,0.3-0.3
	c0,0,0,0,0,0c0,0,0,0,0,0c0,0,0,0,0,0c0,0,0,0,0,0c0,0,0,0,0,0c0,0,0,0,0,0c0,0,0,0,0,0c0,0,0,0,0,0c0,0,0,0,0,0c0,0,0,0,0,0
	c0,0,0,0,0,0c0,0,0,0,0,0c0,0,0,0,0,0c0,0,0,0,0,0c0,0,0,0,0,0c0,0,0,0,0,0c0,0,0,0,0,0c0,0,0,0,0,0c0,0,0,0,0,0c0,0,0,0,0,0
	c0.1-0.1,0.1-0.1,0.2-0.2c0.2-0.2,0.2-0.5,0.1-0.7C116.4,263.8,116.2,263.8,116.1,263.8L116.1,263.8z M112.4,267.2
	c-0.1,0-0.2,0.1-0.3,0.2c-0.2,0.2-0.5,0.5-0.7,0.7c-0.2,0.2-0.2,0.5,0,0.7c0.1,0.1,0.2,0.1,0.4,0.1c0.1,0,0.2-0.1,0.3-0.2
	c0.1-0.1,0.2-0.2,0.2-0.3c0,0,0,0,0,0c0,0,0,0,0,0c0,0,0,0,0,0c0,0,0,0,0,0c0,0,0,0,0,0c0,0,0,0,0,0c0,0,0,0,0,0c0,0,0,0,0,0
	c0,0,0,0,0,0l0,0c0.1-0.1,0.2-0.2,0.4-0.4c0.2-0.2,0.2-0.5,0-0.7C112.7,267.3,112.5,267.2,112.4,267.2L112.4,267.2z M109.1,271
	c-0.1,0-0.3,0.1-0.4,0.2c-0.2,0.3-0.4,0.5-0.6,0.8c-0.2,0.2-0.1,0.5,0.1,0.7c0.1,0.1,0.2,0.1,0.3,0.1c0.1,0,0.3-0.1,0.4-0.2
	c0,0,0,0,0,0c0,0,0,0,0,0c0,0,0,0,0,0c0.1-0.1,0.2-0.3,0.3-0.4c0,0,0,0,0,0c0,0,0,0,0,0c0,0,0,0,0,0c0,0,0,0,0,0c0,0,0,0,0,0
	c0,0,0,0,0,0c0,0,0,0,0,0l0,0c0.1-0.1,0.1-0.2,0.2-0.3c0.2-0.2,0.1-0.5-0.1-0.7C109.3,271,109.2,271,109.1,271L109.1,271z
	 M106.1,275.1c-0.2,0-0.3,0.1-0.4,0.2c-0.2,0.3-0.4,0.6-0.5,0.9c-0.1,0.2-0.1,0.5,0.2,0.7c0.1,0.1,0.2,0.1,0.3,0.1
	c0.2,0,0.3-0.1,0.4-0.2c0-0.1,0.1-0.1,0.1-0.2c0,0,0,0,0,0c0,0,0,0,0,0c0,0,0,0,0,0c0,0,0,0,0,0c0,0,0,0,0,0c0,0,0,0,0,0
	c0.1-0.1,0.2-0.2,0.2-0.4l0,0c0,0,0,0,0,0c0,0,0,0,0,0c0,0,0,0,0,0c0,0,0,0,0,0c0,0,0,0,0,0c0-0.1,0.1-0.1,0.1-0.2
	c0.1-0.2,0.1-0.5-0.2-0.7C106.3,275.1,106.2,275.1,106.1,275.1L106.1,275.1z M103.6,279.5c-0.2,0-0.3,0.1-0.4,0.3
	c-0.2,0.3-0.3,0.6-0.5,0.9c-0.1,0.2,0,0.5,0.2,0.7c0.1,0,0.2,0.1,0.2,0c0.2,0,0.3-0.1,0.4-0.3c0-0.1,0.1-0.1,0.1-0.2c0,0,0,0,0,0
	c0,0,0,0,0,0c0,0,0,0,0,0c0,0,0,0,0,0c0,0,0,0,0,0c0,0,0,0,0,0c0,0,0,0,0,0c0,0,0,0,0,0c0,0,0,0,0,0c0,0,0,0,0,0c0,0,0,0,0,0
	c0,0,0,0,0,0c0,0,0,0,0,0c0,0,0,0,0,0c0,0,0,0,0,0l0,0c0.1-0.2,0.2-0.3,0.3-0.5c0.1-0.2,0-0.5-0.2-0.7
	C103.8,279.5,103.7,279.5,103.6,279.5L103.6,279.5z M101.6,284.1c-0.2,0-0.4,0.1-0.4,0.3c-0.1,0.3-0.2,0.6-0.3,1
	c-0.1,0.3,0,0.5,0.3,0.6c0.1,0,0.1,0,0.2,0c0.2,0,0.4-0.1,0.5-0.3c0,0,0,0,0,0c0,0,0,0,0,0c0,0,0,0,0,0c0,0,0,0,0,0c0,0,0,0,0,0
	c0,0,0,0,0,0c0,0,0,0,0,0c0,0,0,0,0,0c0,0,0,0,0,0c0,0,0,0,0,0c0,0,0-0.1,0-0.1c0,0,0,0,0,0c0,0,0,0,0,0c0,0,0,0,0,0c0,0,0,0,0,0
	c0,0,0,0,0,0c0,0,0,0,0,0c0,0,0,0,0,0c0,0,0,0,0,0c0,0,0,0,0,0c0,0,0,0,0,0c0,0,0,0,0,0c0,0,0,0,0,0c0,0,0,0,0,0c0,0,0,0,0,0
	c0,0,0,0,0,0c0,0,0,0,0,0c0,0,0,0,0,0c0,0,0,0,0,0c0,0,0,0,0,0c0,0,0,0,0,0c0,0,0,0,0,0c0,0,0,0,0,0c0,0,0,0,0,0c0,0,0,0,0,0
	c0,0,0,0,0,0c0,0,0,0,0,0l0,0c0-0.1,0.1-0.2,0.1-0.3c0.1-0.3,0-0.5-0.3-0.6C101.7,284.1,101.6,284.1,101.6,284.1L101.6,284.1z
	 M100.1,288.9c-0.2,0-0.4,0.2-0.5,0.4c-0.1,0.3-0.2,0.7-0.2,1c-0.1,0.3,0.1,0.5,0.4,0.6c0,0,0.1,0,0.1,0c0.2,0,0.4-0.2,0.5-0.4
	c0,0,0,0,0,0c0,0,0,0,0,0c0,0,0,0,0,0c0,0,0,0,0,0c0,0,0,0,0,0c0,0,0,0,0,0c0,0,0,0,0,0c0,0,0,0,0,0c0,0,0,0,0,0c0,0,0,0,0,0
	c0,0,0,0,0,0c0,0,0,0,0,0c0,0,0,0,0,0c0,0,0,0,0,0c0,0,0,0,0,0l0,0c0,0,0,0,0,0c0,0,0,0,0,0c0,0,0,0,0,0c0,0,0,0,0,0c0,0,0,0,0,0
	c0-0.2,0.1-0.3,0.1-0.5c0,0,0,0,0,0l0,0c0-0.1,0-0.1,0-0.1c0.1-0.3-0.1-0.5-0.4-0.6C100.2,288.9,100.1,288.9,100.1,288.9
	L100.1,288.9z M99.1,293.9c-0.2,0-0.4,0.2-0.5,0.4c0,0.3-0.1,0.7-0.1,1c0,0.3,0.2,0.5,0.4,0.6c0,0,0,0,0.1,0c0.2,0,0.5-0.2,0.5-0.4
	c0,0,0,0,0,0c0,0,0,0,0,0c0-0.3,0.1-0.7,0.1-1C99.7,294.2,99.5,293.9,99.1,293.9C99.2,293.9,99.2,293.9,99.1,293.9L99.1,293.9z
	 M98.8,298.9c-0.3,0-0.5,0.2-0.5,0.5c0,0.3,0,0.7,0,1c0,0.3,0.2,0.5,0.5,0.5c0,0,0,0,0,0c0.3,0,0.5-0.2,0.5-0.5c0-0.2,0-0.5,0-0.7
	c0,0,0,0,0,0c0,0,0,0,0,0c0-0.1,0-0.2,0-0.2C99.3,299.2,99.1,298.9,98.8,298.9C98.8,298.9,98.8,298.9,98.8,298.9L98.8,298.9z
	 M99,304C99,304,99,304,99,304c-0.3,0-0.5,0.3-0.5,0.5c0,0.3,0.1,0.7,0.1,1c0,0.3,0.3,0.4,0.5,0.4c0,0,0,0,0,0
	c0.3,0,0.5-0.3,0.4-0.6c0-0.3-0.1-0.5-0.1-0.8c0,0,0,0,0,0c0,0,0,0,0,0c0,0,0,0,0,0c0,0,0,0,0,0c0-0.1,0-0.1,0-0.2
	C99.5,304.2,99.2,304,99,304L99,304z M99.8,309C99.7,309,99.7,309,99.8,309c-0.4,0.1-0.5,0.3-0.5,0.6c0.1,0.3,0.1,0.7,0.2,1
	c0.1,0.2,0.3,0.4,0.5,0.4c0,0,0.1,0,0.1,0c0.3-0.1,0.4-0.3,0.4-0.6c0,0,0-0.1,0-0.1c0,0,0,0,0,0c0,0,0,0,0,0c0,0,0,0,0,0
	c0,0,0,0,0,0c0,0,0,0,0,0c0,0,0,0,0,0c0,0,0,0,0,0c0,0,0,0,0,0c0,0,0,0,0,0c0,0,0,0,0,0c0,0,0,0,0,0c0,0,0,0,0,0c0,0,0,0,0,0
	c0,0,0,0,0,0c0,0,0,0,0,0c0,0,0,0,0,0c0,0,0,0,0,0c0,0,0,0,0,0c0,0,0,0,0,0c0,0,0,0,0,0c0,0,0,0,0,0c0,0,0,0,0,0c0,0,0,0,0,0
	c0,0,0,0,0,0c0,0,0,0,0,0c0-0.2-0.1-0.3-0.1-0.5C100.2,309.1,100,309,99.8,309L99.8,309z M101.1,313.9c0,0-0.1,0-0.1,0
	c-0.3,0.1-0.4,0.4-0.3,0.6c0.1,0.3,0.2,0.6,0.3,1c0.1,0.2,0.3,0.3,0.5,0.3c0,0,0.1,0,0.1,0c0.3-0.1,0.4-0.4,0.3-0.6c0,0,0,0,0,0
	c-0.1-0.3-0.2-0.6-0.3-1C101.5,314,101.3,313.9,101.1,313.9L101.1,313.9z M102.9,318.6c-0.1,0-0.1,0-0.2,0c-0.3,0.1-0.4,0.4-0.3,0.7
	c0.1,0.3,0.3,0.6,0.4,0.9c0.1,0.2,0.3,0.3,0.5,0.3c0.1,0,0.1,0,0.2,0c0.2-0.1,0.4-0.4,0.2-0.7c0-0.1-0.1-0.1-0.1-0.2c0,0,0,0,0,0
	c0,0,0,0,0,0c0,0,0,0,0,0c0,0,0,0,0,0c0,0,0,0,0,0c0,0,0,0,0,0c0,0,0,0,0,0c0,0,0,0,0,0c0,0,0,0,0,0c0,0,0,0,0,0c0,0,0,0,0,0
	c0,0,0,0,0,0c0,0,0,0,0,0c0,0,0,0,0,0c0,0,0,0,0,0c0,0,0,0,0,0c0,0,0,0,0,0c0,0,0,0,0,0c0,0,0,0,0,0c0,0,0,0,0,0c0,0,0,0,0,0
	c0,0,0,0,0,0c0,0,0,0,0,0c0,0,0,0,0,0c0,0,0,0,0,0c0,0,0,0,0,0c0,0,0,0,0,0c0-0.1-0.1-0.2-0.1-0.2c0,0,0,0,0,0c0,0,0,0,0,0
	c0,0,0,0,0,0c0,0,0,0,0,0c0,0,0,0,0,0c0,0,0,0,0,0c0,0,0,0,0,0C103.2,318.7,103.1,318.6,102.9,318.6L102.9,318.6z M105.1,323.1
	c-0.1,0-0.2,0-0.2,0.1c-0.2,0.1-0.3,0.4-0.2,0.7c0.2,0.3,0.3,0.6,0.5,0.9c0.1,0.2,0.3,0.2,0.4,0.2c0.1,0,0.2,0,0.2-0.1
	c0.2-0.1,0.3-0.4,0.2-0.7c0,0,0-0.1-0.1-0.1c0,0,0,0,0,0c0,0,0,0,0,0c0,0,0,0,0,0c0,0,0,0,0,0c0,0,0,0,0,0c0,0,0,0,0,0
	c-0.1-0.2-0.2-0.4-0.3-0.6c0,0,0,0,0,0c0,0,0,0,0,0c0,0,0,0,0,0c0,0,0,0,0,0c0,0,0,0,0-0.1C105.5,323.2,105.3,323.1,105.1,323.1
	L105.1,323.1z M107.9,327.3c-0.1,0-0.2,0-0.3,0.1c-0.2,0.2-0.3,0.5-0.1,0.7c0.2,0.3,0.4,0.6,0.6,0.8c0.1,0.1,0.3,0.2,0.4,0.2
	c0.1,0,0.2,0,0.3-0.1c0.2-0.2,0.3-0.5,0.1-0.7c-0.2-0.3-0.4-0.5-0.6-0.8C108.2,327.4,108,327.3,107.9,327.3L107.9,327.3z
	 M111.1,331.2c-0.1,0-0.2,0.1-0.3,0.1c-0.2,0.2-0.2,0.5,0,0.7c0.2,0.2,0.5,0.5,0.7,0.7c0.1,0.1,0.2,0.2,0.4,0.1
	c0.1,0,0.2-0.1,0.3-0.1c0.2-0.2,0.2-0.5,0-0.7c-0.2-0.2-0.5-0.5-0.7-0.7C111.4,331.3,111.2,331.2,111.1,331.2L111.1,331.2z
	 M114.8,334.7c-0.1,0-0.3,0.1-0.4,0.2c-0.2,0.2-0.1,0.5,0.1,0.7c0.3,0.2,0.5,0.4,0.8,0.6c0.1,0.1,0.2,0.1,0.3,0.1
	c0.1,0,0.3-0.1,0.4-0.2c0.2-0.2,0.1-0.5-0.1-0.7c-0.2-0.2-0.4-0.3-0.6-0.5c0,0,0,0,0,0c0,0,0,0,0,0c0,0,0,0,0,0c0,0,0,0,0,0
	c0,0,0,0,0,0c0,0,0,0,0,0c0,0-0.1-0.1-0.1-0.1C115.1,334.7,114.9,334.7,114.8,334.7L114.8,334.7z M118.9,337.6
	c-0.2,0-0.3,0.1-0.4,0.2c-0.1,0.2-0.1,0.5,0.2,0.7c0.3,0.2,0.6,0.4,0.9,0.5c0.1,0.1,0.2,0.1,0.3,0.1c0.2,0,0.3-0.1,0.4-0.2
	c0.1-0.2,0.1-0.5-0.2-0.7c0,0-0.1,0-0.1-0.1h0c0,0,0,0,0,0c0,0,0,0,0,0c0,0,0,0,0,0c0,0,0,0,0,0c0,0,0,0,0,0c0,0,0,0,0,0
	c0,0,0,0,0,0c0,0,0,0,0,0c0,0-0.1,0-0.1-0.1c0,0,0,0,0,0c0,0,0,0,0,0c0,0,0,0,0,0c0,0,0,0,0,0c0,0,0,0,0,0c0,0,0,0,0,0c0,0,0,0,0,0
	c0,0,0,0,0,0c0,0,0,0,0,0c0,0,0,0,0,0c0,0,0,0,0,0c0,0,0,0,0,0c0,0,0,0,0,0c0,0,0,0,0,0c0,0,0,0,0,0c0,0,0,0,0,0c0,0,0,0,0,0
	c0,0,0,0,0,0c0,0,0,0,0,0c0,0,0,0,0,0c0,0,0,0,0,0c0,0,0,0,0,0c0,0,0,0,0,0c0,0,0,0,0,0c0,0,0,0,0,0c0,0,0,0,0,0c0,0,0,0,0,0
	c0,0-0.1-0.1-0.1-0.1C119.1,337.6,119,337.6,118.9,337.6L118.9,337.6z M123.4,340c-0.2,0-0.4,0.1-0.4,0.3c-0.1,0.2,0,0.5,0.2,0.7
	c0.3,0.1,0.6,0.3,0.9,0.4c0.1,0,0.1,0,0.2,0c0.2,0,0.4-0.1,0.4-0.3c0.1-0.3,0-0.5-0.3-0.7c-0.1-0.1-0.2-0.1-0.3-0.2c0,0,0,0,0,0
	c0,0,0,0,0,0c0,0,0,0,0,0c0,0,0,0,0,0c0,0,0,0,0,0c0,0,0,0,0,0c-0.1,0-0.2-0.1-0.3-0.1c0,0,0,0,0,0c0,0,0,0,0,0c0,0,0,0,0,0
	c0,0,0,0,0,0c0,0,0,0,0,0c0,0,0,0,0,0c0,0,0,0,0,0c0,0,0,0,0,0c0,0,0,0,0,0c0,0,0,0,0,0c0,0-0.1,0-0.1,0
	C123.5,340,123.5,340,123.4,340L123.4,340z M128.1,341.9c-0.2,0-0.4,0.1-0.5,0.3c-0.1,0.3,0.1,0.5,0.3,0.6c0.3,0.1,0.6,0.2,1,0.3
	c0.1,0,0.1,0,0.2,0c0.2,0,0.4-0.1,0.5-0.3c0.1-0.3-0.1-0.5-0.3-0.6c-0.2-0.1-0.4-0.1-0.5-0.2c0,0,0,0,0,0c0,0,0,0,0,0c0,0,0,0,0,0
	c0,0,0,0,0,0c0,0,0,0,0,0c0,0,0,0,0,0c0,0,0,0,0,0c0,0,0,0,0,0c0,0,0,0,0,0c0,0,0,0,0,0c-0.1,0-0.2-0.1-0.3-0.1
	C128.2,341.9,128.1,341.9,128.1,341.9L128.1,341.9z M132.9,343.3c-0.2,0-0.4,0.2-0.5,0.4c-0.1,0.3,0.1,0.5,0.4,0.6
	c0.3,0.1,0.7,0.1,1,0.2c0,0,0.1,0,0.1,0c0.2,0,0.4-0.2,0.5-0.4c0.1-0.3-0.1-0.5-0.4-0.6c-0.3-0.1-0.7-0.1-1-0.2
	C133,343.3,133,343.3,132.9,343.3L132.9,343.3z M137.9,344.2c-0.2,0-0.4,0.2-0.5,0.4c0,0.3,0.2,0.5,0.4,0.6c0.3,0,0.6,0.1,0.9,0.1
	l0.1,0c0,0,0.1,0,0.1,0c0.2,0,0.4-0.2,0.5-0.4c0-0.3-0.2-0.5-0.4-0.6c0,0,0,0,0,0c0,0,0,0-0.1,0l0,0l0,0c0,0,0,0,0,0c0,0,0,0,0,0
	c-0.1,0-0.3,0-0.4,0c0,0,0,0,0,0c0,0,0,0,0,0c0,0,0,0,0,0c0,0,0,0,0,0c0,0,0,0,0,0c0,0,0,0,0,0c0,0,0,0,0,0c0,0,0,0,0,0c0,0,0,0,0,0
	c0,0,0,0,0,0c0,0,0,0,0,0c0,0,0,0,0,0c0,0-0.1,0-0.1,0c0,0,0,0,0,0C138.1,344.2,138,344.2,137.9,344.2
	C138,344.2,138,344.2,137.9,344.2C137.9,344.2,137.9,344.2,137.9,344.2L137.9,344.2z M142.9,344.6c-0.3,0-0.5,0.2-0.5,0.5
	c0,0.3,0.2,0.5,0.5,0.5c0.3,0,0.7,0,1,0c0,0,0,0,0,0c0.3,0,0.5-0.2,0.5-0.5c0-0.3-0.2-0.5-0.5-0.5c-0.1,0-0.1,0-0.2,0c0,0,0,0,0,0
	c0,0,0,0,0,0C143.5,344.6,143.2,344.6,142.9,344.6C143,344.6,143,344.6,142.9,344.6C143,344.6,143,344.6,142.9,344.6
	C143,344.6,143,344.6,142.9,344.6C142.9,344.6,142.9,344.6,142.9,344.6L142.9,344.6z M149,344.6C149,344.6,149,344.6,149,344.6
	c-0.3,0-0.7,0-1,0c-0.3,0-0.5,0.2-0.5,0.5c0,0.3,0.2,0.5,0.5,0.5c0,0,0,0,0,0c0.3,0,0.7,0,1,0c0.3,0,0.5-0.3,0.5-0.5
	C149.5,344.8,149.2,344.6,149,344.6L149,344.6z M154,344.1C154,344.1,153.9,344.1,154,344.1c-0.3,0-0.5,0.1-0.7,0.1c0,0,0,0,0,0
	c0,0,0,0,0,0c0,0,0,0,0,0c0,0,0,0,0,0c0,0,0,0,0,0c0,0,0,0,0,0c0,0,0,0,0,0c0,0,0,0,0,0c0,0,0,0,0,0c0,0,0,0,0,0c-0.1,0-0.1,0-0.2,0
	c-0.3,0-0.5,0.3-0.4,0.6c0,0.3,0.3,0.5,0.5,0.4c0,0,0,0,0,0c0.3,0,0.7-0.1,1-0.1c0.3,0,0.5-0.3,0.4-0.6
	C154.5,344.3,154.2,344.1,154,344.1L154,344.1z M158.9,343.2C158.9,343.2,158.9,343.2,158.9,343.2c-0.4,0.1-0.7,0.1-1,0.2
	c0,0-0.1,0-0.1,0c-0.3,0.1-0.4,0.3-0.4,0.6c0,0.2,0.3,0.4,0.5,0.4c0,0,0.1,0,0.1,0c0.3-0.1,0.7-0.1,1-0.2c0.3-0.1,0.4-0.3,0.4-0.6
	C159.4,343.4,159.2,343.2,158.9,343.2L158.9,343.2z M163.8,342c0,0-0.1,0-0.1,0c0,0-0.1,0-0.1,0c-0.3,0.1-0.6,0.2-0.8,0.2
	c-0.3,0.1-0.4,0.3-0.3,0.6c0.1,0.2,0.3,0.4,0.5,0.4c0,0,0.1,0,0.1,0c0.3-0.1,0.7-0.2,1-0.3c0.3-0.1,0.4-0.4,0.3-0.6
	C164.3,342.2,164.1,342,163.8,342L163.8,342z M168.6,340.5c0,0-0.1,0-0.1,0c0,0,0,0-0.1,0c0,0,0,0,0,0c0,0,0,0,0,0c0,0,0,0,0,0
	c0,0,0,0,0,0c-0.3,0.1-0.6,0.2-0.8,0.3c-0.3,0.1-0.4,0.4-0.3,0.6c0.1,0.2,0.3,0.3,0.5,0.3c0,0,0.1,0,0.1,0c0.3-0.1,0.6-0.2,1-0.3
	c0.3-0.1,0.4-0.4,0.3-0.6C169,340.6,168.8,340.5,168.6,340.5L168.6,340.5z M173.3,338.7c-0.1,0-0.1,0-0.2,0c0,0-0.1,0-0.1,0
	c0,0,0,0,0,0c0,0,0,0,0,0c0,0,0,0,0,0c0,0,0,0,0,0c0,0,0,0,0,0c0,0,0,0,0,0c-0.2,0.1-0.4,0.2-0.5,0.2c-0.1,0-0.1,0.1-0.2,0.1
	c-0.3,0.1-0.4,0.4-0.3,0.7c0.1,0.2,0.3,0.3,0.5,0.3c0.1,0,0.1,0,0.2,0c0.3-0.1,0.6-0.3,0.9-0.4c0.3-0.1,0.4-0.4,0.3-0.7
	C173.7,338.8,173.5,338.6,173.3,338.7L173.3,338.7z M177.9,336.5c-0.1,0-0.1,0-0.2,0.1c0,0,0,0,0,0c0,0,0,0,0,0
	c-0.3,0.1-0.6,0.3-0.9,0.4c-0.2,0.1-0.4,0.4-0.2,0.7c0.1,0.2,0.3,0.3,0.5,0.3c0.1,0,0.1,0,0.2,0c0.3-0.1,0.6-0.3,0.9-0.4
	c0.2-0.1,0.3-0.4,0.2-0.7C178.2,336.6,178.1,336.5,177.9,336.5L177.9,336.5z M182.3,334.2c-0.1,0-0.2,0-0.2,0.1
	c-0.3,0.2-0.6,0.3-0.9,0.5c-0.2,0.1-0.3,0.4-0.2,0.7c0.1,0.2,0.3,0.3,0.5,0.3c0.1,0,0.2,0,0.2-0.1c0.3-0.2,0.6-0.3,0.9-0.5
	c0.2-0.1,0.3-0.4,0.2-0.7C182.7,334.3,182.5,334.2,182.3,334.2L182.3,334.2z M186.6,331.6c-0.1,0-0.2,0-0.2,0.1
	c-0.3,0.2-0.6,0.4-0.8,0.5c-0.2,0.1-0.3,0.5-0.2,0.7c0.1,0.2,0.3,0.2,0.4,0.2c0.1,0,0.2,0,0.2-0.1c0.3-0.2,0.6-0.4,0.9-0.5
	c0.2-0.1,0.3-0.5,0.2-0.7C187,331.7,186.8,331.6,186.6,331.6L186.6,331.6z M190.8,328.8c-0.1,0-0.2,0-0.3,0.1c0,0,0,0-0.1,0
	c0,0,0,0,0,0c0,0,0,0,0,0c0,0,0,0,0,0c0,0,0,0,0,0c0,0,0,0,0,0c0,0,0,0,0,0c-0.2,0.1-0.3,0.2-0.5,0.3l0,0c0,0,0,0,0,0c0,0,0,0,0,0
	c0,0,0,0,0,0c0,0-0.1,0-0.1,0.1c-0.2,0.2-0.3,0.5-0.1,0.7c0.1,0.1,0.3,0.2,0.4,0.2c0.1,0,0.2,0,0.3-0.1c0.3-0.2,0.6-0.4,0.8-0.6
	c0.2-0.2,0.3-0.5,0.1-0.7C191.1,328.9,191,328.8,190.8,328.8L190.8,328.8z M194.9,325.9c-0.1,0-0.2,0-0.3,0.1
	c-0.3,0.2-0.5,0.4-0.8,0.6c-0.2,0.2-0.3,0.5-0.1,0.7c0.1,0.1,0.3,0.2,0.4,0.2c0.1,0,0.2,0,0.3-0.1c0.3-0.2,0.5-0.4,0.8-0.6
	c0.2-0.2,0.3-0.5,0.1-0.7C195.2,325.9,195,325.9,194.9,325.9L194.9,325.9z M198.8,322.7c-0.1,0-0.2,0-0.3,0.1
	c-0.1,0.1-0.1,0.1-0.2,0.2c0,0,0,0,0,0c0,0,0,0,0,0c0,0,0,0,0,0c0,0,0,0,0,0c-0.2,0.1-0.3,0.3-0.5,0.4c-0.2,0.2-0.2,0.5-0.1,0.7
	c0.1,0.1,0.3,0.2,0.4,0.2c0.1,0,0.2,0,0.3-0.1c0.3-0.2,0.5-0.4,0.8-0.6c0.2-0.2,0.2-0.5,0.1-0.7
	C199.1,322.8,198.9,322.7,198.8,322.7L198.8,322.7z M202.5,319.4c-0.1,0-0.2,0-0.3,0.1c-0.1,0-0.1,0.1-0.2,0.1c0,0,0,0,0,0
	c0,0,0,0,0,0c-0.2,0.2-0.4,0.3-0.6,0.5c-0.2,0.2-0.2,0.5,0,0.7c0.1,0.1,0.2,0.2,0.4,0.2c0.1,0,0.2,0,0.3-0.1
	c0.3-0.2,0.5-0.5,0.7-0.7c0.2-0.2,0.2-0.5,0-0.7C202.8,319.5,202.7,319.4,202.5,319.4L202.5,319.4z M206.2,316
	c-0.1,0-0.2,0.1-0.3,0.1c0,0,0,0,0,0c0,0,0,0,0,0c0,0,0,0,0,0c0,0,0,0,0,0c0,0,0,0,0,0c0,0,0,0,0,0c0,0,0,0,0,0c0,0-0.1,0.1-0.1,0.1
	c0,0,0,0,0,0c0,0,0,0,0,0c0,0,0,0,0,0c0,0,0,0,0,0c0,0,0,0,0,0c0,0,0,0,0,0c0,0,0,0,0,0c0,0,0,0,0,0c0,0,0,0,0,0c0,0,0,0,0,0
	c0,0,0,0,0,0c0,0,0,0,0,0c0,0,0,0,0,0c0,0,0,0,0,0c0,0,0,0,0,0c0,0-0.1,0.1-0.1,0.1c-0.2,0.2-0.2,0.5,0,0.7c0.1,0.1,0.2,0.2,0.4,0.2
	c0.1,0,0.2-0.1,0.3-0.1c0.2-0.2,0.5-0.5,0.7-0.7c0.2-0.2,0.2-0.5,0-0.7C206.5,316,206.3,316,206.2,316L206.2,316z M209.7,312.4
	c-0.1,0-0.3,0.1-0.3,0.2c-0.1,0.1-0.1,0.2-0.2,0.2c0,0,0,0,0,0c0,0,0,0,0,0c0,0,0,0,0,0c0,0,0,0,0,0c-0.1,0.1-0.3,0.3-0.4,0.4
	c-0.2,0.2-0.2,0.5,0,0.7c0.1,0.1,0.2,0.1,0.4,0.1c0.1,0,0.3-0.1,0.3-0.2c0.2-0.2,0.5-0.5,0.7-0.7c0.2-0.2,0.2-0.5,0-0.7
	C209.9,312.4,209.8,312.3,209.7,312.4L209.7,312.4z M213,308.6c-0.1,0-0.3,0.1-0.4,0.2c0,0,0,0,0,0l0,0c0,0,0,0,0,0c0,0,0,0,0,0
	c-0.1,0.2-0.3,0.3-0.4,0.5c0,0,0,0,0,0c0,0,0,0,0,0c0,0-0.1,0.1-0.1,0.1c-0.2,0.2-0.2,0.5,0.1,0.7c0.1,0.1,0.2,0.1,0.3,0.1
	c0.1,0,0.3-0.1,0.4-0.2c0.2-0.3,0.4-0.5,0.7-0.8c0.2-0.2,0.2-0.5-0.1-0.7C213.3,308.6,213.1,308.6,213,308.6L213,308.6z
	 M216.2,304.7c-0.1,0-0.3,0.1-0.4,0.2c-0.1,0.1-0.1,0.1-0.2,0.2c0,0,0,0,0,0c0,0,0,0,0,0c0,0,0,0,0,0c0,0,0,0,0,0c0,0,0,0,0,0l0,0
	c-0.1,0.1-0.1,0.2-0.2,0.3c0,0,0,0,0,0c0,0,0,0,0,0c0,0,0,0,0,0c0,0,0,0,0,0c0,0-0.1,0.1-0.1,0.1c-0.2,0.2-0.1,0.5,0.1,0.7
	c0.1,0.1,0.2,0.1,0.3,0.1c0.1,0,0.3-0.1,0.4-0.2c0.2-0.3,0.4-0.5,0.6-0.8c0.2-0.2,0.1-0.5-0.1-0.7
	C216.4,304.8,216.3,304.7,216.2,304.7L216.2,304.7z M219.3,300.7c-0.1,0-0.3,0.1-0.4,0.2c0,0,0,0,0,0c0,0,0,0,0,0c0,0,0,0,0,0
	c0,0,0,0,0,0c0,0,0,0,0,0c0,0,0,0,0,0c0,0,0,0,0,0c0,0,0,0,0,0c0,0,0,0,0,0c-0.1,0.1-0.1,0.2-0.2,0.3c0,0,0,0,0,0c0,0,0,0,0,0
	c0,0,0,0,0,0c0,0,0,0,0,0c-0.1,0.1-0.1,0.1-0.2,0.2c-0.2,0.2-0.1,0.5,0.1,0.7c0.1,0.1,0.2,0.1,0.3,0.1c0.1,0,0.3-0.1,0.4-0.2
	c0.2-0.3,0.4-0.5,0.6-0.8c0.2-0.2,0.1-0.5-0.1-0.7C219.5,300.8,219.4,300.7,219.3,300.7L219.3,300.7z M222.2,296.7
	c-0.2,0-0.3,0.1-0.4,0.2c-0.1,0.2-0.3,0.4-0.4,0.6c0,0,0,0,0,0c0,0,0,0,0,0c0,0.1-0.1,0.1-0.1,0.2c-0.2,0.2-0.1,0.5,0.1,0.7
	c0.1,0.1,0.2,0.1,0.3,0.1c0.2,0,0.3-0.1,0.4-0.2c0.2-0.3,0.4-0.6,0.6-0.8c0.2-0.2,0.1-0.5-0.1-0.7
	C222.4,296.7,222.3,296.7,222.2,296.7L222.2,296.7z M407,292c-0.2,0-0.4,0.1-0.4,0.3c-0.1,0.3-0.2,0.6-0.4,0.9
	c-0.1,0.3,0,0.5,0.3,0.7c0.1,0,0.1,0,0.2,0c0.2,0,0.4-0.1,0.4-0.3c0.1-0.3,0.3-0.6,0.4-0.9c0.1-0.3,0-0.5-0.3-0.6
	C407.1,292,407.1,292,407,292L407,292z M405,296.5c-0.2,0-0.3,0.1-0.4,0.3c-0.1,0.3-0.3,0.6-0.4,0.9c-0.1,0.2,0,0.5,0.2,0.7
	c0.1,0,0.2,0.1,0.2,0.1c0.2,0,0.3-0.1,0.4-0.3c0.1-0.3,0.3-0.6,0.4-0.9c0.1-0.2,0-0.5-0.2-0.7C405.1,296.5,405.1,296.5,405,296.5
	L405,296.5z M402.7,300.9c-0.2,0-0.3,0.1-0.4,0.3c-0.2,0.3-0.3,0.6-0.5,0.9c-0.1,0.2-0.1,0.5,0.2,0.7c0.1,0,0.2,0.1,0.3,0.1
	c0.2,0,0.3-0.1,0.4-0.2c0.1-0.2,0.2-0.4,0.4-0.6c0,0,0,0,0,0c0,0,0,0,0,0c0,0,0,0,0,0c0,0,0,0,0,0c0,0,0,0,0,0c0,0,0,0,0,0
	c0,0,0,0,0,0c0,0,0,0,0,0c0,0,0,0,0,0c0,0,0,0,0,0c0,0,0,0,0,0c0,0,0,0,0,0c0,0,0,0,0,0c0,0,0,0,0,0c0,0,0,0,0,0c0,0,0,0,0,0
	c0.1-0.2,0.1-0.5-0.2-0.7C402.9,300.9,402.8,300.9,402.7,300.9L402.7,300.9z M400.1,305.2c-0.2,0-0.3,0.1-0.4,0.2
	c-0.2,0.3-0.4,0.6-0.5,0.8c-0.2,0.2-0.1,0.5,0.1,0.7c0.1,0.1,0.2,0.1,0.3,0.1c0.2,0,0.3-0.1,0.4-0.2c0.1-0.1,0.1-0.2,0.2-0.3l0,0
	c0,0,0,0,0-0.1c0,0,0,0,0,0c0,0,0-0.1,0.1-0.1c0,0,0,0,0,0c0,0,0,0,0,0c0,0,0,0,0,0c0,0,0,0,0,0c0,0,0,0,0,0c0,0,0-0.1,0.1-0.1
	c0,0,0,0,0,0c0,0,0,0,0,0c0,0,0,0,0,0c0-0.1,0.1-0.1,0.1-0.2c0.2-0.2,0.1-0.5-0.1-0.7C400.3,305.2,400.2,305.2,400.1,305.2
	L400.1,305.2z M397.3,309.2c-0.1,0-0.3,0.1-0.4,0.2c-0.2,0.3-0.4,0.5-0.6,0.8c-0.2,0.2-0.1,0.5,0.1,0.7c0.1,0.1,0.2,0.1,0.3,0.1
	c0.1,0,0.3-0.1,0.4-0.2c0,0,0.1-0.1,0.1-0.1c0,0,0,0,0,0c0,0,0,0,0,0c0,0,0-0.1,0.1-0.1c0,0,0,0,0,0c0.1-0.2,0.3-0.4,0.4-0.5
	c0.2-0.2,0.1-0.5-0.1-0.7C397.5,309.3,397.4,309.2,397.3,309.2L397.3,309.2z M394.2,313.1c-0.1,0-0.3,0.1-0.4,0.2
	c-0.2,0.3-0.4,0.5-0.6,0.8c-0.2,0.2-0.2,0.5,0.1,0.7c0.1,0.1,0.2,0.1,0.3,0.1c0.1,0,0.3-0.1,0.4-0.2c0,0,0.1-0.1,0.1-0.1
	c0,0,0,0,0,0c0,0,0,0,0,0c0,0,0,0,0,0c0,0,0,0,0,0c0.1-0.1,0.2-0.3,0.4-0.4c0,0,0,0,0,0c0,0,0,0,0,0c0,0,0,0,0,0c0,0,0,0,0,0
	c0,0,0,0,0.1-0.1c0.2-0.2,0.1-0.5-0.1-0.7C394.4,313.2,394.3,313.1,394.2,313.1L394.2,313.1z M390.9,316.8c-0.1,0-0.3,0.1-0.3,0.2
	c-0.2,0.2-0.5,0.5-0.7,0.7c-0.2,0.2-0.2,0.5,0,0.7c0.1,0.1,0.2,0.1,0.4,0.1c0.1,0,0.2-0.1,0.3-0.1c0.1-0.1,0.2-0.2,0.3-0.3
	c0,0,0,0,0,0c0,0,0,0,0,0c0,0,0,0,0,0c0,0,0,0,0,0c0,0,0,0,0,0c0,0,0,0,0,0c0,0,0,0,0,0c0,0,0,0,0,0c0,0,0,0,0,0c0,0,0,0,0,0
	c0,0,0,0,0,0c0,0,0,0,0,0c0,0,0,0,0,0c0,0,0,0,0,0c0,0,0.1-0.1,0.1-0.1c0.2-0.2,0.2-0.5,0-0.7C391.1,316.9,391,316.8,390.9,316.8
	L390.9,316.8z M387.3,320.3c-0.1,0-0.2,0-0.3,0.1c-0.2,0.2-0.5,0.5-0.7,0.7c-0.2,0.2-0.2,0.5,0,0.7c0.1,0.1,0.2,0.2,0.4,0.2
	c0.1,0,0.2,0,0.3-0.1c0.2-0.2,0.5-0.5,0.7-0.7c0.2-0.2,0.2-0.5,0-0.7C387.6,320.4,387.5,320.3,387.3,320.3L387.3,320.3z
	 M383.6,323.6c-0.1,0-0.2,0-0.3,0.1c-0.3,0.2-0.5,0.4-0.8,0.6c-0.2,0.2-0.2,0.5-0.1,0.7c0.1,0.1,0.3,0.2,0.4,0.2
	c0.1,0,0.2,0,0.3-0.1c0.3-0.2,0.5-0.4,0.8-0.6c0.2-0.2,0.2-0.5,0.1-0.7C383.9,323.7,383.8,323.6,383.6,323.6L383.6,323.6z
	 M379.7,326.7c-0.1,0-0.2,0-0.3,0.1c-0.3,0.2-0.5,0.4-0.8,0.6c-0.2,0.2-0.3,0.5-0.1,0.7c0.1,0.1,0.3,0.2,0.4,0.2
	c0.1,0,0.2,0,0.3-0.1c0.1-0.1,0.2-0.1,0.3-0.2c0,0,0,0,0,0c0,0,0,0,0,0c0,0,0,0,0,0c0,0,0,0,0,0c0.1-0.1,0.2-0.1,0.3-0.2
	c0,0,0,0,0,0c0,0,0,0,0,0c0,0,0,0,0,0c0,0,0,0,0,0c0,0,0,0,0.1-0.1c0.2-0.2,0.3-0.5,0.1-0.7C380.1,326.8,379.9,326.7,379.7,326.7
	L379.7,326.7z M375.7,329.6c-0.1,0-0.2,0-0.3,0.1c-0.3,0.2-0.5,0.4-0.8,0.5c-0.2,0.2-0.3,0.5-0.1,0.7c0.1,0.2,0.3,0.2,0.4,0.2
	c0.1,0,0.2,0,0.3-0.1c0,0,0,0,0,0c0,0,0,0,0,0c0,0,0,0,0,0c0.3-0.2,0.5-0.3,0.8-0.5c0.2-0.2,0.3-0.5,0.1-0.7
	C376,329.7,375.8,329.6,375.7,329.6L375.7,329.6z M371.5,332.3c-0.1,0-0.2,0-0.2,0.1c-0.3,0.2-0.6,0.3-0.9,0.5
	c-0.2,0.1-0.3,0.4-0.2,0.7c0.1,0.2,0.3,0.3,0.5,0.2c0.1,0,0.2,0,0.2-0.1c0.1,0,0.1-0.1,0.2-0.1c0,0,0,0,0,0c0,0,0,0,0,0c0,0,0,0,0,0
	c0,0,0,0,0,0c0,0,0,0,0,0c0,0,0,0,0,0c0,0,0,0,0,0c0,0,0,0,0,0c0,0,0,0,0,0c0,0,0,0,0,0c0,0,0,0,0,0c0,0,0,0,0,0c0,0,0,0,0,0
	c0.1-0.1,0.2-0.1,0.3-0.2c0.2-0.1,0.3-0.4,0.2-0.7C371.8,332.4,371.7,332.3,371.5,332.3L371.5,332.3z M367.1,334.7
	c-0.1,0-0.1,0-0.2,0.1l-0.6,0.3l-0.3,0.1c-0.2,0.1-0.3,0.4-0.2,0.7c0.1,0.2,0.3,0.3,0.5,0.3c0.1,0,0.1,0,0.2-0.1
	c0.1,0,0.1-0.1,0.1-0.1c0,0,0.1,0,0.1-0.1l0,0c0.2-0.1,0.4-0.2,0.6-0.3c0.2-0.1,0.3-0.4,0.2-0.7
	C367.5,334.8,367.3,334.7,367.1,334.7L367.1,334.7z M362.7,336.9c-0.1,0-0.1,0-0.2,0c-0.3,0.1-0.6,0.3-0.9,0.4
	c-0.3,0.1-0.4,0.4-0.3,0.7c0.1,0.2,0.3,0.3,0.5,0.3c0.1,0,0.1,0,0.2,0c0,0,0,0,0,0c0,0,0,0,0,0c0,0,0,0,0,0c0,0,0,0,0,0c0,0,0,0,0,0
	c0.3-0.1,0.6-0.3,0.9-0.4c0.3-0.1,0.4-0.4,0.3-0.7C363.1,337,362.9,336.9,362.7,336.9L362.7,336.9z M358.1,338.8c-0.1,0-0.1,0-0.2,0
	c-0.3,0.1-0.6,0.2-0.9,0.3c-0.3,0.1-0.4,0.4-0.3,0.6c0.1,0.2,0.3,0.3,0.5,0.3c0.1,0,0.1,0,0.2,0c0.3-0.1,0.6-0.2,0.9-0.4
	c0.3-0.1,0.4-0.4,0.3-0.6C358.5,338.9,358.3,338.8,358.1,338.8L358.1,338.8z M353.4,340.4c0,0-0.1,0-0.1,0c-0.3,0.1-0.6,0.2-0.9,0.3
	c-0.3,0.1-0.4,0.4-0.3,0.6c0.1,0.2,0.3,0.4,0.5,0.4c0,0,0.1,0,0.1,0c0.3-0.1,0.6-0.2,1-0.3c0.3-0.1,0.4-0.4,0.3-0.6
	C353.8,340.6,353.6,340.4,353.4,340.4L353.4,340.4z M348.6,341.8c0,0-0.1,0-0.1,0c-0.3,0.1-0.6,0.2-1,0.2c-0.3,0.1-0.4,0.3-0.4,0.6
	c0.1,0.2,0.3,0.4,0.5,0.4c0,0,0.1,0,0.1,0c0,0,0.1,0,0.1,0c0,0,0,0,0,0c0,0,0,0,0,0c0.3-0.1,0.6-0.1,0.8-0.2
	c0.3-0.1,0.4-0.3,0.4-0.6C349.1,341.9,348.8,341.8,348.6,341.8L348.6,341.8z M343.8,342.9C343.7,342.9,343.7,342.9,343.8,342.9
	c-0.4,0.1-0.7,0.1-1,0.2c-0.3,0.1-0.5,0.3-0.4,0.6c0,0.2,0.3,0.4,0.5,0.4c0,0,0,0,0.1,0c0,0,0,0,0.1,0c0,0,0,0,0,0c0,0,0,0,0,0
	c0.2,0,0.5-0.1,0.7-0.1c0,0,0,0,0,0c0,0,0,0,0,0c0.1,0,0.1,0,0.2,0c0.3-0.1,0.4-0.3,0.4-0.6C344.2,343.1,344,342.9,343.8,342.9
	L343.8,342.9z M338.9,343.7C338.8,343.7,338.8,343.7,338.9,343.7c-0.4,0.1-0.7,0.1-1,0.1c-0.3,0-0.5,0.3-0.4,0.6
	c0,0.3,0.3,0.4,0.5,0.4c0,0,0,0,0,0c0,0,0,0,0,0c0,0,0,0,0,0c0,0,0,0,0,0c0,0,0,0,0,0c0.3,0,0.6-0.1,0.9-0.1c0.3,0,0.5-0.3,0.4-0.6
	C339.3,343.9,339.1,343.7,338.9,343.7L338.9,343.7z M333.9,344.3C333.9,344.3,333.9,344.3,333.9,344.3c-0.4,0-0.7,0.1-1,0.1
	c-0.3,0-0.5,0.3-0.5,0.5c0,0.3,0.3,0.5,0.5,0.5c0,0,0,0,0,0c0.3,0,0.6-0.1,0.9-0.1c0,0,0,0,0,0c0,0,0,0,0,0c0,0,0,0,0,0c0,0,0,0,0,0
	c0.3,0,0.5-0.3,0.5-0.5C334.4,344.5,334.2,344.3,333.9,344.3L333.9,344.3z M328,344.7c-0.3,0-0.5,0.2-0.5,0.5c0,0.3,0.2,0.5,0.5,0.5
	c0.2,0,0.4,0,0.7,0c0,0,0,0,0,0c0,0,0,0,0,0c0,0,0,0,0,0c0,0,0,0,0,0c0,0,0,0,0,0c0,0,0,0,0,0c0,0,0,0,0,0c0,0,0,0,0,0
	c0,0,0,0,0.1,0l0,0c0,0,0.1,0,0.1,0c0.3,0,0.5-0.2,0.5-0.5c0-0.3-0.2-0.5-0.5-0.5c0,0,0,0,0,0l-0.1,0
	C328.6,344.6,328.3,344.7,328,344.7C328,344.7,328,344.7,328,344.7L328,344.7z M323,344.7c-0.3,0-0.5,0.2-0.5,0.5
	c0,0.3,0.2,0.5,0.5,0.5c0.2,0,0.4,0,0.6,0c0,0,0,0,0,0c0,0,0,0,0,0c0,0,0,0,0,0c0,0,0,0,0,0c0,0,0,0,0,0c0,0,0,0,0,0c0,0,0,0,0,0
	c0,0,0,0,0,0c0,0,0,0,0,0c0,0,0.1,0,0.2,0c0,0,0,0,0,0c0.3,0,0.5-0.2,0.5-0.5c0-0.3-0.2-0.5-0.5-0.5
	C323.7,344.7,323.3,344.7,323,344.7C323,344.7,323,344.7,323,344.7L323,344.7z M318,344.5c-0.3,0-0.5,0.2-0.5,0.5
	c0,0.3,0.2,0.5,0.5,0.5c0.3,0,0.7,0,1,0.1c0,0,0,0,0,0c0.3,0,0.5-0.2,0.5-0.5c0-0.3-0.2-0.5-0.5-0.5
	C318.7,344.5,318.4,344.5,318,344.5C318,344.5,318,344.5,318,344.5L318,344.5z M313.1,344c-0.2,0-0.4,0.2-0.5,0.4
	c0,0.3,0.2,0.5,0.4,0.6c0.1,0,0.1,0,0.1,0c0,0,0,0,0,0c0,0,0,0,0,0c0,0,0,0,0.1,0c0,0,0,0,0,0c0.2,0,0.5,0.1,0.7,0.1c0,0,0,0,0.1,0
	c0.2,0,0.5-0.2,0.5-0.4c0-0.3-0.2-0.5-0.4-0.5C313.8,344.1,313.5,344.1,313.1,344C313.1,344,313.1,344,313.1,344L313.1,344z
	 M308.1,343.4c-0.2,0-0.4,0.2-0.5,0.4c0,0.3,0.1,0.5,0.4,0.6c0.3,0.1,0.7,0.1,1,0.2c0,0,0.1,0,0.1,0c0.2,0,0.4-0.2,0.5-0.4
	c0-0.3-0.1-0.5-0.4-0.6C308.9,343.5,308.5,343.4,308.1,343.4C308.2,343.4,308.2,343.4,308.1,343.4L308.1,343.4z M303.2,342.5
	c-0.2,0-0.4,0.2-0.5,0.4c-0.1,0.3,0.1,0.5,0.4,0.6c0.1,0,0.1,0,0.2,0c0,0,0,0,0,0c0,0,0,0,0,0c0.3,0.1,0.5,0.1,0.8,0.1
	c0,0,0.1,0,0.1,0c0.2,0,0.4-0.2,0.5-0.4c0.1-0.3-0.1-0.5-0.4-0.6c-0.3-0.1-0.6-0.1-1-0.2C303.3,342.5,303.3,342.5,303.2,342.5
	L303.2,342.5z M298.4,341.4c-0.2,0-0.4,0.2-0.5,0.4c-0.1,0.3,0.1,0.5,0.4,0.6c0.1,0,0.2,0,0.3,0.1c0,0,0,0,0,0c0,0,0,0,0.1,0
	c0,0,0,0,0,0c0,0,0,0,0,0c0,0,0,0,0,0c0,0,0,0,0,0c0,0,0,0,0,0c0,0,0,0,0,0c0,0,0,0,0,0c0,0,0,0,0,0c0,0,0,0,0,0c0,0,0,0,0,0
	c0,0,0,0,0,0c0,0,0,0,0,0c0,0,0,0,0,0c0,0,0,0,0,0c0,0,0,0,0,0c0,0,0,0,0,0c0,0,0,0,0,0c0,0,0,0,0,0c0,0,0,0,0,0c0,0,0,0,0,0
	c0,0,0,0,0,0c0,0,0.1,0,0.1,0c0.2,0,0.4-0.2,0.5-0.4c0.1-0.3-0.1-0.5-0.4-0.6c-0.3-0.1-0.6-0.2-1-0.2
	C298.5,341.4,298.4,341.4,298.4,341.4L298.4,341.4z M293.6,340.1c-0.2,0-0.4,0.1-0.5,0.4c-0.1,0.3,0.1,0.5,0.3,0.6
	c0.1,0,0.2,0.1,0.3,0.1c0,0,0,0,0,0c0,0,0,0,0,0c0,0,0,0,0,0c0,0,0,0,0,0c0,0,0,0,0,0c0,0,0,0,0,0c0,0,0,0,0,0c0,0,0,0,0,0
	c0,0,0,0,0,0c0,0,0,0,0,0c0,0,0,0,0,0c0,0,0,0,0.1,0c0,0,0,0,0,0c0,0,0,0,0,0c0,0,0,0,0,0c0,0,0,0,0,0c0,0,0,0,0,0c0,0,0,0,0,0
	c0,0,0,0,0.1,0c0,0,0,0,0,0c0,0,0,0,0.1,0c0.1,0,0.1,0,0.2,0c0.2,0,0.4-0.1,0.5-0.4c0.1-0.3-0.1-0.5-0.3-0.6c-0.3-0.1-0.6-0.2-1-0.3
	C293.7,340.1,293.6,340.1,293.6,340.1L293.6,340.1z M288.8,338.6c-0.2,0-0.4,0.1-0.5,0.3c-0.1,0.3,0.1,0.5,0.3,0.6c0,0,0,0,0.1,0
	c0,0,0,0,0,0c0,0,0,0,0,0c0.2,0.1,0.4,0.1,0.6,0.2c0,0,0,0,0,0c0,0,0,0,0,0c0,0,0,0,0,0c0,0,0,0,0,0c0.1,0,0.1,0,0.2,0.1
	c0.1,0,0.1,0,0.2,0c0.2,0,0.4-0.1,0.5-0.3c0.1-0.3-0.1-0.5-0.3-0.6c-0.3-0.1-0.6-0.2-0.9-0.3C288.9,338.6,288.9,338.6,288.8,338.6
	L288.8,338.6z M284.1,336.9c-0.2,0-0.4,0.1-0.4,0.3c-0.1,0.3,0,0.5,0.3,0.6c0.2,0.1,0.3,0.1,0.5,0.2c0,0,0,0,0,0c0,0,0,0,0,0
	c0,0,0,0,0.1,0c0,0,0,0,0,0c0.1,0,0.2,0.1,0.3,0.1c0.1,0,0.1,0,0.2,0c0.2,0,0.4-0.1,0.4-0.3c0.1-0.3,0-0.5-0.3-0.6
	c-0.3-0.1-0.6-0.2-0.9-0.4C284.3,336.9,284.2,336.9,284.1,336.9L284.1,336.9z M279.5,335c-0.2,0-0.4,0.1-0.4,0.3
	c-0.1,0.3,0,0.5,0.3,0.7c0.2,0.1,0.5,0.2,0.7,0.3c0,0,0,0,0,0c0,0,0,0,0,0c0.1,0,0.1,0.1,0.2,0.1c0.1,0,0.1,0,0.2,0
	c0.2,0,0.4-0.1,0.4-0.3c0.1-0.3,0-0.5-0.3-0.7c-0.3-0.1-0.6-0.3-0.9-0.4C279.7,335,279.6,335,279.5,335L279.5,335z M275,332.9
	c-0.2,0-0.3,0.1-0.4,0.3c-0.1,0.2,0,0.5,0.2,0.7c0.2,0.1,0.5,0.2,0.7,0.3c0,0,0,0,0,0c0,0,0,0,0,0c0.1,0,0.1,0.1,0.2,0.1
	c0.1,0,0.2,0.1,0.2,0c0.2,0,0.4-0.1,0.4-0.3c0.1-0.2,0-0.5-0.2-0.7c-0.3-0.1-0.6-0.3-0.9-0.4C275.2,332.9,275.1,332.9,275,332.9
	L275,332.9z M270.6,330.7c-0.2,0-0.3,0.1-0.4,0.3c-0.1,0.2,0,0.5,0.2,0.7c0,0,0.1,0,0.1,0.1c0,0,0,0,0,0c0,0,0,0,0,0c0,0,0,0,0,0
	c0,0,0,0,0,0c0,0,0,0,0,0c0,0,0,0,0,0c0,0,0.1,0,0.1,0.1c0,0,0,0,0,0c0,0,0,0,0.1,0c0,0,0,0,0,0c0,0,0,0,0,0c0,0,0,0,0,0
	c0,0,0,0,0,0c0,0,0,0,0,0c0,0,0,0,0,0c0,0,0,0,0,0c0,0,0,0,0,0c0,0,0,0,0,0c0,0,0,0,0,0c0,0,0,0,0,0c0,0,0,0,0,0c0,0,0,0,0,0
	c0,0,0.1,0,0.1,0.1c0.1,0,0.2,0.1,0.3,0.1c0.2,0,0.3-0.1,0.4-0.3c0.1-0.2,0-0.5-0.2-0.7c-0.3-0.2-0.6-0.3-0.9-0.5
	C270.7,330.7,270.7,330.6,270.6,330.7L270.6,330.7z M266.2,328.2c-0.2,0-0.3,0.1-0.4,0.2c-0.1,0.2-0.1,0.5,0.2,0.7
	c0.3,0.2,0.6,0.3,0.9,0.5c0.1,0,0.2,0.1,0.3,0.1c0.2,0,0.3-0.1,0.4-0.3c0.1-0.2,0.1-0.5-0.2-0.7c-0.3-0.2-0.6-0.3-0.9-0.5
	C266.4,328.2,266.3,328.2,266.2,328.2L266.2,328.2z M262,325.6c-0.2,0-0.3,0.1-0.4,0.2c-0.1,0.2-0.1,0.5,0.2,0.7
	c0.1,0.1,0.3,0.2,0.4,0.2c0,0,0,0,0,0c0,0,0,0,0.1,0c0,0,0,0,0,0c0,0,0,0,0,0c0,0,0,0,0,0c0,0,0,0,0,0c0,0,0,0,0,0c0,0,0,0,0,0
	c0,0,0,0,0,0c0.1,0.1,0.2,0.1,0.2,0.2c0.1,0.1,0.2,0.1,0.3,0.1c0.2,0,0.3-0.1,0.4-0.2c0.1-0.2,0.1-0.5-0.2-0.7
	c-0.3-0.2-0.6-0.4-0.8-0.5C262.2,325.7,262.1,325.6,262,325.6L262,325.6z M257.8,322.9c-0.2,0-0.3,0.1-0.4,0.2
	c-0.2,0.2-0.1,0.5,0.1,0.7c0,0,0.1,0.1,0.1,0.1c0,0,0,0,0,0c0,0,0,0,0,0c0.2,0.1,0.4,0.3,0.6,0.4c0.1,0.1,0.2,0.1,0.3,0.1
	c0.2,0,0.3-0.1,0.4-0.2c0.2-0.2,0.1-0.5-0.1-0.7c-0.3-0.2-0.5-0.4-0.8-0.6C258,322.9,257.9,322.9,257.8,322.9L257.8,322.9z
	 M253.8,320c-0.1,0-0.3,0.1-0.4,0.2c-0.2,0.2-0.1,0.5,0.1,0.7c0,0,0,0,0.1,0c0,0,0,0,0,0c0,0,0,0,0,0c0.2,0.2,0.5,0.3,0.7,0.5
	c0.1,0.1,0.2,0.1,0.3,0.1c0.1,0,0.3-0.1,0.4-0.2c0.2-0.2,0.1-0.5-0.1-0.7c-0.3-0.2-0.5-0.4-0.8-0.6C254,320,253.9,320,253.8,320
	L253.8,320z M249.8,316.9c-0.1,0-0.3,0.1-0.4,0.2c-0.2,0.2-0.1,0.5,0.1,0.7c0.1,0.1,0.1,0.1,0.2,0.2c0,0,0,0,0,0c0,0,0,0,0,0
	c0,0,0,0,0,0c0,0,0,0,0,0c0.2,0.1,0.3,0.3,0.5,0.4c0.1,0.1,0.2,0.1,0.3,0.1c0.1,0,0.3-0.1,0.4-0.2c0.2-0.2,0.1-0.5-0.1-0.7
	c-0.3-0.2-0.5-0.4-0.8-0.6C250,317,249.9,316.9,249.8,316.9L249.8,316.9z M246,313.8c-0.1,0-0.3,0.1-0.4,0.2
	c-0.2,0.2-0.2,0.5,0.1,0.7c0.1,0.1,0.2,0.2,0.3,0.2c0,0,0,0,0,0c0,0,0,0,0,0c0.1,0.1,0.3,0.2,0.4,0.4c0.1,0.1,0.2,0.1,0.3,0.1
	c0.1,0,0.3-0.1,0.4-0.2c0.2-0.2,0.2-0.5-0.1-0.7c-0.3-0.2-0.5-0.4-0.8-0.6C246.2,313.8,246.1,313.8,246,313.8L246,313.8z
	 M242.2,310.5c-0.1,0-0.3,0.1-0.4,0.2c-0.2,0.2-0.2,0.5,0,0.7c0,0,0,0,0,0c0.2,0.1,0.3,0.3,0.5,0.4c0,0,0,0,0,0c0,0,0,0,0,0
	c0,0,0,0,0,0c0,0,0,0,0,0c0.1,0.1,0.1,0.1,0.2,0.2c0.1,0.1,0.2,0.1,0.3,0.1c0.1,0,0.3-0.1,0.4-0.2c0.2-0.2,0.2-0.5,0-0.7l-0.7-0.7
	C242.5,310.5,242.4,310.5,242.2,310.5L242.2,310.5z M238.6,307.1c-0.1,0-0.3,0.1-0.3,0.2c-0.2,0.2-0.2,0.5,0,0.7
	c0.1,0.1,0.2,0.2,0.3,0.3c0,0,0,0,0,0c0,0,0,0,0,0c0,0,0,0,0,0c0,0,0,0,0,0c0.1,0.1,0.1,0.1,0.2,0.2c0,0,0,0,0,0c0,0,0,0,0,0
	c0,0,0.1,0.1,0.1,0.1c0.1,0.1,0.2,0.1,0.4,0.1s0.3-0.1,0.3-0.2c0.2-0.2,0.2-0.5,0-0.7l-0.7-0.7C238.8,307.1,238.7,307.1,238.6,307.1
	L238.6,307.1z M234.9,303.7c-0.1,0-0.2,0.1-0.3,0.2c-0.2,0.2-0.2,0.5,0,0.7c0.1,0.1,0.1,0.1,0.2,0.2c0.2,0.2,0.4,0.3,0.5,0.5
	c0.1,0.1,0.2,0.1,0.4,0.1c0.1,0,0.2-0.1,0.3-0.2c0.2-0.2,0.2-0.5,0-0.7l-0.7-0.7C235.2,303.7,235.1,303.6,234.9,303.7L234.9,303.7z
	 M231.4,300.2c-0.1,0-0.2,0.1-0.3,0.1c-0.2,0.2-0.2,0.5,0,0.7c0,0,0.1,0.1,0.1,0.1c0,0,0,0,0,0c0,0,0,0,0,0c0.2,0.2,0.4,0.4,0.6,0.6
	c0.1,0.1,0.2,0.1,0.4,0.1c0.1,0,0.2-0.1,0.3-0.1c0.2-0.2,0.2-0.5,0-0.7l-0.7-0.7C231.6,300.2,231.5,300.2,231.4,300.2L231.4,300.2z
	 M227.8,296.6c-0.1,0-0.2,0.1-0.3,0.1c-0.2,0.2-0.2,0.5,0,0.7c0,0,0,0,0,0c0.2,0.2,0.5,0.5,0.7,0.7c0.1,0.1,0.2,0.2,0.4,0.1
	c0.1,0,0.2-0.1,0.3-0.1c0.2-0.2,0.2-0.5,0-0.7l-0.7-0.7C228.1,296.7,228,296.6,227.8,296.6L227.8,296.6z M224.3,293.1
	c-0.2,0.2-0.3,0.5-0.5,0.7c0,0.1,0.1,0.1,0.1,0.2c0.2,0.2,0.4,0.4,0.6,0.6c0,0,0.1,0.1,0.1,0.1c0.1,0.1,0.2,0.1,0.4,0.1
	c0.1,0,0.2-0.1,0.3-0.1c0.2-0.2,0.2-0.5,0-0.7l-0.7-0.7C224.6,293.1,224.4,293.1,224.3,293.1L224.3,293.1z M226.8,289.5
	c-0.2,0-0.3,0.1-0.4,0.2c0,0.1-0.1,0.1-0.1,0.2h0c0,0,0,0,0,0c0,0,0,0,0,0c0,0,0,0,0,0c0,0,0,0,0,0c0,0,0,0,0,0c0,0,0,0,0,0.1
	c0,0,0,0,0,0c0,0,0,0,0,0c0,0,0,0,0,0c0,0,0,0,0,0c0,0,0,0,0,0c0,0,0,0,0,0c0,0,0,0,0,0c0,0,0,0,0,0c0,0,0,0,0,0c0,0,0,0,0,0
	c0,0,0,0,0,0l0,0c0,0.1-0.1,0.1-0.1,0.2c-0.1,0.2-0.1,0.5,0.2,0.7c0.1,0.1,0.2,0.1,0.3,0.1c0.2,0,0.3-0.1,0.4-0.2
	c0.2-0.3,0.4-0.6,0.5-0.9c0.1-0.2,0.1-0.5-0.2-0.7C227,289.5,226.9,289.5,226.8,289.5L226.8,289.5z M229.4,285.2
	c-0.2,0-0.3,0.1-0.4,0.2c0,0,0,0,0,0c0,0,0,0,0,0c0,0,0,0,0,0c0,0,0,0,0,0c0,0,0,0,0,0c0,0,0,0,0,0c0,0,0,0,0,0c0,0,0,0,0,0
	c0,0,0,0,0,0c0,0,0,0,0,0c0,0,0,0,0,0c0,0,0,0,0,0c0,0,0,0,0,0c0,0,0,0,0,0c0,0,0,0,0,0c-0.1,0.2-0.2,0.3-0.3,0.5c0,0,0,0,0,0
	c-0.1,0.2-0.1,0.5,0.2,0.7c0.1,0.1,0.2,0.1,0.3,0.1c0.2,0,0.3-0.1,0.4-0.2c0.2-0.3,0.3-0.6,0.5-0.9c0.1-0.2,0.1-0.5-0.2-0.7
	C229.6,285.2,229.5,285.2,229.4,285.2L229.4,285.2z M231.9,280.8c-0.2,0-0.3,0.1-0.4,0.3c-0.2,0.3-0.3,0.6-0.5,0.9
	c-0.1,0.2,0,0.5,0.2,0.7c0.1,0,0.2,0.1,0.3,0.1c0.2,0,0.3-0.1,0.4-0.3l0.5-0.9c0.1-0.2,0-0.5-0.2-0.7
	C232,280.9,232,280.8,231.9,280.8L231.9,280.8z M234.2,276.4c-0.2,0-0.3,0.1-0.4,0.3c-0.2,0.3-0.3,0.6-0.5,0.9
	c-0.1,0.2,0,0.5,0.2,0.7c0.1,0,0.2,0.1,0.3,0.1c0.2,0,0.3-0.1,0.4-0.3l0.5-0.9c0.1-0.2,0-0.5-0.2-0.7
	C234.4,276.4,234.3,276.4,234.2,276.4L234.2,276.4z M236.5,271.9c-0.2,0-0.3,0.1-0.4,0.3c-0.1,0.1-0.1,0.3-0.2,0.4
	c-0.1,0.2-0.2,0.3-0.3,0.5c-0.1,0.2,0,0.5,0.2,0.7c0.1,0,0.2,0.1,0.2,0.1c0.2,0,0.3-0.1,0.4-0.3l0.4-0.9c0.1-0.2,0-0.5-0.2-0.7
	C236.6,272,236.6,271.9,236.5,271.9L236.5,271.9z M238.6,267.4c-0.2,0-0.4,0.1-0.4,0.3c-0.1,0.2-0.2,0.4-0.3,0.7c0,0,0,0,0,0
	c0,0,0,0,0,0c0,0,0,0,0,0c0,0,0,0,0,0c0,0.1-0.1,0.1-0.1,0.2c-0.1,0.2,0,0.5,0.2,0.7c0.1,0,0.2,0.1,0.2,0c0.2,0,0.4-0.1,0.4-0.3
	l0.4-0.9c0.1-0.2,0-0.5-0.2-0.7C238.8,267.4,238.7,267.4,238.6,267.4L238.6,267.4z M240.7,262.9c-0.2,0-0.4,0.1-0.4,0.3
	c0,0.1-0.1,0.2-0.1,0.3c-0.1,0.2-0.2,0.4-0.3,0.7c-0.1,0.3,0,0.5,0.2,0.7c0.1,0,0.2,0,0.2,0c0.2,0,0.4-0.1,0.4-0.3l0.4-0.9
	c0.1-0.3,0-0.5-0.2-0.7C240.9,262.9,240.8,262.9,240.7,262.9L240.7,262.9z M242.8,258.3c-0.2,0-0.4,0.1-0.4,0.3
	c-0.1,0.3-0.3,0.6-0.4,0.9c-0.1,0.3,0,0.5,0.3,0.7c0.1,0,0.1,0,0.2,0c0.2,0,0.4-0.1,0.4-0.3l0.4-0.9c0.1-0.3,0-0.5-0.3-0.7
	C242.9,258.3,242.8,258.3,242.8,258.3L242.8,258.3z M244.7,253.7c-0.2,0-0.4,0.1-0.4,0.3c0,0.1-0.1,0.2-0.1,0.2c0,0,0,0,0,0
	c0,0,0,0.1,0,0.1c0,0,0,0,0,0c0,0,0,0,0,0c-0.1,0.2-0.1,0.3-0.2,0.5c-0.1,0.3,0,0.5,0.3,0.7c0.1,0,0.1,0,0.2,0
	c0.2,0,0.4-0.1,0.4-0.3l0.4-0.9c0.1-0.3,0-0.5-0.3-0.7C244.9,253.7,244.8,253.7,244.7,253.7L244.7,253.7z M246.6,249.1
	c-0.2,0-0.4,0.1-0.4,0.3c0,0.1,0,0.1-0.1,0.2c0,0,0,0,0,0.1c0,0,0,0,0,0c-0.1,0.2-0.2,0.5-0.3,0.7c-0.1,0.3,0,0.5,0.3,0.7
	c0.1,0,0.1,0,0.2,0c0.2,0,0.4-0.1,0.4-0.3l0.4-0.9c0.1-0.3,0-0.5-0.3-0.7C246.8,249.1,246.7,249.1,246.6,249.1L246.6,249.1z
	 M248.5,244.4c-0.2,0-0.4,0.1-0.4,0.3c0,0.1-0.1,0.2-0.1,0.3c0,0,0,0,0,0c0,0,0,0,0,0c-0.1,0.2-0.1,0.3-0.2,0.5
	c-0.1,0.3,0,0.5,0.3,0.7c0.1,0,0.1,0,0.2,0c0.2,0,0.4-0.1,0.4-0.3l0.4-0.9c0.1-0.3,0-0.5-0.3-0.6
	C248.7,244.4,248.6,244.4,248.5,244.4L248.5,244.4z M250.4,239.8c-0.2,0-0.4,0.1-0.4,0.3c0,0.1-0.1,0.2-0.1,0.3
	c-0.1,0.2-0.2,0.4-0.3,0.7c-0.1,0.3,0,0.5,0.3,0.6c0.1,0,0.1,0,0.2,0c0.2,0,0.4-0.1,0.4-0.3l0.4-0.9c0.1-0.3,0-0.5-0.3-0.6
	C250.5,239.8,250.4,239.8,250.4,239.8L250.4,239.8z M252.2,235.1c-0.2,0-0.4,0.1-0.4,0.3c0,0.1,0,0.1-0.1,0.2
	c-0.1,0.3-0.2,0.5-0.3,0.8c-0.1,0.3,0,0.5,0.3,0.6c0.1,0,0.1,0,0.2,0c0.2,0,0.4-0.1,0.4-0.3l0.4-0.9c0.1-0.3,0-0.5-0.3-0.6
	C252.3,235.1,252.2,235.1,252.2,235.1L252.2,235.1z"/>
</svg>
