<!-- Generator: Adobe Illustrator 18.0.0, SVG Export Plug-In  -->
<svg version="1.1"
	 xmlns="http://www.w3.org/2000/svg" xmlns:xlink="http://www.w3.org/1999/xlink" xmlns:a="http://ns.adobe.com/AdobeSVGViewerExtensions/3.0/"
	 x="0px" y="0px" width="202.3px" height="119.9px" viewBox="0 0 202.3 119.9" enable-background="new 0 0 202.3 119.9"
	 xml:space="preserve">
<defs>
</defs>
<g>
	<g>
		<path fill="#FFFFFF" d="M30.4,2l141.6,0c2,0,3.8,0.7,5.2,2.1c1.4,1.3,2.1,3.1,2.1,4.9l0,97.7l-156.3,0L23,9C23,5.1,26.3,2,30.4,2
			L30.4,2 M30.4,0C25.2,0,21,4,21,9l0,99.7l160.3,0l0-99.7c0-5-4.2-9-9.4-9L30.4,0C30.4,0,30.4,0,30.4,0L30.4,0z"/>
	</g>
</g>
<g>
	<g>
		<path fill="#FFFFFF" d="M35.7,12.4l131,0l0,88.6l-131,0L35.7,12.4 M33.7,10.4l0,92.6l135,0l0-92.6L33.7,10.4L33.7,10.4z"/>
	</g>
</g>
<g>
	<g>
		<path fill="#FFFFFF" d="M2,108.7l198.3,0.1l0,9.1L2,117.8L2,108.7 M0,106.7l0,13.1l202.3,0.1l0-13.1L0,106.7L0,106.7z"/>
	</g>
</g>
</svg>
