<!-- Generator: Adobe Illustrator 18.0.0, SVG Export Plug-In  -->
<svg version="1.1"
	 xmlns="http://www.w3.org/2000/svg" xmlns:xlink="http://www.w3.org/1999/xlink" xmlns:a="http://ns.adobe.com/AdobeSVGViewerExtensions/3.0/"
	 x="0px" y="0px" width="61.3px" height="81.6px" viewBox="0 0 61.3 81.6" enable-background="new 0 0 61.3 81.6"
	 xml:space="preserve">
<defs>
</defs>
<path fill="#FFFFFF" d="M27.5,0.8l0.6,0c1.6,0,3.1-0.1,4.7-0.1c2.8,0,5.1,0.1,7.2,0.3c3.9,1.3,7.4,2.8,10.6,4.6
	c1,0.9,1.9,1.9,2.7,2.8c0.4,0.4,0.8,0.9,1.2,1.3c2.4,2.5,3.2,6.6,3.9,10.3c0.3,1.3,0.5,2.5,0.8,3.7c0.1,0.2,0.1,0.4,0.2,0.5
	c0.7,3.7,1,6.8,1,9.7c0,3.4-0.7,6.6-1.4,9.9c0,0.2-0.1,0.3-0.1,0.5c0.3-0.1,0.5-0.1,0.8-0.2c0-0.1,0-0.1,0-0.2
	c0.7-3.2,1.4-6.6,1.4-10.1c0-3-0.4-6.1-1.1-9.9c-0.1-0.2-0.1-0.3-0.2-0.5c-0.3-1.1-0.5-2.3-0.8-3.6c-0.8-3.7-1.6-7.9-4.1-10.6
	c-0.4-0.4-0.8-0.8-1.2-1.3c-0.9-1-1.8-2-2.8-2.9c-3.3-1.9-6.9-3.5-10.9-4.7C38,0.1,35.7,0,32.8,0c-1.6,0-3.1,0-4.7,0.1l-0.6,0
	c-9,0.2-20.3,4.6-24.3,12.8c-0.1,0.3-0.3,0.6-0.6,0.9c-1.1,2.4-1.9,4.7-2.2,7c-0.9,5.6,0,11.5,1,17c0.2,0.8,0.3,1.7,0.4,2.6
	c0.3,0,0.5,0.1,0.8,0.1c-0.1-1-0.3-2-0.4-2.9c-1-5.1-1.9-11.1-1-16.8c0.3-2.2,1.1-4.4,2.1-6.7c0.2-0.3,0.4-0.6,0.6-1
	C7.8,5.3,18.7,1,27.5,0.8z"/>
<path fill="#FFFFFF" d="M53.1,51.6h0.8c0.1-0.3,0.2-0.5,0.3-0.8h-0.1c0.7-3.7,4.8-28.1-3.8-31.9c-1.1-0.5-2.4-0.8-3.7-0.8
	c-3.4,0-6.8,1.8-9.8,3.3c-2.4,1.2-4.6,2.4-6.3,2.4c-1.7,0-3.9-1.2-6.3-2.4c-3-1.6-6.4-3.3-9.8-3.3c-1.3,0-2.5,0.3-3.7,0.8
	C2,22.7,6.1,47.1,6.8,50.8h0c0.1,0.2,0.1,0.5,0.2,0.8h0.8l-0.1-0.4c-0.1-0.3-5.3-27.7,3.3-31.6c1.1-0.5,2.2-0.7,3.4-0.7
	c3.2,0,6.6,1.7,9.5,3.2c2.4,1.3,4.7,2.5,6.6,2.5c1.9,0,4.2-1.2,6.6-2.5c2.9-1.5,6.3-3.2,9.5-3.2c1.2,0,2.3,0.2,3.4,0.7
	c8.6,3.8,3.4,31.3,3.3,31.6L53.1,51.6z"/>
<path fill-rule="evenodd" clip-rule="evenodd" fill="none" stroke="#FFFFFF" stroke-width="0.75" stroke-miterlimit="10" d="
	M6.3,55.1C5.1,46,4.5,41.4,4.5,41.4c-1.2-1.2-1.9-1.5-2.5-1c-1,0.9-0.6,3.8,0.8,8.1c0.8,2.3,1.6,4.3,2,6.1
	C5.1,55.6,5.7,55.6,6.3,55.1L6.3,55.1z"/>
<path fill-rule="evenodd" clip-rule="evenodd" fill="none" stroke="#FFFFFF" stroke-width="0.75" stroke-miterlimit="10" d="
	M54.7,55.6c1.2-9.2,1.8-13.8,1.8-13.8c1.2-1.2,1.9-1.5,2.5-1c1,0.9,0.7,3.8-0.8,8.1c-0.7,2.3-1.5,4.3-1.9,6.1
	C56,56,55.3,56,54.7,55.6L54.7,55.6z"/>
<path fill="#FFFFFF" d="M30.6,78.5c-0.1,0-0.3,0-0.4,0v0.8c0,0,0,0,0,0v1.5c-0.9,0-1.8,0-2.7,0l-0.2,0c-2.1,0-3.3-0.5-4.6-1.9
	l-3-2.6c0,0,0,0-0.1-0.1l-7.6-6.6c-2.3-2.3-3.8-4.6-4.3-6.7c-0.6-3.5-1.3-9.1-2.3-17l-0.3-2.3c-0.2,0-0.3,0-0.5,0
	c-0.1,0-0.2,0-0.2,0l0.3,2.4C5.7,54,6.5,59.7,7,63.2c0.5,2.2,2.1,4.6,4.5,7.1l10.6,9.2c1.4,1.5,2.8,2.1,5.1,2.1l0.2,0c1,0,2,0,3.1,0
	h0.4v-3H30.6z"/>
<path fill="#FFFFFF" d="M11.3,64.3c-2.6-6.2-3.9-12.9-4.8-20.8c-0.2,0.1-0.5,0.2-0.7,0.2c0.9,8,2.2,14.7,4.8,20.9
	c1.2,2.9,5.3,7.3,9.1,10.7c0,0,0.1,0,0.1,0c0,0,0.1,0,0.1,0.1c0.1,0,0.2,0.1,0.3,0.1c0.2,0,0.4,0.1,0.7,0c0.1,0,0.1,0,0.2,0
	C17.1,72.1,12.5,67.2,11.3,64.3z"/>
<path fill="#FFFFFF" d="M54.4,43.1C54.4,43.1,54.4,43.1,54.4,43.1c-0.8,8-2,14.7-4.5,20.9c-1.1,2.8-5.2,7.3-8.9,10.7
	c0.1,0,0.3,0.1,0.3,0.2c0.1-0.1,0.2-0.2,0.4-0.2c0,0,0,0,0,0c0.1-0.1,0.3-0.2,0.4-0.3c0.1-0.1,0.1-0.1,0.2-0.1
	c0.1-0.1,0.2-0.2,0.3-0.2c3.4-3.3,6.8-7.2,7.9-9.8c2.6-6.4,3.8-13.3,4.6-21.4C54.9,43,54.7,43.1,54.4,43.1z"/>
<path fill="#FFFFFF" d="M55.8,42.7l-0.4,3c-0.9,7.9-1.6,13.6-2.1,17c-0.5,2.1-1.9,4.4-4.2,6.7l-10.5,9.4c-1.2,1.4-2.4,1.9-4.5,1.9
	l-0.2,0c-0.9,0-1.8,0-2.7,0l0,0c-0.3,0-0.5-0.1-0.8-0.1l0,0.9l0.4,0c1,0,2,0,3.1,0l0.2,0c2.3,0,3.7-0.6,5-2.1L49.7,70
	c2.4-2.4,3.9-4.9,4.4-7.1c0.5-3.5,1.2-9.2,2.1-17l0.4-3.7C56.4,42.4,56.1,42.6,55.8,42.7z"/>
<path fill-rule="evenodd" clip-rule="evenodd" fill="none" stroke="#FFFFFF" stroke-width="0.5" stroke-miterlimit="10" d="
	M24.2,64.7c0.2,1.3,1.5,2.1,3,2.5c0.9,0.2,2,0.3,3.3,0.4v-2.9c-0.6,0-1.1-0.2-1.5-0.5c-0.5-0.1-1-0.1-1.6,0.1
	C26.5,64.6,25.5,64.7,24.2,64.7L24.2,64.7z"/>
<path fill-rule="evenodd" clip-rule="evenodd" fill="none" stroke="#FFFFFF" stroke-width="0.5" stroke-miterlimit="10" d="
	M25.9,60.4c-1.1,0.6-2.2,1.4-3.2,2.4c-0.6,0.6-1.4,1.2-2.2,1.5c0,0,0,0,0,0c3.1-1,6.8-2.4,10.2-2.4v-1.6c-0.7,0-1.4-0.2-1.9-0.3
	C27.7,60.1,26.8,60.2,25.9,60.4z"/>
<path fill-rule="evenodd" clip-rule="evenodd" fill="none" stroke="#FFFFFF" stroke-width="0.5" stroke-miterlimit="10" d="
	M36.9,64.7c-0.2,1.3-1.5,2.1-3,2.5c-0.9,0.2-2,0.3-3.3,0.4v-2.9c0.6,0,1.1-0.2,1.5-0.5c0.5-0.1,1-0.1,1.6,0.1
	C34.6,64.6,35.7,64.7,36.9,64.7L36.9,64.7z"/>
<path fill-rule="evenodd" clip-rule="evenodd" fill="none" stroke="#FFFFFF" stroke-width="0.5" stroke-miterlimit="10" d="M35,60.2
	c-0.1,0-0.3-0.1-0.4-0.1c-0.2,0-1.1-0.2-1.1-0.2c-0.2,0-0.4,0-0.6,0c-0.7,0.2-1.4,0.5-2.4,0.4v1.6c0.7,0,1.4,0.1,2.1,0.2
	c0.9,0.2,6.5,2.3,8.6,2.4c0,0,0,0,0,0c-0.9-0.3-2-1-2.8-1.8C37.4,61.7,36.2,60.8,35,60.2z"/>
<path fill-rule="evenodd" clip-rule="evenodd" fill="none" stroke="#FFFFFF" stroke-width="0.5" stroke-miterlimit="10" d="
	M37.1,34.1c2.5-2.1,5.2-3.6,8.6-3.7c2.4-0.1,4.3,0.8,6.2,1.8c0.7,0.2,1.4,0.3,2.2,0.5c1.7,0,0-1.5-1.5-2.2
	c-2.4-1.3-5.9-2.1-10.9-1.4c-2.4,0.7-5.3,2.5-5.3,4.4c0,0.3,0.1,0.6,0.3,0.8C36.9,34.3,37,34.2,37.1,34.1z"/>
<path fill-rule="evenodd" clip-rule="evenodd" fill="none" stroke="#FFFFFF" stroke-width="0.5" stroke-miterlimit="10" d="
	M8.2,34.3c0.4-0.5,0.8-1,1.5-1.4c4-2.2,8-3.7,12.5-2.2c1.1,0.3,1.8,0.9,2.3,1.6c0.3-0.3,0.5-0.8,0.4-1.3c-0.5-1.9-3.7-2.9-6.2-3
	c-5,0.5-8.2,2.2-10.2,4c-1.3,1-2.5,2.9-0.9,2.5C7.9,34.5,8.1,34.4,8.2,34.3z"/>
<rect x="30.4" y="24.3" fill="#FFFFFF" width="0.3" height="56.1"/>
<path fill="#FFFFFF" d="M30.3,70.8c-1.4,0.2-2.4,0.8-3,1.7c-1.6,1.7-3.5,2.5-5.6,2.5c-0.5,0-1-0.1-1.6-0.2l-1.5-0.3l1.3,0.8
	c0.1,0,0.1,0.1,0.2,0.2c0,0,0.1,0,0.2,0c0.2,0,0.5,0,0.7,0c0,0,0,0,0,0c2.4,0.2,4.7-0.7,6.6-2.7c0.5-0.7,1.3-1.2,2.4-1.4v6.8
	c0,0,0,0,0,0.1v0.6c0.1,0,0.1,0,0.2,0l0.2,0v-8L30.3,70.8z"/>
<path fill="#FFFFFF" d="M40.4,75.2c0.5-0.2,1-0.4,1.4-0.7l-0.3-0.2l-0.1,0.1c-0.9,0.4-1.9,0.7-2.8,0.7c-1.9,0-3.7-0.9-5.1-2.5
	c-0.6-0.9-1.5-1.5-2.8-1.7l-0.3-0.1v8l0.2,0c0.1,0,0.2,0,0.3,0v-1.2c0,0,0,0,0,0v-6.2c1,0.2,1.7,0.7,2.2,1.5
	c1.6,1.8,3.5,2.7,5.5,2.7C39.2,75.5,39.8,75.4,40.4,75.2z"/>
</svg>
