<!-- Generator: Adobe Illustrator 18.0.0, SVG Export Plug-In  -->
<svg version="1.1"
	 xmlns="http://www.w3.org/2000/svg" xmlns:xlink="http://www.w3.org/1999/xlink" xmlns:a="http://ns.adobe.com/AdobeSVGViewerExtensions/3.0/"
	 x="0px" y="0px" width="129.6px" height="41.8px" viewBox="0 0 129.6 41.8" enable-background="new 0 0 129.6 41.8"
	 xml:space="preserve">
<defs>
</defs>
<g>
	<path fill="#FFFFFF" stroke="#FFFFFF" stroke-width="0.5" stroke-miterlimit="10" d="M55.6,2.2c1,1.3,2,2.6,3,3.8
		c0.5,0.6,1,1.3,1.5,1.9c0.2,0.3,0.5,0.7,0.8,1c3,3.7,6,7.6,9.4,11.8c-0.5,0.6-1,1.2-1.5,1.8c-0.8,1-1.6,2-2.3,2.9
		c-0.8,1-1.5,1.9-2.3,2.9l-0.1,0.1c-0.1,0.1-0.1,0.2-0.2,0.2c-0.2,0.2-0.3,0.3-0.4,0.5l-1.2,1.5c-1.2,1.5-2.4,3-3.5,4.5
		c-0.8,1-1.6,2-2.3,2.9c-0.3,0.4-0.7,0.8-1,1.2h-9.1c0.1-0.1,0.1-0.2,0.2-0.3l1.3-1.6l0.1-0.1c0-0.1,0.1-0.1,0.1-0.2
		c1.1-1.3,2.1-2.7,3.2-4c0.8-1,1.6-2,2.4-3c0.9-1.2,1.8-2.3,2.8-3.5c1.1-1.4,2.3-2.8,3.4-4.3c0.9-1.1,0.9-2.4,0-3.5l-2-2.5
		c-2.4-3-4.8-6.1-7.2-9.1L50.3,7c-0.8-1-1.5-1.9-2.3-2.9c-0.5-0.6-1-1.2-1.5-1.9H55.6 M56.4,0.2c-4.6,0-9.3,0-13.9,0
		c-0.1,0.2,0.1,0.3,0.2,0.4c1.2,1.6,2.5,3.1,3.7,4.7c0.9,1.1,1.8,2.3,2.7,3.4c3.1,3.9,6.2,7.8,9.2,11.6c0.3,0.4,0.3,0.6,0,1
		c-2.1,2.6-4.1,5.2-6.2,7.7c-1.9,2.3-3.7,4.7-5.6,7c-0.1,0.1-0.2,0.2-0.2,0.3c-1.2,1.6-2.5,3.1-3.7,4.7c-0.1,0.1-0.3,0.2-0.2,0.4
		c4.6,0,9.3,0,13.9,0c0.3-0.1,0.4-0.3,0.6-0.5c1.2-1.5,2.3-2.9,3.5-4.4c1.6-2,3.2-4.1,4.8-6.1c0.1-0.1,0.1-0.2,0.2-0.3
		c0.1-0.1,0.2-0.3,0.4-0.4c1.6-1.9,3.1-3.9,4.6-5.8c0.7-0.9,1.4-1.8,2.1-2.7c0.3-0.3,0.3-0.6,0-0.9c-3.4-4.2-6.8-8.5-10.1-12.7
		c-0.3-0.3-0.5-0.6-0.7-0.9c-1.7-2.1-3.3-4.2-5-6.2C56.8,0.4,56.6,0.3,56.4,0.2L56.4,0.2z"/>
	<path fill="#FFFFFF" stroke="#FFFFFF" stroke-width="0.5" stroke-miterlimit="10" d="M72,2.2c0,0.1,0.1,0.1,0.2,0.2
		c0.1,0.1,0.2,0.3,0.3,0.4c1.7,2.1,3.4,4.3,5.1,6.4c1.8,2.2,3.5,4.4,5.3,6.7c0.1,0.2,0.3,0.3,0.4,0.5c0.2,0.2,0.3,0.4,0.5,0.6
		c1,1.3,2,2.6,3.1,3.9c-0.5,0.7-1.1,1.3-1.6,2c-0.5,0.6-1,1.2-1.5,1.8l-0.1,0.1c0,0.1-0.1,0.1-0.1,0.2c-1.6,2-3.2,4-4.7,5.9
		l-0.2,0.3c-1,1.2-2,2.5-3,3.7c-0.6,0.8-1.3,1.6-1.9,2.4c-0.3,0.4-0.7,0.9-1.1,1.3c-0.2,0.3-0.4,0.6-0.7,0.8h-9.1l0.1-0.1
		c0.6-0.8,1.3-1.6,1.9-2.4c0.9-1.2,1.9-2.4,2.9-3.6c0.1-0.2,0.2-0.3,0.3-0.4c1.7-2.1,3.3-4.2,4.9-6.2c0.6-0.8,1.3-1.6,1.9-2.4
		c0.5-0.7,1-1.3,1.6-2c0.8-1,0.8-2.2,0-3.2c-0.8-1-1.5-1.9-2.3-2.9c-0.9-1.1-1.8-2.2-2.7-3.3c-0.2-0.3-0.5-0.6-0.8-1
		c-2.3-2.9-4.7-5.9-7-8.8l-0.8-1.1H72 M72.8,0.2c-4.6,0-9.3,0-13.9,0c-0.2,0.2,0.1,0.3,0.2,0.5c3.4,4.2,6.7,8.5,10.1,12.7
		c0.3,0.3,0.5,0.6,0.7,0.9c1.6,2.1,3.3,4.2,5,6.2c0.2,0.2,0.2,0.4,0,0.7c-1.2,1.4-2.3,2.9-3.5,4.3c-1.7,2.1-3.3,4.2-5,6.3
		c-0.1,0.1-0.1,0.2-0.2,0.3c-1.6,2-3.2,4-4.8,6c-0.8,1-1.6,2-2.3,2.9c-0.1,0.1-0.3,0.2-0.1,0.4c4.6,0,9.3,0,13.9,0
		c0.2-0.1,0.3-0.3,0.4-0.4c0.7-0.9,1.4-1.7,2-2.5c1.6-2,3.2-4.1,4.9-6.1c1.6-2.1,3.2-4.1,4.9-6.2c0.1-0.1,0.2-0.2,0.2-0.3
		c1.2-1.6,2.5-3.1,3.7-4.7c0.2-0.3,0.2-0.5,0-0.8c-1.3-1.6-2.5-3.1-3.7-4.7c-0.3-0.4-0.6-0.7-0.9-1.1C80.9,10.3,77.4,6,74,1.6
		C73.6,1.1,73.3,0.6,72.8,0.2L72.8,0.2z"/>
	<path fill="#FFFFFF" stroke="#FFFFFF" stroke-width="0.5" stroke-miterlimit="10" d="M3.7,8.1l0.2-0.7h2c0.1,0,0.3-0.1,0.4-0.1
		c0.2,0,0.3,0,0.5,0c0.1,0,0.3,0,0.5,0c0.2,0,0.3,0,0.4,0.1h42.1c-0.4-0.6-0.7-1.2-0.9-1.9H7.2l0.1-0.2C6.6,5.4,6,5.5,5.3,5.5
		c0,0-0.1,0-0.1,0l0,0h-5v30.1H4l0,0.1c0.5-0.1,1.1-0.1,1.7-0.1c0.1,0,0.1,0,0.2,0l0-0.1h42.7c0.3-0.7,0.7-1.3,1.2-1.9H3.1L3,32.8
		C2.2,24.7,2,19,2.3,15.4C2.6,13,3,10.6,3.7,8.1z"/>
	<path fill="#FFFFFF" stroke="#FFFFFF" stroke-width="0.5" stroke-miterlimit="10" d="M124.3,5.2c-0.2,0-0.4,0-0.7,0
		c-0.4,0-0.9,0-1.3-0.1l0.1,0.3H76c0.4,0.6,0.7,1.2,0.9,1.9h45.2c0.1,0,0.3-0.1,0.4-0.1c0.2,0,0.3,0,0.5,0c0.2,0,0.3,0,0.5,0
		c0.2,0,0.3,0,0.4,0.1h1.8l0.2,0.7c0.7,2.5,1.1,4.9,1.4,7.3c0.4,3.6,0.1,9.3-0.7,17.5l-0.1,0.9h-2.8c-0.1,0-0.2,0-0.4,0
		c-0.1,0-0.2,0-0.3,0l0,0H77.7c-0.3,0.5-0.6,1-1,1.5c-0.1,0.1-0.1,0.3-0.2,0.4h47.2l0,0.1c0.2,0,0.4,0,0.7,0c0.4,0,0.8,0,1.2,0.1
		l0-0.1h3.7V5.5h-4.9L124.3,5.2z"/>
</g>
</svg>
