<!-- Generator: Adobe Illustrator 18.0.0, SVG Export Plug-In  -->
<svg version="1.1"
	 xmlns="http://www.w3.org/2000/svg" xmlns:xlink="http://www.w3.org/1999/xlink" xmlns:a="http://ns.adobe.com/AdobeSVGViewerExtensions/3.0/"
	 x="0px" y="0px" width="61px" height="80.3px" viewBox="0 0 61 80.3" enable-background="new 0 0 61 80.3" xml:space="preserve">
<defs>
</defs>
<path fill-rule="evenodd" clip-rule="evenodd" fill="none" stroke="#FFFFFF" stroke-miterlimit="10" d="M47.7,29.4
	c1.7,0.3,2.8,1.6,3.9,2.8c1.5,1.6,2.9,0.6,2.9-0.6c0-2.1-3.2-4-5.9-4.7c-5.5-0.7-9.4,0.2-12,1.7C35,29.3,33.2,31,35.1,31
	C41.3,29.5,43.8,28.9,47.7,29.4L47.7,29.4z"/>
<path fill="none" stroke="#FFFFFF" stroke-width="0.75" stroke-miterlimit="10" d="M12.5,1.1c-1,10.4,35.2-3.4,45.1,13.2
	c4.9,8.2,2.4,24.9,2.4,24.9s-1.3-1.2-2.6-1.3S55.7,48,55.7,48h-1.5c0,0-0.6-5.1-2-8.8c0,0-2.1-3.8-0.7-6.3
	c1.4-2.5-1.4-11.8-4.3-13.2c-2.9-1.4-4.8,5.5-15.7,7.9s-21.1,2.1-21.1,2.1s-1.1,3.2-0.6,3.8c0.5,0.6-0.8,5.6-0.8,5.6
	C7.6,42.9,7,48,7,48H5.5c0,0-0.4-10.3-1.7-10.1s-2.6,1.3-2.6,1.3s-2.7-14.8,1.6-23.4C6.7,8,12.5,1.1,12.5,1.1z"/>
<path fill="#FFFFFF" d="M56.7,37.5c-1.2,9.1-2.3,17-3.2,23.5c-0.6,3-2.3,5.6-5.3,7.9l-10.4,9.5c-0.9,0.9-2.2,1.2-5,1.2
	c-0.6,0-1.3,0-2.1,0c-4.3,0.1-5.9-0.1-7.1-1.2L13,68.8c-3-2.2-4.8-4.8-5.3-7.8c-0.9-6.2-1.9-13.8-3.1-22.5c-0.2,0.1-0.4,0.2-0.7,0.3
	c0,0,0,0,0,0.1c1.2,8.6,2.2,16.1,3,22.3c0.6,3.2,2.5,6,5.6,8.3L23,78.9c1.1,1.1,2.5,1.4,5.5,1.4c0.6,0,1.3,0,2.1,0
	c0.8,0,1.5,0,2.1,0c3,0,4.4-0.4,5.5-1.4l10.4-9.5c3.1-2.3,5-5.1,5.6-8.3c0.9-6.4,2-14.3,3.2-23.4C57.1,37.7,56.9,37.6,56.7,37.5z"/>
<path fill-rule="evenodd" clip-rule="evenodd" fill="none" stroke="#FFFFFF" stroke-width="0.75" stroke-miterlimit="10" d="
	M54.8,53.8c1.2-9.2,1.9-13.8,1.9-13.8c1.2-1.2,1.9-1.5,2.5-1c1,1,0.6,3.8-0.8,8.1c-0.8,2.3-1.6,4.3-2,6.1
	C56.1,54.2,55.4,54.3,54.8,53.8L54.8,53.8z"/>
<path fill="#FFFFFF" d="M30.9,79.9c-0.7,0-1.4-0.2-2-0.4c-3.1,0-4.5-0.3-5.5-1.2L13,68.8c-3-2.2-4.8-4.8-5.3-7.8
	c-0.9-6.2-1.9-13.8-3.1-22.5c-0.2,0-0.5,0-0.8,0C5.1,47.2,6.1,54.8,7,61.1c0.6,3.2,2.5,6,5.6,8.3L23,78.9c1.1,1.1,2.5,1.4,5.5,1.4
	c0.6,0,1.3,0,2.1,0l0.4,0L30.9,79.9C31,79.9,30.9,79.9,30.9,79.9z"/>
<path fill-rule="evenodd" clip-rule="evenodd" fill="none" stroke="#FFFFFF" stroke-width="0.5" stroke-miterlimit="10" d="
	M24.2,66.1c0.2,1,1.5,1.6,3,1.9c0.9,0.1,2,0.2,3.3,0.3v-2.2c-0.6,0-1.1-0.1-1.5-0.4c-0.5-0.1-1-0.1-1.6,0
	C26.6,66.1,25.5,66.2,24.2,66.1L24.2,66.1z"/>
<path fill-rule="evenodd" clip-rule="evenodd" fill="none" stroke="#FFFFFF" stroke-width="0.5" stroke-miterlimit="10" d="M37,66.1
	c-0.2,1-1.5,1.6-3,1.9c-0.9,0.1-2,0.2-3.3,0.3v-2.2c0.6,0,1.1-0.1,1.5-0.4c0.5-0.1,1-0.1,1.6,0C34.6,66.1,35.7,66.2,37,66.1L37,66.1
	z"/>
<path fill-rule="evenodd" clip-rule="evenodd" fill="none" stroke="#FFFFFF" stroke-width="0.75" stroke-miterlimit="10" d="
	M6.3,53.8C5.1,44.6,4.5,40,4.5,40c-1.2-1.2-1.9-1.5-2.5-1c-1,1-0.6,3.8,0.8,8.1c0.8,2.3,1.6,4.3,2,6.1C5.1,54.2,5.7,54.3,6.3,53.8
	L6.3,53.8z"/>
<rect x="30.5" y="27.9" fill="#FFFFFF" width="0.3" height="52.4"/>
<path fill-rule="evenodd" clip-rule="evenodd" fill="none" stroke="#FFFFFF" stroke-miterlimit="10" d="M19.3,29.7
	c1.7,0.1,3.1-0.9,4.4-1.9c1.8-1.2,3,0,2.7,1.2c-0.5,2-4,3.2-6.8,3.3c-5.5-0.5-9.1-2.3-11.3-4.3c-1.4-1.1-2.8-3.1-1-2.7
	C13,28.2,15.3,29.4,19.3,29.7L19.3,29.7z"/>
<path fill-rule="evenodd" clip-rule="evenodd" fill="none" stroke="#FFFFFF" stroke-width="0.5" stroke-miterlimit="10" d="
	M26.8,61.2c-1,0.4-2.1,1-3.2,1.8c-0.7,0.5-1.5,0.9-2.2,1.1c0,0,0,0,0,0c2.9-0.5,6.3-1.2,9.2-0.6l0.3-1.6c-0.6-0.1-1.1-0.4-1.6-0.7
	C28.4,61.3,27.6,61.3,26.8,61.2z"/>
<path fill-rule="evenodd" clip-rule="evenodd" fill="none" stroke="#FFFFFF" stroke-width="0.5" stroke-miterlimit="10" d="
	M34.4,61.1c-0.1,0-0.2,0-0.3,0c-0.2,0-1,0-1,0c-0.2,0-0.4,0.1-0.6,0.1c-0.6,0.3-1.1,0.7-1.9,0.8l0.3,1.6c0.6-0.1,1.2-0.2,1.9-0.2
	c0.8,0,6,1.2,7.8,0.9c0,0,0,0,0,0c-0.9-0.2-1.9-0.6-2.7-1.2C36.7,62.2,35.5,61.5,34.4,61.1z"/>
</svg>
