<!-- Generator: Adobe Illustrator 18.0.0, SVG Export Plug-In  -->
<svg version="1.1"
	 xmlns="http://www.w3.org/2000/svg" xmlns:xlink="http://www.w3.org/1999/xlink" xmlns:a="http://ns.adobe.com/AdobeSVGViewerExtensions/3.0/"
	 x="0px" y="0px" width="237.1px" height="201.7px" viewBox="0 0 237.1 201.7" enable-background="new 0 0 237.1 201.7"
	 xml:space="preserve">
<defs>
</defs>
<path fill="#FFFFFF" d="M237,200c-0.8-7.4-2.1-12.4-3.8-15.1c-5.8-9.1-21.6-15.2-39.8-22.3l-0.1-0.1c-5-1.9-10.1-3.9-15.3-6.1
	c-17.8-7.4-25.3-11.2-27.8-12.5l-0.2-20.5c2.2-2.1,8.6-9.6,11.2-26.7c2.8-0.2,5.7-2.3,8.1-5.8c2.1-3,3.6-6.9,3.7-9.6
	c0.2-3.2-0.1-13.4-4.1-17.6c-0.9-1-1.9-1.6-3.1-1.9c0.3-2.2,0.5-4.2,0.7-6h3V30.2h-4.2C159.9,15.1,143.3,0,118.5,0
	C93.7,0,77.1,15.1,71.6,30.2h-4.2V56h3c0.2,1.8,0.4,3.8,0.7,6C70,62.2,69,62.8,68,63.8c-4,4.2-4.3,14.4-4.1,17.6
	c0.2,2.8,1.6,6.5,3.7,9.6c1.4,2.1,4.4,5.5,8.1,5.8c2.6,17.1,9.1,24.6,11.3,26.7L86.9,144c-2.6,1.4-10,5.1-27.8,12.5
	c-5.2,2.2-10.4,4.2-15.4,6.1c-18.2,7.1-33.9,13.2-39.8,22.3c-1.6,2.5-2.9,7.4-3.7,14.4L0,200.3l3.6,0.6l0.1-0.5
	c0.2-0.9,0.4-1.7,0.6-2.5l0.1-0.5c0-0.4,0.1-0.7,0.2-1l0.2-1.1c0.1-0.3,0.1-0.6,0.2-0.9L5,194c0-0.2,0.1-0.3,0.1-0.5
	c0.1-0.3,0.1-0.6,0.2-0.8l0.1-0.5c0-0.1,0.1-0.3,0.1-0.4c0.1-0.3,0.1-0.5,0.2-0.7l0.1-0.4c0-0.1,0.1-0.2,0.1-0.3
	c0.1-0.2,0.2-0.5,0.2-0.7l0.1-0.3c0-0.1,0.1-0.2,0.1-0.3c0.1-0.2,0.2-0.4,0.3-0.6l0.1-0.3c0-0.1,0.1-0.1,0.1-0.2
	c0.2-0.3,0.3-0.6,0.5-0.8c5.1-8,20.3-13.9,37.8-20.7c5-2,10.2-4,15.5-6.2c23.3-9.7,29.1-13.2,29.3-13.3l0.9-0.6l0.2-23.6l0-1
	l-0.8-0.6c0,0-0.5-0.4-1.3-1.4c-2.2-2.5-7.5-10.1-9.5-25.3l-0.3-2.3L77,92.7c-0.2,0.1-0.4,0.1-0.7,0.1c-3.7,0-8.1-7.6-8.4-11.7
	c-0.2-3.6,0.5-11.9,3-14.6c0.6-0.7,1.2-0.9,2-0.7l2.8,0.6L74.6,57c0-0.3-0.1-0.7-0.1-1h88.1l-1.3,10.4l2.8-0.6c0.8-0.2,1.4,0,2,0.7
	c2.6,2.7,3.2,11,3,14.6c-0.3,4.1-4.8,11.7-8.4,11.7c-0.2,0-0.4,0-0.7-0.1l-2.2-0.7l-0.3,2.3c-2.5,19.8-10.7,26.6-10.8,26.6l-0.8,0.6
	l0.2,24.6l0.9,0.6c0.1,0,1.9,1.2,7.8,3.9c0.6,0.3,1.3,0.6,2,0.9c4.2,2,9.4,4.2,15.2,6.7c1.4,0.6,2.8,1.2,4.4,1.8
	c5.2,2.2,10.5,4.2,15.5,6.2c16,6.2,29.9,11.6,36.2,18.5c0.6,0.7,1.2,1.4,1.7,2.2c0.2,0.3,0.3,0.6,0.5,0.9c0,0.1,0,0.1,0.1,0.2
	l0.1,0.2c0.1,0.2,0.2,0.5,0.3,0.7c0,0.1,0.1,0.2,0.1,0.3l0.1,0.3c0.1,0.2,0.2,0.5,0.2,0.7c0,0.1,0.1,0.2,0.1,0.4l0.1,0.5
	c0.1,0.2,0.1,0.4,0.2,0.7c0,0.2,0.1,0.3,0.1,0.5l0.1,0.5c0.1,0.3,0.1,0.5,0.2,0.8c0,0.2,0.1,0.4,0.1,0.6l0.1,0.5
	c0.1,0.3,0.1,0.6,0.2,0.9c0,0.2,0.1,0.4,0.1,0.7l0.1,0.7c0,0.3,0.1,0.6,0.1,0.9l0.1,0.8c0.2,0.7,0.4,1.5,0.5,2.3l0.1,0.6l3.7-0.9
	L237,200z M84.6,17.2l0.1-0.1c0.2-0.2,0.4-0.4,0.6-0.6c0.1-0.1,0.3-0.3,0.5-0.4l0.3-0.2c0.2-0.2,0.4-0.3,0.6-0.5
	c0.2-0.2,0.4-0.3,0.6-0.5l0.2-0.1c0.2-0.1,0.3-0.3,0.5-0.4c0.2-0.2,0.4-0.3,0.6-0.5l0.1-0.1c0.2-0.2,0.4-0.3,0.6-0.5
	c0.2-0.1,0.4-0.3,0.5-0.4l0.3-0.2c0.2-0.1,0.4-0.3,0.6-0.4c0.2-0.1,0.4-0.3,0.6-0.4l0.2-0.2c0.2-0.1,0.4-0.3,0.6-0.4
	c0.2-0.1,0.4-0.2,0.6-0.4l0.2-0.1c0.2-0.1,0.4-0.2,0.6-0.4c0.2-0.1,0.4-0.2,0.6-0.3l0.3-0.2c0.2-0.1,0.4-0.2,0.5-0.3
	c0.2-0.1,0.4-0.2,0.6-0.3L96.5,9c0.2-0.1,0.4-0.2,0.6-0.3l0.4-0.2c0.2-0.1,0.3-0.2,0.5-0.2c0.2-0.1,0.4-0.2,0.6-0.3L99,7.9
	c0.2-0.1,0.4-0.2,0.6-0.2c0.2-0.1,0.4-0.2,0.6-0.2l0.4-0.2c0.2-0.1,0.4-0.1,0.5-0.2c0.2-0.1,0.4-0.1,0.6-0.2l0.4-0.1
	c0.2-0.1,0.3-0.1,0.5-0.2c0.2-0.1,0.4-0.1,0.6-0.2l0.4-0.1c0.2-0.1,0.4-0.1,0.5-0.2c0.2-0.1,0.4-0.1,0.7-0.2l0.9-0.2
	c0.2-0.1,0.4-0.1,0.7-0.2l0.5-0.1c0.2,0,0.3-0.1,0.5-0.1c0.2,0,0.4-0.1,0.6-0.1l1-0.2c0.2,0,0.4-0.1,0.7-0.1l0.9-0.2
	c0.2,0,0.5-0.1,0.7-0.1l0.9-0.1c0.3,0,0.5-0.1,0.8-0.1l0.8-0.1c0.2,0,0.5,0,0.7-0.1l0.8-0.1c0.3,0,0.6,0,0.8,0l0.7,0
	c1,0,2.1,0,3.1,0l0.7,0c0.3,0,0.5,0,0.8,0l0.9,0.1c0.2,0,0.5,0,0.7,0.1l0.9,0.1c0.2,0,0.4,0,0.7,0.1l0.9,0.1c0.2,0,0.5,0.1,0.7,0.1
	l1,0.2c0.2,0,0.4,0.1,0.6,0.1l1,0.2c0.2,0,0.4,0.1,0.6,0.1l0.9,0.2c0.2,0.1,0.5,0.1,0.7,0.2l0.9,0.3c0.2,0.1,0.4,0.1,0.7,0.2
	c0.2,0,0.3,0.1,0.5,0.2l0.4,0.1c0.2,0.1,0.4,0.1,0.6,0.2l0.9,0.3c0.2,0.1,0.4,0.1,0.6,0.2c0.2,0.1,0.4,0.1,0.6,0.2l0.3,0.1
	c0.2,0.1,0.5,0.2,0.7,0.3l0.9,0.4c0.2,0.1,0.5,0.2,0.7,0.3c0.2,0.1,0.3,0.1,0.5,0.2l0.5,0.2c0.2,0.1,0.4,0.2,0.6,0.3l0.9,0.4
	c0.2,0.1,0.4,0.2,0.6,0.3c0.2,0.1,0.4,0.2,0.6,0.3l0.2,0.1c0.2,0.1,0.5,0.3,0.7,0.4c0.2,0.1,0.3,0.2,0.5,0.3l0.3,0.2
	c0.2,0.1,0.5,0.3,0.7,0.4c0.2,0.1,0.3,0.2,0.5,0.3l0.3,0.2c0.2,0.1,0.4,0.3,0.7,0.4l0.8,0.5c0.2,0.1,0.4,0.3,0.6,0.4
	c0.2,0.1,0.3,0.3,0.5,0.4l0.2,0.1c0.2,0.2,0.4,0.3,0.7,0.5c0.2,0.1,0.4,0.3,0.6,0.5l0.1,0.1c0.2,0.2,0.4,0.4,0.6,0.5
	c0.2,0.1,0.3,0.3,0.5,0.4l0.2,0.2c0.2,0.2,0.4,0.3,0.6,0.5c0.2,0.2,0.3,0.3,0.5,0.5l0.2,0.2c0.2,0.2,0.4,0.4,0.6,0.6
	c0.2,0.2,0.3,0.3,0.5,0.5l0.1,0.1c0.2,0.2,0.4,0.4,0.6,0.7c0.2,0.2,0.3,0.4,0.5,0.5l0.1,0.1c0.2,0.2,0.4,0.5,0.6,0.7
	c0.1,0.2,0.3,0.4,0.4,0.5l0.1,0.1c0.2,0.2,0.4,0.5,0.6,0.7c0.1,0.2,0.3,0.4,0.4,0.5l0.1,0.2c0.2,0.2,0.3,0.5,0.5,0.7
	c0.1,0.2,0.3,0.4,0.5,0.7c0.2,0.3,0.3,0.5,0.5,0.8c0.1,0.2,0.3,0.4,0.4,0.6l0.1,0.1c0.2,0.3,0.3,0.5,0.5,0.8
	c0.1,0.2,0.2,0.4,0.3,0.7l0,0.1c0.1,0.3,0.3,0.6,0.4,0.9c0.1,0.2,0.2,0.4,0.3,0.7l0.1,0.1c0.1,0.3,0.3,0.6,0.4,0.9
	c0.1,0.2,0.2,0.5,0.3,0.7H75.9c0.1-0.2,0.2-0.5,0.3-0.7c0.1-0.3,0.2-0.5,0.4-0.8c0.1-0.3,0.3-0.6,0.4-0.8c0.1-0.3,0.3-0.5,0.4-0.8
	c0.1-0.3,0.3-0.5,0.4-0.8c0.1-0.3,0.3-0.5,0.4-0.8c0.2-0.3,0.3-0.5,0.5-0.8c0.2-0.2,0.3-0.5,0.5-0.7c0.2-0.3,0.3-0.5,0.5-0.8
	c0.1-0.2,0.3-0.4,0.5-0.7c0.2-0.2,0.4-0.5,0.5-0.7c0.2-0.2,0.3-0.4,0.6-0.7c0.2-0.2,0.3-0.4,0.5-0.6c0.2-0.2,0.3-0.4,0.5-0.6
	l0.1-0.1c0.2-0.2,0.4-0.4,0.5-0.6c0.2-0.2,0.3-0.3,0.5-0.5l0.1-0.1c0.2-0.2,0.4-0.4,0.6-0.6C84.2,17.6,84.4,17.4,84.6,17.2z
	 M88.3,13.4L88.3,13.4L88.3,13.4L88.3,13.4z M74.2,33.6l0,0.5l0.1,0h88.7l0.2,0c0.1,0,0.1,0,0.2,0l0.2,0.1l0.2-0.1
	c0.1,0,0.1,0,0.2,0l0.1-0.5c0,0,0,0,0,0l0,0.5l0.6,0c0.4,1.7,0.8,3.4,0.9,5c0.3,2.6,0.1,6.8-0.5,12.8h0l0-0.3l-0.8,0.2l-0.2,0
	l-0.1,0.1c-0.1,0-0.1,0.1-0.3,0l-0.6-0.1l0,0.1H74l0-0.1l-1.5,0L72,52c-0.6-5.9-0.7-10.1-0.5-12.8c0.1-1.5,0.4-3.2,0.8-4.8l0.8-0.2
	l0.1,0c0.1,0,0.1,0,0.2,0l0.2,0.1l0.2-0.1c0.1,0,0.1,0,0.2,0L74.2,33.6C74.2,33.6,74.2,33.6,74.2,33.6z"/>
</svg>
