<!-- Generator: Adobe Illustrator 18.0.0, SVG Export Plug-In  -->
<svg version="1.1"
	 xmlns="http://www.w3.org/2000/svg" xmlns:xlink="http://www.w3.org/1999/xlink" xmlns:a="http://ns.adobe.com/AdobeSVGViewerExtensions/3.0/"
	 x="0px" y="0px" width="116.9px" height="99.8px" viewBox="0 0 116.9 99.8" enable-background="new 0 0 116.9 99.8"
	 xml:space="preserve">
<defs>
</defs>
<g>
	<path fill="#FFFFFF" d="M93.6,3c11.4,0,18.6,2.1,20.2,3.2c0.3,2-1.1,9.7-6.5,20.4c-3.5,7-11.1,19.8-22.8,27.2
		c-28,17.7-41,19.8-43.8,20.1c-2.2-1.4-9.4-6.1-13.7-12.7c-4.2-6.6-5.4-15.2-5.7-17.8c0.6-1,2.2-3.5,5.8-7.4
		c4.9-5.1,14.2-13.5,31.3-24.3C70.5,4.1,85.7,3,93.6,3 M81.8,37.9c2.2,0,4.3-0.6,6.2-1.8c5.4-3.4,7-10.6,3.6-16
		c-2.1-3.4-5.8-5.4-9.8-5.4c-2.2,0-4.3,0.6-6.2,1.8c-5.4,3.4-7,10.6-3.6,16C74.1,35.9,77.8,37.9,81.8,37.9 M37.7,8.5
		c2.1,0,4.1,0.3,6,0.8C35.2,15.3,28,21,22.3,26.5c-4.1-2.7-9.9-4.3-14.6-5.3c6.8-4.6,18.2-11.4,26.9-12.6
		C35.6,8.6,36.7,8.5,37.7,8.5 M15.9,61.9c0.8,1.7,1.7,3.3,2.6,4.7c0.6,0.9,1.2,1.8,1.8,2.6l-8.9,0.7L15.9,61.9 M79.2,68.9
		c-0.6,2-1.5,3.9-2.7,5.8C71.8,82,60.7,89.3,53.7,93.5c1-3.9,1.9-8.7,1.7-13C62.5,77.8,70.5,73.9,79.2,68.9 M93.6,0
		C81.9,0,67.9,2.3,57,9.2C23.4,30.5,18.3,42.8,18.3,42.8s0.7,11.3,6.2,20C30,71.4,40,76.9,40,76.9s0,0,0.1,0
		c1.5,0,14.5-0.6,46.1-20.6c22-13.9,33-47.4,30.3-51.8C115,2.3,105.5,0,93.6,0L93.6,0z M81.8,34.9c-2.8,0-5.6-1.4-7.3-4
		c-2.5-4-1.4-9.3,2.6-11.8c1.4-0.9,3-1.3,4.6-1.3c2.8,0,5.6,1.4,7.3,4c2.5,4,1.4,9.3-2.6,11.8C84.9,34.5,83.3,34.9,81.8,34.9
		L81.8,34.9z M37.7,5.5c-1.1,0-2.2,0.1-3.4,0.2C20.1,7.5,0,23.1,0,23.1s13.8,1.3,20.9,6.1c0.6,0.4,1.2,0.9,1.6,1.3
		C28,25,36.6,17.6,50,8.6C46.9,7,42.7,5.5,37.7,5.5L37.7,5.5z M16.4,55L6,73.3l20.4-1.5c-1.9-2-3.8-4.3-5.4-6.8
		C18.9,61.8,17.4,58.3,16.4,55L16.4,55z M83.2,63.1c-13.7,8.3-23.9,12.8-31,15.3c0,0,0,0.1,0,0.1c1.2,8.3-3.6,21.2-3.6,21.2
		S71.3,88.2,79,76.4C82.1,71.7,83.1,67,83.2,63.1L83.2,63.1z"/>
</g>
</svg>
