<!-- Generator: Adobe Illustrator 18.0.0, SVG Export Plug-In  -->
<svg version="1.1"
	 xmlns="http://www.w3.org/2000/svg" xmlns:xlink="http://www.w3.org/1999/xlink" xmlns:a="http://ns.adobe.com/AdobeSVGViewerExtensions/3.0/"
	 x="0px" y="0px" width="28.5px" height="28.5px" viewBox="0 0 28.5 28.5" enable-background="new 0 0 28.5 28.5"
	 xml:space="preserve">
<defs>
</defs>
<path fill="#FFFFFF" d="M17.8,14.2c0,2-1.6,3.6-3.5,3.6c-2,0-3.5-1.6-3.5-3.6c0-0.2,0-0.5,0.1-0.7H8.4v4.7c0,1,0.8,1.8,1.8,1.8h8
	c1,0,1.8-0.8,1.8-1.8v-4.7h-2.4C17.7,13.7,17.8,14,17.8,14.2 M18.2,8.3h-8c-1,0-1.8,0.8-1.8,1.8v2h3c0.6-0.9,1.7-1.5,2.9-1.5
	c1.2,0,2.2,0.6,2.9,1.5h3v-2C20.1,9.1,19.3,8.3,18.2,8.3 M19.1,10.6c0,0.2-0.1,0.3-0.3,0.3h-1c-0.2,0-0.3-0.1-0.3-0.3v-1
	c0-0.2,0.1-0.3,0.3-0.3h1c0.2,0,0.3,0.1,0.3,0.3V10.6z M16.4,14.2c0-1.2-1-2.2-2.2-2.2s-2.2,1-2.2,2.2c0,1.2,1,2.2,2.2,2.2
	S16.4,15.4,16.4,14.2"/>
<circle fill="none" stroke="#FFFFFF" stroke-width="0.75" stroke-miterlimit="10" cx="14.2" cy="14.2" r="13.9"/>
</svg>
