<!-- Generator: Adobe Illustrator 18.0.0, SVG Export Plug-In  -->
<svg version="1.1"
	 xmlns="http://www.w3.org/2000/svg" xmlns:xlink="http://www.w3.org/1999/xlink" xmlns:a="http://ns.adobe.com/AdobeSVGViewerExtensions/3.0/"
	 x="0px" y="0px" width="229.8px" height="229.8px" viewBox="0 0 229.8 229.8" enable-background="new 0 0 229.8 229.8"
	 xml:space="preserve">
<defs>
</defs>
<path fill="#FFFFFF" d="M229.6,108.8C226.3,47.8,176,0,115,0c-2.1,0-4.1,0.1-6.2,0.2C78.2,1.8,50,15.3,29.5,38.1
	C8.9,61-1.5,90.4,0.2,121c3.3,61,53.6,108.8,114.7,108.8c0,0,0,0,0,0c2.1,0,4.1-0.1,6.2-0.2c30.6-1.6,58.8-15.1,79.3-38
	C220.8,168.8,231.2,139.4,229.6,108.8z M106.3,131.8c-6.4,10.1-15.4,16.4-25.4,17.7c-0.6,0.1-1.3,0.1-1.9,0.1
	c-7.6,0-15.1-5.2-17.2-11.8c-1.9-6.1,1.4-15.8,10.2-20.7c3-1.7,6.2-2.5,9.8-2.5c7.2,0,15,3.5,20.9,9.4c1.5,1.5,3.2,3.3,5,5.5
	C107.2,130.3,106.7,131.1,106.3,131.8z M203.9,141.9c-8.2,6-17.2,9.4-26.8,10.1c-16.1,1.2-32.6-5.9-45.8-19.7
	c-1-1.2-2.1-2.4-3.1-3.6c-0.6-0.7-1.3-1.5-1.9-2.2c3.2-7.8,5.5-15.9,7.8-24.2c2.1-7.4,4.5-14.9,6.9-22.1c1.7-5,3.4-10.2,5-15.4
	c0.9-3,0.4-6.1-1.4-8.5c-2-2.7-5.3-4.3-8.7-4.3c-4.3,0-7.8,2.7-8.7,7c-1.2,5.7-2.3,11.5-3.4,17.2c-2.4,13-4.9,26.4-9.5,38.7
	c-10.1-7.6-22.8-12.2-34.2-12.2c-8.3,0-15.7,2.3-21.9,6.8c-9.1,6.7-14.5,17.1-14.4,27.9c0.1,11.6,7.4,21.7,19.4,27
	c4.6,2,9.3,3,14.1,3c17.2,0,32-12.8,40.6-25.2c9.9,11.4,19.6,18.1,31.6,21.9l0.1,0c7.8,2.1,15.2,3.2,22.7,3.2
	c4.4,0,8.8-0.4,13.3-1.1l0.1,0c6.4-1.3,12.5-3.4,18-6.1c-16.1,31.6-47.9,52.6-83.8,54.5c-1.8,0.1-3.6,0.1-5.4,0.1
	c-53.1,0-96.9-41.6-99.8-94.6C13.6,93.6,22.7,68,40.6,48.1s42.4-31.6,69-33c1.8-0.1,3.6-0.1,5.4-0.1c53.1,0,96.9,41.6,99.8,94.6
	c0.3,5.2,0.1,10.4-0.4,15.6C212.8,132,209.3,137.5,203.9,141.9z"/>
</svg>
