<!-- Generator: Adobe Illustrator 18.0.0, SVG Export Plug-In  -->
<svg version="1.1"
	 xmlns="http://www.w3.org/2000/svg" xmlns:xlink="http://www.w3.org/1999/xlink" xmlns:a="http://ns.adobe.com/AdobeSVGViewerExtensions/3.0/"
	 x="0px" y="0px" width="79.5px" height="85.6px" viewBox="0 0 79.5 85.6" enable-background="new 0 0 79.5 85.6"
	 xml:space="preserve">
<defs>
</defs>
<path fill="#FFFFFF" d="M42.3,85.5c0,0,0.1,0,0.1,0h0.2V33c-0.2-0.1-0.3-0.1-0.5-0.2V85c0,0,0,0-0.1,0
	C42.2,85.2,42.3,85.4,42.3,85.5z"/>
<path fill="#FFFFFF" d="M66.6,60.8l-0.5-0.2c4.6-15.2-5-19.4-16.2-24.2c-9.9-4.3-21-9.2-24.6-22.6L25,12.4l0.8,1.1
	c6.3,8.7,15.5,13.3,23.6,17.4C62,37.2,72.9,42.6,66.6,60.8z M26.2,15c3.9,12.2,14.5,16.8,24,21c9.4,4.1,17.7,7.7,17.7,17.7
	c1.4-12.2-7.6-16.7-18.6-22.2C41.3,27.5,32.5,23.1,26.2,15z"/>
<path fill="#FFFFFF" d="M3.5,58l-0.7-1.1C0.3,53-0.6,49.1,0.4,45.5c1.3-5.1,6-9.9,14.1-14.4c5.4-3,8.8-8.7,10.2-16.8l0.3-1.5
	l0.2,1.5c1.4,9-2,16-10,20.7C5.5,40.2,1.5,47.5,3.2,56.7L3.5,58z M24.8,15.9c-1.6,7.5-5,12.8-10.2,15.6C6.7,36,2.1,40.7,0.8,45.6
	c-0.8,3.2-0.2,6.5,1.7,9.9c-1.2-8.8,3-15.9,12.4-20.9C22.3,30.3,25.6,24,24.8,15.9z"/>
<path fill="#FFFFFF" d="M42.8,71.1l-0.4,0c-1.1,0-2.2-0.4-3.2-1c0,0-0.2-0.1-0.7-0.1c-0.7,0.1-1.4,0.2-2.1,0.2c-0.2,0-0.5,0-0.7,0
	c-1.5,0-2.4-0.3-3-0.9l-0.1-0.1c-0.1-0.2,0-0.4,0-0.5c0.2-0.3,0.5-0.3,0.7-0.3c0.1,0,0.2,0,0.3,0c0.4,0.1,0.9,0.1,1.5,0.1l0.3,0
	c0.4,0,1.4-0.3,3.6-1.5c0.6-0.4,1.2-0.4,1.6-0.1c0.5,0.3,1.1,0.4,1.7,0.4h0.4V71.1z M38.5,69.2c0.5,0,0.9,0.1,1.1,0.2
	c0.8,0.5,1.6,0.8,2.4,0.9v-2.2c-0.6-0.1-1.2-0.2-1.7-0.5c-0.3-0.2-0.5-0.1-0.9,0.1c-2,1-3.3,1.6-4,1.6l-0.3,0c-0.5,0-0.9,0-1.2-0.1
	c0.6,0.2,1.4,0.2,2.4,0.2C37.1,69.4,37.8,69.3,38.5,69.2z"/>
<path fill="#FFFFFF" d="M42.8,74.5h-0.4c-1.4,0-2.6-0.2-3.6-0.6c-2.1-1-4.1-2.5-3.8-3.7c0.1-0.4,0.5-0.9,1.8-0.9
	c0.5,0,1.1,0.1,1.9,0.2c0.4,0,0.8,0.1,1,0.3c0.8,0.5,1.8,0.7,2.8,0.7l0.4,0V74.5z M36.8,70.1c-0.7,0-1,0.1-1,0.3
	c-0.1,0.4,0.9,1.6,3.4,2.8c0.7,0.3,1.8,0.5,2.9,0.5v-2.4c-1-0.1-1.9-0.3-2.8-0.8c-0.1-0.1-0.3-0.1-0.7-0.2
	C37.8,70.2,37.3,70.1,36.8,70.1z"/>
<path fill="#FFFFFF" d="M42.1,71.1v-3.7h0.4c0.6,0,1.2-0.2,1.7-0.4c0.4-0.3,1-0.3,1.6,0.1c2.2,1.2,3.2,1.5,3.6,1.5l0.3,0
	c0.6,0,1.1,0,1.4-0.1c0.2,0,0.3,0,0.4,0c0.2,0,0.6,0,0.7,0.3c0.1,0.1,0.1,0.3,0,0.5l-0.1,0.1c-0.7,0.7-1.9,1-3.8,0.9
	c-0.7,0-1.4-0.1-2.2-0.2c-0.4,0-0.6,0.1-0.6,0.1c-1,0.6-2.1,1-3.2,1L42.1,71.1z M42.8,68.2v2.2c0.8-0.1,1.6-0.4,2.4-0.9
	c0.3-0.1,0.6-0.2,1.1-0.2c0.8,0.1,1.5,0.2,2.2,0.2c1.1,0.1,1.9,0,2.4-0.2c-0.3,0-0.7,0.1-1.2,0.1l-0.3,0c-0.7,0-2-0.5-4-1.6
	c-0.4-0.2-0.6-0.3-0.9-0.1C44,67.9,43.4,68.1,42.8,68.2z"/>
<path fill="#FFFFFF" d="M42.4,74.5h-0.4v-3.9l0.4,0c1,0,1.9-0.3,2.8-0.8c0.2-0.1,0.6-0.2,1-0.3c0.7-0.1,1.3-0.2,1.8-0.2
	c1.3,0,1.7,0.5,1.8,0.9c0.3,1.2-1.8,2.7-3.8,3.7C45.1,74.3,43.8,74.5,42.4,74.5z M42.8,71.3v2.4c1.1,0,2.2-0.2,2.9-0.5
	c2.5-1.2,3.5-2.4,3.4-2.8c0-0.1-0.4-0.3-1-0.3c-0.5,0-1,0.1-1.7,0.2c-0.5,0-0.7,0.1-0.7,0.2C44.7,71,43.8,71.3,42.8,71.3z"/>
<path fill="#FFFFFF" d="M31.8,66c-0.6,0-1.1-0.5-1.1-1.1s0.5-1.1,1.1-1.1s1.1,0.5,1.1,1.1S32.3,66,31.8,66z M31.8,64.3
	c-0.3,0-0.6,0.3-0.6,0.6s0.3,0.6,0.6,0.6c0.3,0,0.6-0.3,0.6-0.6S32.1,64.3,31.8,64.3z"/>
<path fill="#FFFFFF" d="M6.5,57.2C6.2,66.6,5.7,75.1,5,82.5c0.2,0.1,0.3,0.1,0.5,0.2C6.2,75.5,6.7,67.3,7,58.3
	C6.8,57.9,6.6,57.6,6.5,57.2z"/>
<path fill="#FFFFFF" d="M7,58.8c0.2-4.2,0.3-8.7,0.3-13.5c-0.2,0-0.3,0-0.5,0c0,4.8-0.1,9.3-0.3,13.5C6.6,58.8,6.8,58.8,7,58.8z"/>
<path fill="#FFFFFF" d="M77.8,41.6c0-13.6-3.1-24.1-9.2-31.1C62.6,3.5,53.8,0,42.5,0H42C30.7,0,21.9,3.5,15.9,10.5
	C9.8,17.5,6.7,28,6.7,41.6c0,2.5,0,4.9-0.1,7.3C6.8,48.4,7,48,7.2,47.5c0-2,0-3.9,0-5.9c0-26.9,12-41.1,34.8-41.1h0.5
	c22.8,0,34.8,14.2,34.8,41.1c0,15.4,0.6,29.3,1.7,40.6c0.2,0,0.3,0,0.5-0.1C78.4,70.9,77.8,57,77.8,41.6z"/>
<path fill="#FFFFFF" d="M68.1,52c-1.2,6.5-2.7,12.3-4.6,14.7c-1,1.8-4.9,6.3-9.5,10.7c-5.2,4.9-9.5,7.7-11.6,7.7
	c-2.1,0-6.4-2.8-11.6-7.7c-4.6-4.4-8.5-8.8-9.5-10.7c-3.4-4.4-5.6-20-7-31.4c0,0,0,0,0,0c-0.2,0.1-0.3,0.1-0.5,0.2
	c1.4,11.5,3.6,27.1,7.1,31.6c1.2,2.1,5.4,6.9,9.6,10.8c3.1,2.9,8.8,7.9,12,7.9s8.8-4.9,12-7.9c4.2-3.9,8.4-8.7,9.6-10.8
	c1.7-2.2,3.1-7.2,4.3-13.1C68.1,53.2,68.1,52.6,68.1,52z"/>
<g>
	<path fill="none" stroke="#FFFFFF" stroke-width="0.5" stroke-linecap="round" stroke-linejoin="round" stroke-miterlimit="10" d="
		M20.3,45.8c0.4,0.2,0.7,0.5,1.2,0.6c0.1,0,0.2,0,0.3,0.2c0,0.1,0.2,0.1,0.3,0.2c0.6,0.2,1.2,0.4,1.8,0.6c0.9,0.3,1.9,0.5,2.8,0.6
		c1.9,0.3,3.9,0.3,5.8-0.1c0.7-0.1,1.4-0.3,2.1-0.5c0.1,0,0.3-0.1,0.4-0.2c-0.2-0.1-0.3,0-0.5,0c-2.5,0.3-4.9,0-7.2-1
		c-0.9-0.4-1.8-0.9-2.6-1.5c-0.4-0.2-0.6-0.2-1,0c-0.7,0.4-1.4,0.8-2.1,0.9C21.1,45.7,20.7,45.7,20.3,45.8z"/>
</g>
<g>
	<path fill="none" stroke="#FFFFFF" stroke-width="0.5" stroke-linecap="round" stroke-linejoin="round" stroke-miterlimit="10" d="
		M63.7,46.7c-0.4,0.2-0.8,0.5-1.2,0.5c-0.1,0-0.2,0-0.3,0.1c0,0.1-0.2,0.1-0.3,0.1c-0.6,0.1-1.3,0.3-1.9,0.5c-1,0.2-1.9,0.4-2.9,0.4
		c-1.9,0.1-3.9,0-5.8-0.5c-0.7-0.2-1.4-0.4-2-0.7c-0.1-0.1-0.3-0.1-0.4-0.2c0.2-0.1,0.3,0,0.5,0c2.5,0.5,4.9,0.4,7.3-0.4
		c1-0.3,1.9-0.8,2.7-1.2c0.4-0.2,0.7-0.2,1,0.1c0.6,0.5,1.3,0.9,2.1,1.1C62.9,46.7,63.3,46.7,63.7,46.7z"/>
</g>
<path fill="#FFFFFF" d="M34.5,38.6c-0.7,0-1.6-0.4-2.3-1c-1.1-1-2.4-1.9-3.7-2.6c-0.3-0.1-0.9-0.2-1.6-0.2c-1.5,0-3.8,0.3-6.9,1
	c-0.5,0.1-0.8,0.1-1.1,0.1c0,0,0,0,0,0c-0.2,0-0.8,0-0.9-0.4c-0.1-0.5,1-0.8,1.4-1c4.6-1.3,7.8-1.8,9.5-1.5c2.5,0.6,4.4,1.4,5.7,2.6
	c1,1.1,1.2,2,0.7,2.7C35.1,38.5,34.8,38.6,34.5,38.6z M26.9,34.2c0.8,0,1.4,0.1,1.8,0.2c1.4,0.8,2.6,1.7,3.8,2.7
	c0.6,0.6,1.4,0.9,2,0.9c0.1,0,0.3,0,0.5-0.1c0.3-0.4,0.1-1.1-0.6-2c-1.3-1.1-3.1-1.9-5.5-2.4c-1.5-0.3-4.7,0.2-9.3,1.5
	c-0.5,0.1-0.8,0.3-0.9,0.4c0.1,0,0.1,0,0.3,0c0,0,0,0,0,0c0.3,0,0.6,0,1-0.1C23,34.6,25.3,34.2,26.9,34.2z"/>
<path fill="#FFFFFF" d="M49.5,39.5c-0.3,0-0.6-0.1-0.8-0.3c-0.6-0.7-0.4-1.6,0.6-2.7c1.4-1.2,3.3-2.1,5.8-2.6
	c0.3-0.1,0.7-0.1,1.2-0.1c1.8,0,4.6,0.5,8.3,1.6c0.4,0.1,1.5,0.4,1.4,1c-0.1,0.4-0.7,0.4-0.9,0.4c-0.3,0-0.7,0-1.1-0.1
	c-4.4-1-7.3-1.2-8.5-0.8c-1.3,0.7-2.5,1.6-3.7,2.6C51.1,39.1,50.2,39.5,49.5,39.5z M56.2,34.3c-0.4,0-0.8,0-1.1,0.1
	c-2.4,0.5-4.2,1.4-5.5,2.5c-0.8,0.9-1,1.6-0.6,2c0.1,0.1,0.3,0.1,0.4,0.1c0.6,0,1.4-0.4,2-0.9c1.2-1,2.4-1.9,3.8-2.7
	c0.5-0.2,1.1-0.3,1.9-0.3c1.6,0,3.9,0.3,7,1c0.6,0.1,1.1,0.1,1.3,0.1c-0.2-0.1-0.4-0.2-0.9-0.4C60.7,34.8,57.9,34.3,56.2,34.3z"/>
<path fill="#FFFFFF" d="M34.1,44.8c0.3,0.5,0.4,1,0.4,1.6c0,0.3-0.1,0.6-0.3,0.8c0.1,0.1,0.2,0.2,0.3,0.2c0.3-0.1,0.5-0.3,0.8-0.4
	c0-0.2,0-0.4,0-0.6c-0.1-0.4-0.3-0.7-0.4-1.1c-0.1-0.4-0.4-0.6-0.6-0.9c-0.4-0.5-0.9-0.8-1.4-1.1c-0.1-0.1-0.2-0.1-0.3-0.1
	c0.3,0.1,0.6,0.4,0.9,0.6C33.6,44.1,33.9,44.5,34.1,44.8z"/>
<path fill="#FFFFFF" d="M50.2,44.9c-0.4,0.4-0.6,0.9-0.6,1.5c0,0.3,0,0.6,0.2,0.8c-0.1,0.1-0.2,0.1-0.3,0.2
	c-0.2-0.2-0.5-0.3-0.7-0.5c0-0.2,0.1-0.4,0.1-0.6c0.1-0.4,0.4-0.7,0.6-1c0.2-0.3,0.5-0.6,0.8-0.8c0.5-0.4,1-0.7,1.6-0.9
	c0.1,0,0.2-0.1,0.3,0c-0.3,0.1-0.6,0.3-0.9,0.4C50.8,44.3,50.4,44.6,50.2,44.9z"/>
</svg>
