<!-- Generator: Adobe Illustrator 18.0.0, SVG Export Plug-In  -->
<svg version="1.1"
	 xmlns="http://www.w3.org/2000/svg" xmlns:xlink="http://www.w3.org/1999/xlink" xmlns:a="http://ns.adobe.com/AdobeSVGViewerExtensions/3.0/"
	 x="0px" y="0px" width="158.1px" height="85.9px" viewBox="0 0 158.1 85.9" enable-background="new 0 0 158.1 85.9"
	 xml:space="preserve">
<defs>
</defs>
<g>
	<path fill="#F8FCFC" d="M79.4,0c11.1,0.2,22,2.7,32.5,7.3c16.5,7.3,30.5,17.9,43,30.8c0.3,0.3,0.6,0.6,0.8,0.9c3,3.5,3.1,4.5,0,7.8
		c-14.7,15.5-31.6,27.9-52,34.8c-19.6,6.7-38.8,5.1-57.7-3.2C29.6,71.3,15.7,60.7,3.2,47.9c-4.3-4.4-4.3-5.4,0-9.9
		C17.9,23,34.6,10.9,54.7,4.1C62.5,1.4,70.7,0.2,79.4,0z M42.5,17.4c-0.4,0.1-0.6,0.1-0.7,0.2C29.9,23.8,19.4,32,9.9,41.4
		c-1.5,1.5-0.8,2.3,0.3,3.4c11.7,11.3,24.5,21,39.6,27.5c17.7,7.7,35.6,8.6,53.7,1.9c17-6.3,31.3-16.8,44.3-29.3
		c1.5-1.4,1.5-2.3,0-3.8c-8.6-8.3-17.8-15.9-28.2-21.7c-1.3-0.7-2.5-1.4-4-2.2c3.7,14.1,3.9,18.2,1.6,26.6
		c-2.5,8.9-7.4,16.2-15,21.5c-14.7,10.3-32.4,10.1-46.9-0.4C44.2,56.8,34.1,38.8,42.5,17.4z M79.1,65.5c2-0.1,4,0,6-0.4
		c23.1-4.6,35.1-31.8,19.7-51.8c-0.9-1.1-1.8-1.8-3.2-2.3c-15-5-30.1-5-45.1,0c-1,0.4-2,0.8-2.7,1.7c-6.1,7.7-8.6,16.5-6.9,26
		C49.6,53.3,62.3,65.9,79.1,65.5z"/>
	<path fill="#F8FCFC" d="M79,49.7c-9.3,0-16.6-7.4-16.6-16.6c0-9.2,7.5-16.7,16.7-16.7c9.1,0,16.6,7.6,16.6,16.8
		C95.7,42.4,88.3,49.8,79,49.7z"/>
</g>
</svg>
